<svg width="700" height="700" viewBox="0 0 700 700" fill="none" xmlns="http://www.w3.org/2000/svg">
<rect width="700" height="700" fill="white"/>
<path d="M263 375H437V288C437 279.716 430.284 273 422 273H278C269.716 273 263 279.716 263 288V375Z" fill="#747474"/>
<circle cx="87" cy="87" r="87" transform="matrix(1 0 0 -1 263 457)" fill="#747474"/>
<rect width="124" height="77" rx="15" transform="matrix(1 0 0 -1 288 375)" fill="#585858"/>
<path d="M346 230C346 232.209 347.791 234 350 234C352.209 234 354 232.209 354 230H346ZM352.828 125.172C351.266 123.609 348.734 123.609 347.172 125.172L321.716 150.627C320.154 152.19 320.154 154.722 321.716 156.284C323.278 157.846 325.81 157.846 327.373 156.284L350 133.657L372.627 156.284C374.19 157.846 376.722 157.846 378.284 156.284C379.846 154.722 379.846 152.19 378.284 150.627L352.828 125.172ZM354 230V128H346V230H354Z" fill="black"/>
<path d="M354 496C354 493.791 352.209 492 350 492C347.791 492 346 493.791 346 496H354ZM347.172 600.828C348.734 602.391 351.266 602.391 352.828 600.828L378.284 575.373C379.846 573.81 379.846 571.278 378.284 569.716C376.722 568.154 374.19 568.154 372.627 569.716L350 592.343L327.373 569.716C325.81 568.154 323.278 568.154 321.716 569.716C320.154 571.278 320.154 573.81 321.716 575.373L347.172 600.828ZM346 496V598H354V496H346Z" fill="black"/>
<path d="M335.892 92L325.903 57.0909H333.966L339.744 81.3466H340.034L346.409 57.0909H353.312L359.67 81.3977H359.977L365.756 57.0909H373.818L363.83 92H356.636L349.989 69.1761H349.716L343.085 92H335.892Z" fill="black"/>
<path d="M53.0511 367H45.142L57.1932 332.091H66.7045L78.7386 367H70.8295L62.0852 340.068H61.8125L53.0511 367ZM52.5568 353.278H71.2386V359.04H52.5568V353.278Z" fill="black"/>
<path d="M355.972 643.131C355.835 641.756 355.25 640.687 354.216 639.926C353.182 639.165 351.778 638.784 350.006 638.784C348.801 638.784 347.784 638.955 346.955 639.295C346.125 639.625 345.489 640.085 345.045 640.676C344.614 641.267 344.398 641.938 344.398 642.688C344.375 643.312 344.506 643.858 344.79 644.324C345.085 644.79 345.489 645.193 346 645.534C346.511 645.864 347.102 646.153 347.773 646.403C348.443 646.642 349.159 646.847 349.92 647.017L353.057 647.767C354.58 648.108 355.977 648.562 357.25 649.131C358.523 649.699 359.625 650.398 360.557 651.227C361.489 652.057 362.21 653.034 362.722 654.159C363.244 655.284 363.511 656.574 363.523 658.028C363.511 660.165 362.966 662.017 361.886 663.585C360.818 665.142 359.273 666.352 357.25 667.216C355.239 668.068 352.813 668.494 349.972 668.494C347.153 668.494 344.699 668.062 342.608 667.199C340.528 666.335 338.903 665.057 337.733 663.364C336.574 661.659 335.966 659.551 335.909 657.04H343.051C343.131 658.21 343.466 659.187 344.057 659.972C344.659 660.744 345.46 661.33 346.46 661.727C347.472 662.114 348.614 662.307 349.886 662.307C351.136 662.307 352.222 662.125 353.142 661.761C354.074 661.398 354.795 660.892 355.307 660.244C355.818 659.597 356.074 658.852 356.074 658.011C356.074 657.227 355.841 656.568 355.375 656.034C354.92 655.5 354.25 655.045 353.364 654.67C352.489 654.295 351.415 653.955 350.142 653.648L346.341 652.693C343.398 651.977 341.074 650.858 339.369 649.335C337.665 647.812 336.818 645.761 336.83 643.182C336.818 641.068 337.381 639.222 338.517 637.642C339.665 636.062 341.239 634.83 343.239 633.943C345.239 633.057 347.511 632.614 350.057 632.614C352.648 632.614 354.909 633.057 356.841 633.943C358.784 634.83 360.295 636.062 361.375 637.642C362.455 639.222 363.011 641.051 363.045 643.131H355.972Z" fill="black"/>
<path d="M634.409 367H622.034V332.091H634.511C638.023 332.091 641.045 332.79 643.58 334.188C646.114 335.574 648.063 337.568 649.426 340.17C650.801 342.773 651.489 345.886 651.489 349.511C651.489 353.148 650.801 356.273 649.426 358.886C648.063 361.5 646.102 363.506 643.545 364.903C641 366.301 637.955 367 634.409 367ZM629.415 360.676H634.102C636.284 360.676 638.119 360.29 639.608 359.517C641.108 358.733 642.233 357.523 642.983 355.886C643.744 354.239 644.125 352.114 644.125 349.511C644.125 346.932 643.744 344.824 642.983 343.188C642.233 341.551 641.114 340.347 639.625 339.574C638.136 338.801 636.301 338.415 634.119 338.415H629.415V360.676Z" fill="black"/>
<path d="M122.987 386.726C124.494 388.342 127.025 388.431 128.641 386.924L154.969 362.372C156.585 360.865 156.674 358.334 155.167 356.719C153.66 355.103 151.129 355.014 149.513 356.521L126.11 378.345L104.286 354.942C102.78 353.326 100.248 353.238 98.6328 354.744C97.0171 356.251 96.9288 358.782 98.4354 360.398L122.987 386.726ZM122.09 378.862L121.915 383.859L129.91 384.138L130.085 379.141L122.09 378.862Z" fill="black"/>
<path d="M236 379C236 381.209 237.791 383 240 383C242.209 383 244 381.209 244 379H236ZM130 379C130 359.191 136.765 344.743 146.591 335.255C156.464 325.721 169.683 320.949 182.985 321C196.287 321.051 209.519 325.926 219.405 335.497C229.243 345.021 236 359.422 236 379H244C244 357.463 236.507 340.919 224.97 329.749C213.481 318.627 198.213 313.059 183.015 313C167.817 312.942 152.536 318.394 141.034 329.5C129.485 340.651 122 357.257 122 379H130Z" fill="black"/>
<path d="M576.013 386.726C574.506 388.342 571.975 388.431 570.359 386.924L544.031 362.372C542.415 360.865 542.326 358.334 543.833 356.719C545.34 355.103 547.871 355.014 549.486 356.521L572.89 378.345L594.714 354.942C596.22 353.326 598.751 353.238 600.367 354.744C601.983 356.251 602.071 358.782 600.565 360.398L576.013 386.726ZM576.91 378.862L577.085 383.859L569.09 384.138L568.915 379.141L576.91 378.862Z" fill="black"/>
<path d="M463 379C463 381.209 461.209 383 459 383C456.791 383 455 381.209 455 379H463ZM569 379C569 359.191 562.235 344.743 552.409 335.255C542.536 325.721 529.317 320.949 516.015 321C502.713 321.051 489.481 325.926 479.595 335.497C469.757 345.021 463 359.422 463 379H455C455 357.463 462.493 340.919 474.03 329.749C485.519 318.627 500.787 313.059 515.985 313C531.183 312.942 546.464 318.394 557.966 329.5C569.515 340.651 577 357.257 577 379H569Z" fill="black"/>
</svg>
