<svg width="750" height="750" viewBox="0 0 750 750" fill="none" xmlns="http://www.w3.org/2000/svg">
<rect width="750" height="750" fill="white"/>
<path d="M636.33 398.426C634.33 398.426 632.608 397.915 631.165 396.892C629.733 395.858 628.71 394.341 628.097 392.341C627.494 390.33 627.438 387.864 627.926 384.943C628.426 381.943 629.324 379.449 630.619 377.46C631.915 375.46 633.449 373.966 635.222 372.977C636.994 371.977 638.841 371.477 640.761 371.477C642.216 371.477 643.392 371.727 644.29 372.227C645.199 372.716 645.898 373.33 646.386 374.068C646.875 374.795 647.216 375.511 647.409 376.216H647.631L649.83 363.091H657.074L651.278 398H644.119L644.818 393.807H644.511C644.057 394.534 643.455 395.256 642.705 395.972C641.966 396.676 641.068 397.261 640.011 397.727C638.966 398.193 637.739 398.426 636.33 398.426ZM639.534 392.648C640.693 392.648 641.739 392.33 642.67 391.693C643.602 391.045 644.386 390.142 645.023 388.983C645.659 387.824 646.102 386.466 646.352 384.909C646.614 383.352 646.619 382 646.369 380.852C646.119 379.705 645.631 378.818 644.903 378.193C644.188 377.568 643.239 377.256 642.057 377.256C640.864 377.256 639.807 377.58 638.886 378.227C637.977 378.875 637.222 379.773 636.619 380.92C636.028 382.068 635.608 383.398 635.358 384.909C635.108 386.432 635.091 387.778 635.307 388.949C635.523 390.108 635.983 391.017 636.688 391.676C637.392 392.324 638.341 392.648 639.534 392.648Z" fill="black"/>
<path d="M588.852 88.6136C590.693 88.6136 592.415 88.9261 594.017 89.5511C595.631 90.1648 597 91.1534 598.125 92.517C599.25 93.8807 600.017 95.6705 600.426 97.8864C600.847 100.102 600.784 102.818 600.239 106.034C599.739 108.955 598.977 111.557 597.955 113.841C596.943 116.125 595.699 118.057 594.222 119.636C592.756 121.216 591.102 122.42 589.261 123.25C587.42 124.068 585.438 124.477 583.312 124.477C580.983 124.477 578.983 124.028 577.312 123.131C575.642 122.233 574.369 121.011 573.494 119.466C572.631 117.909 572.239 116.148 572.318 114.182H579.443C579.466 115.489 579.858 116.477 580.619 117.148C581.381 117.818 582.42 118.153 583.739 118.153C586.057 118.153 588.017 117.142 589.619 115.119C591.222 113.097 592.33 110.324 592.943 106.801L592.67 107.193C591.977 108.216 591.136 109.08 590.148 109.784C589.17 110.489 588.102 111.028 586.943 111.403C585.784 111.767 584.58 111.949 583.33 111.949C581.216 111.949 579.409 111.443 577.909 110.432C576.409 109.42 575.324 108.04 574.653 106.29C573.983 104.54 573.835 102.551 574.21 100.324C574.608 98.0398 575.483 96.017 576.835 94.2557C578.188 92.483 579.898 91.0966 581.966 90.0966C584.034 89.0966 586.33 88.6023 588.852 88.6136ZM588.597 94.4091C587.415 94.4091 586.295 94.6989 585.239 95.2784C584.193 95.8466 583.313 96.625 582.597 97.6136C581.892 98.5909 581.449 99.6932 581.267 100.92C581.108 101.989 581.193 102.955 581.523 103.818C581.852 104.682 582.386 105.364 583.125 105.864C583.875 106.352 584.795 106.597 585.886 106.597C586.784 106.597 587.642 106.426 588.46 106.085C589.29 105.744 590.04 105.278 590.71 104.688C591.392 104.085 591.955 103.392 592.398 102.608C592.852 101.812 593.148 100.977 593.284 100.102C593.455 99.0341 593.369 98.0739 593.028 97.2216C592.699 96.358 592.153 95.6761 591.392 95.1761C590.631 94.6648 589.699 94.4091 588.597 94.4091ZM615.903 124.767C612.972 124.767 610.568 124.051 608.693 122.619C606.818 121.176 605.54 119.097 604.858 116.381C604.188 113.665 604.17 110.398 604.807 106.58C605.455 102.773 606.562 99.5284 608.131 96.8466C609.71 94.1648 611.665 92.125 613.994 90.7273C616.335 89.3182 618.966 88.6136 621.886 88.6136C624.795 88.6136 627.188 89.3182 629.062 90.7273C630.938 92.1364 632.222 94.1761 632.915 96.8466C633.619 99.517 633.653 102.761 633.017 106.58C632.381 110.409 631.273 113.682 629.693 116.398C628.114 119.102 626.153 121.176 623.812 122.619C621.472 124.051 618.835 124.767 615.903 124.767ZM616.926 118.648C618.938 118.648 620.699 117.642 622.21 115.631C623.722 113.619 624.813 110.602 625.483 106.58C625.926 103.943 626.023 101.744 625.773 99.983C625.534 98.2102 624.994 96.8807 624.153 95.9943C623.313 95.108 622.227 94.6648 620.898 94.6648C618.909 94.6648 617.148 95.6648 615.614 97.6648C614.091 99.6534 613 102.625 612.341 106.58C611.898 109.261 611.801 111.5 612.051 113.295C612.301 115.08 612.847 116.42 613.688 117.318C614.528 118.205 615.608 118.648 616.926 118.648ZM648.013 105.608C646.479 105.608 645.075 105.233 643.803 104.483C642.53 103.722 641.518 102.71 640.768 101.449C640.018 100.176 639.643 98.767 639.643 97.2216C639.643 95.6875 640.018 94.2898 640.768 93.0284C641.518 91.7557 642.53 90.7443 643.803 89.9943C645.075 89.233 646.479 88.8523 648.013 88.8523C649.558 88.8523 650.962 89.233 652.223 89.9943C653.496 90.7443 654.507 91.7557 655.257 93.0284C656.007 94.2898 656.382 95.6875 656.382 97.2216C656.382 98.767 656.007 100.176 655.257 101.449C654.507 102.71 653.496 103.722 652.223 104.483C650.962 105.233 649.558 105.608 648.013 105.608ZM648.013 100.767C648.672 100.767 649.268 100.608 649.803 100.29C650.337 99.9716 650.757 99.5455 651.064 99.0114C651.382 98.4773 651.541 97.8807 651.541 97.2216C651.541 96.5739 651.382 95.983 651.064 95.4489C650.757 94.9148 650.337 94.4886 649.803 94.1705C649.268 93.8523 648.672 93.6932 648.013 93.6932C647.365 93.6932 646.774 93.8523 646.24 94.1705C645.706 94.4886 645.28 94.9148 644.962 95.4489C644.643 95.983 644.484 96.5739 644.484 97.2216C644.484 97.8807 644.643 98.4773 644.962 99.0114C645.28 99.5455 645.706 99.9716 646.24 100.29C646.774 100.608 647.365 100.767 648.013 100.767Z" fill="black"/>
<path d="M513 620H687V533C687 524.716 680.284 518 672 518H528C519.716 518 513 524.716 513 533V620Z" fill="#747474"/>
<circle cx="87" cy="87" r="87" transform="matrix(1 0 0 -1 513 702)" fill="#747474"/>
<rect width="124" height="77" rx="15" transform="matrix(1 0 0 -1 538 620)" fill="#585858"/>
<path d="M545.075 222.726C546.581 224.342 549.112 224.43 550.728 222.924L577.057 198.372C578.672 196.865 578.761 194.334 577.254 192.718C575.748 191.103 573.216 191.014 571.601 192.521L548.197 214.345L526.373 190.942C524.867 189.326 522.336 189.238 520.72 190.744C519.104 192.251 519.016 194.782 520.523 196.398L545.075 222.726ZM544.177 214.862L544.002 219.859L551.998 220.138L552.172 215.141L544.177 214.862Z" fill="black"/>
<path d="M658.087 215C658.087 217.209 659.878 219 662.087 219C664.296 219 666.087 217.209 666.087 215H658.087ZM552.087 215C552.087 195.191 558.852 180.743 568.678 171.255C578.552 161.721 591.771 156.949 605.072 157C618.374 157.051 631.607 161.926 641.493 171.497C651.33 181.021 658.087 195.422 658.087 215H666.087C666.087 193.463 658.594 176.919 647.057 165.749C635.568 154.627 620.3 149.059 605.103 149C589.904 148.942 574.623 154.394 563.121 165.5C551.572 176.651 544.087 193.257 544.087 215H552.087Z" fill="black"/>
<path d="M588.852 88.6136C590.693 88.6136 592.415 88.9261 594.017 89.5511C595.631 90.1648 597 91.1534 598.125 92.517C599.25 93.8807 600.017 95.6705 600.426 97.8864C600.847 100.102 600.784 102.818 600.239 106.034C599.739 108.955 598.977 111.557 597.955 113.841C596.943 116.125 595.699 118.057 594.222 119.636C592.756 121.216 591.102 122.42 589.261 123.25C587.42 124.068 585.438 124.477 583.312 124.477C580.983 124.477 578.983 124.028 577.312 123.131C575.642 122.233 574.369 121.011 573.494 119.466C572.631 117.909 572.239 116.148 572.318 114.182H579.443C579.466 115.489 579.858 116.477 580.619 117.148C581.381 117.818 582.42 118.153 583.739 118.153C586.057 118.153 588.017 117.142 589.619 115.119C591.222 113.097 592.33 110.324 592.943 106.801L592.67 107.193C591.977 108.216 591.136 109.08 590.148 109.784C589.17 110.489 588.102 111.028 586.943 111.403C585.784 111.767 584.58 111.949 583.33 111.949C581.216 111.949 579.409 111.443 577.909 110.432C576.409 109.42 575.324 108.04 574.653 106.29C573.983 104.54 573.835 102.551 574.21 100.324C574.608 98.0398 575.483 96.017 576.835 94.2557C578.188 92.483 579.898 91.0966 581.966 90.0966C584.034 89.0966 586.33 88.6023 588.852 88.6136ZM588.597 94.4091C587.415 94.4091 586.295 94.6989 585.239 95.2784C584.193 95.8466 583.313 96.625 582.597 97.6136C581.892 98.5909 581.449 99.6932 581.267 100.92C581.108 101.989 581.193 102.955 581.523 103.818C581.852 104.682 582.386 105.364 583.125 105.864C583.875 106.352 584.795 106.597 585.886 106.597C586.784 106.597 587.642 106.426 588.46 106.085C589.29 105.744 590.04 105.278 590.71 104.688C591.392 104.085 591.955 103.392 592.398 102.608C592.852 101.812 593.148 100.977 593.284 100.102C593.455 99.0341 593.369 98.0739 593.028 97.2216C592.699 96.358 592.153 95.6761 591.392 95.1761C590.631 94.6648 589.699 94.4091 588.597 94.4091ZM615.903 124.767C612.972 124.767 610.568 124.051 608.693 122.619C606.818 121.176 605.54 119.097 604.858 116.381C604.188 113.665 604.17 110.398 604.807 106.58C605.455 102.773 606.562 99.5284 608.131 96.8466C609.71 94.1648 611.665 92.125 613.994 90.7273C616.335 89.3182 618.966 88.6136 621.886 88.6136C624.795 88.6136 627.188 89.3182 629.062 90.7273C630.938 92.1364 632.222 94.1761 632.915 96.8466C633.619 99.517 633.653 102.761 633.017 106.58C632.381 110.409 631.273 113.682 629.693 116.398C628.114 119.102 626.153 121.176 623.812 122.619C621.472 124.051 618.835 124.767 615.903 124.767ZM616.926 118.648C618.938 118.648 620.699 117.642 622.21 115.631C623.722 113.619 624.813 110.602 625.483 106.58C625.926 103.943 626.023 101.744 625.773 99.983C625.534 98.2102 624.994 96.8807 624.153 95.9943C623.313 95.108 622.227 94.6648 620.898 94.6648C618.909 94.6648 617.148 95.6648 615.614 97.6648C614.091 99.6534 613 102.625 612.341 106.58C611.898 109.261 611.801 111.5 612.051 113.295C612.301 115.08 612.847 116.42 613.688 117.318C614.528 118.205 615.608 118.648 616.926 118.648ZM648.013 105.608C646.479 105.608 645.075 105.233 643.803 104.483C642.53 103.722 641.518 102.71 640.768 101.449C640.018 100.176 639.643 98.767 639.643 97.2216C639.643 95.6875 640.018 94.2898 640.768 93.0284C641.518 91.7557 642.53 90.7443 643.803 89.9943C645.075 89.233 646.479 88.8523 648.013 88.8523C649.558 88.8523 650.962 89.233 652.223 89.9943C653.496 90.7443 654.507 91.7557 655.257 93.0284C656.007 94.2898 656.382 95.6875 656.382 97.2216C656.382 98.767 656.007 100.176 655.257 101.449C654.507 102.71 653.496 103.722 652.223 104.483C650.962 105.233 649.558 105.608 648.013 105.608ZM648.013 100.767C648.672 100.767 649.268 100.608 649.803 100.29C650.337 99.9716 650.757 99.5455 651.064 99.0114C651.382 98.4773 651.541 97.8807 651.541 97.2216C651.541 96.5739 651.382 95.983 651.064 95.4489C650.757 94.9148 650.337 94.4886 649.803 94.1705C649.268 93.8523 648.672 93.6932 648.013 93.6932C647.365 93.6932 646.774 93.8523 646.24 94.1705C645.706 94.4886 645.28 94.9148 644.962 95.4489C644.643 95.983 644.484 96.5739 644.484 97.2216C644.484 97.8807 644.643 98.4773 644.962 99.0114C645.28 99.5455 645.706 99.9716 646.24 100.29C646.774 100.608 647.365 100.767 648.013 100.767Z" fill="black"/>
<path d="M658.087 215C658.087 217.209 659.878 219 662.087 219C664.296 219 666.087 217.209 666.087 215H658.087ZM552.087 215C552.087 195.191 558.852 180.743 568.678 171.255C578.552 161.721 591.771 156.949 605.072 157C618.374 157.051 631.607 161.926 641.493 171.497C651.33 181.021 658.087 195.422 658.087 215H666.087C666.087 193.463 658.594 176.919 647.057 165.749C635.568 154.627 620.3 149.059 605.103 149C589.904 148.942 574.623 154.394 563.121 165.5C551.572 176.651 544.087 193.257 544.087 215H552.087Z" fill="black"/>
<path d="M588.852 88.6136C590.693 88.6136 592.415 88.9261 594.017 89.5511C595.631 90.1648 597 91.1534 598.125 92.517C599.25 93.8807 600.017 95.6705 600.426 97.8864C600.847 100.102 600.784 102.818 600.239 106.034C599.739 108.955 598.977 111.557 597.955 113.841C596.943 116.125 595.699 118.057 594.222 119.636C592.756 121.216 591.102 122.42 589.261 123.25C587.42 124.068 585.438 124.477 583.312 124.477C580.983 124.477 578.983 124.028 577.312 123.131C575.642 122.233 574.369 121.011 573.494 119.466C572.631 117.909 572.239 116.148 572.318 114.182H579.443C579.466 115.489 579.858 116.477 580.619 117.148C581.381 117.818 582.42 118.153 583.739 118.153C586.057 118.153 588.017 117.142 589.619 115.119C591.222 113.097 592.33 110.324 592.943 106.801L592.67 107.193C591.977 108.216 591.136 109.08 590.148 109.784C589.17 110.489 588.102 111.028 586.943 111.403C585.784 111.767 584.58 111.949 583.33 111.949C581.216 111.949 579.409 111.443 577.909 110.432C576.409 109.42 575.324 108.04 574.653 106.29C573.983 104.54 573.835 102.551 574.21 100.324C574.608 98.0398 575.483 96.017 576.835 94.2557C578.188 92.483 579.898 91.0966 581.966 90.0966C584.034 89.0966 586.33 88.6023 588.852 88.6136ZM588.597 94.4091C587.415 94.4091 586.295 94.6989 585.239 95.2784C584.193 95.8466 583.313 96.625 582.597 97.6136C581.892 98.5909 581.449 99.6932 581.267 100.92C581.108 101.989 581.193 102.955 581.523 103.818C581.852 104.682 582.386 105.364 583.125 105.864C583.875 106.352 584.795 106.597 585.886 106.597C586.784 106.597 587.642 106.426 588.46 106.085C589.29 105.744 590.04 105.278 590.71 104.688C591.392 104.085 591.955 103.392 592.398 102.608C592.852 101.812 593.148 100.977 593.284 100.102C593.455 99.0341 593.369 98.0739 593.028 97.2216C592.699 96.358 592.153 95.6761 591.392 95.1761C590.631 94.6648 589.699 94.4091 588.597 94.4091ZM615.903 124.767C612.972 124.767 610.568 124.051 608.693 122.619C606.818 121.176 605.54 119.097 604.858 116.381C604.188 113.665 604.17 110.398 604.807 106.58C605.455 102.773 606.562 99.5284 608.131 96.8466C609.71 94.1648 611.665 92.125 613.994 90.7273C616.335 89.3182 618.966 88.6136 621.886 88.6136C624.795 88.6136 627.188 89.3182 629.062 90.7273C630.938 92.1364 632.222 94.1761 632.915 96.8466C633.619 99.517 633.653 102.761 633.017 106.58C632.381 110.409 631.273 113.682 629.693 116.398C628.114 119.102 626.153 121.176 623.812 122.619C621.472 124.051 618.835 124.767 615.903 124.767ZM616.926 118.648C618.938 118.648 620.699 117.642 622.21 115.631C623.722 113.619 624.813 110.602 625.483 106.58C625.926 103.943 626.023 101.744 625.773 99.983C625.534 98.2102 624.994 96.8807 624.153 95.9943C623.313 95.108 622.227 94.6648 620.898 94.6648C618.909 94.6648 617.148 95.6648 615.614 97.6648C614.091 99.6534 613 102.625 612.341 106.58C611.898 109.261 611.801 111.5 612.051 113.295C612.301 115.08 612.847 116.42 613.688 117.318C614.528 118.205 615.608 118.648 616.926 118.648ZM648.013 105.608C646.479 105.608 645.075 105.233 643.803 104.483C642.53 103.722 641.518 102.71 640.768 101.449C640.018 100.176 639.643 98.767 639.643 97.2216C639.643 95.6875 640.018 94.2898 640.768 93.0284C641.518 91.7557 642.53 90.7443 643.803 89.9943C645.075 89.233 646.479 88.8523 648.013 88.8523C649.558 88.8523 650.962 89.233 652.223 89.9943C653.496 90.7443 654.507 91.7557 655.257 93.0284C656.007 94.2898 656.382 95.6875 656.382 97.2216C656.382 98.767 656.007 100.176 655.257 101.449C654.507 102.71 653.496 103.722 652.223 104.483C650.962 105.233 649.558 105.608 648.013 105.608ZM648.013 100.767C648.672 100.767 649.268 100.608 649.803 100.29C650.337 99.9716 650.757 99.5455 651.064 99.0114C651.382 98.4773 651.541 97.8807 651.541 97.2216C651.541 96.5739 651.382 95.983 651.064 95.4489C650.757 94.9148 650.337 94.4886 649.803 94.1705C649.268 93.8523 648.672 93.6932 648.013 93.6932C647.365 93.6932 646.774 93.8523 646.24 94.1705C645.706 94.4886 645.28 94.9148 644.962 95.4489C644.643 95.983 644.484 96.5739 644.484 97.2216C644.484 97.8807 644.643 98.4773 644.962 99.0114C645.28 99.5455 645.706 99.9716 646.24 100.29C646.774 100.608 647.365 100.767 648.013 100.767Z" fill="black"/>
<path d="M545.075 222.726C546.581 224.342 549.112 224.43 550.728 222.924L577.057 198.372C578.672 196.865 578.761 194.334 577.254 192.718C575.748 191.103 573.216 191.014 571.601 192.521L548.197 214.345L526.373 190.942C524.867 189.326 522.336 189.238 520.72 190.744C519.104 192.251 519.016 194.782 520.523 196.398L545.075 222.726ZM544.177 214.862L544.002 219.859L551.998 220.138L552.172 215.141L544.177 214.862Z" fill="black"/>
<path d="M658.087 215C658.087 217.209 659.878 219 662.087 219C664.296 219 666.087 217.209 666.087 215H658.087ZM552.087 215C552.087 195.191 558.852 180.743 568.678 171.255C578.552 161.721 591.771 156.949 605.072 157C618.374 157.051 631.607 161.926 641.493 171.497C651.33 181.021 658.087 195.422 658.087 215H666.087C666.087 193.463 658.594 176.919 647.057 165.749C635.568 154.627 620.3 149.059 605.103 149C589.904 148.942 574.623 154.394 563.121 165.5C551.572 176.651 544.087 193.257 544.087 215H552.087Z" fill="black"/>
<path d="M588.852 88.6136C590.693 88.6136 592.415 88.9261 594.017 89.5511C595.631 90.1648 597 91.1534 598.125 92.517C599.25 93.8807 600.017 95.6705 600.426 97.8864C600.847 100.102 600.784 102.818 600.239 106.034C599.739 108.955 598.977 111.557 597.955 113.841C596.943 116.125 595.699 118.057 594.222 119.636C592.756 121.216 591.102 122.42 589.261 123.25C587.42 124.068 585.438 124.477 583.312 124.477C580.983 124.477 578.983 124.028 577.312 123.131C575.642 122.233 574.369 121.011 573.494 119.466C572.631 117.909 572.239 116.148 572.318 114.182H579.443C579.466 115.489 579.858 116.477 580.619 117.148C581.381 117.818 582.42 118.153 583.739 118.153C586.057 118.153 588.017 117.142 589.619 115.119C591.222 113.097 592.33 110.324 592.943 106.801L592.67 107.193C591.977 108.216 591.136 109.08 590.148 109.784C589.17 110.489 588.102 111.028 586.943 111.403C585.784 111.767 584.58 111.949 583.33 111.949C581.216 111.949 579.409 111.443 577.909 110.432C576.409 109.42 575.324 108.04 574.653 106.29C573.983 104.54 573.835 102.551 574.21 100.324C574.608 98.0398 575.483 96.017 576.835 94.2557C578.188 92.483 579.898 91.0966 581.966 90.0966C584.034 89.0966 586.33 88.6023 588.852 88.6136ZM588.597 94.4091C587.415 94.4091 586.295 94.6989 585.239 95.2784C584.193 95.8466 583.313 96.625 582.597 97.6136C581.892 98.5909 581.449 99.6932 581.267 100.92C581.108 101.989 581.193 102.955 581.523 103.818C581.852 104.682 582.386 105.364 583.125 105.864C583.875 106.352 584.795 106.597 585.886 106.597C586.784 106.597 587.642 106.426 588.46 106.085C589.29 105.744 590.04 105.278 590.71 104.688C591.392 104.085 591.955 103.392 592.398 102.608C592.852 101.812 593.148 100.977 593.284 100.102C593.455 99.0341 593.369 98.0739 593.028 97.2216C592.699 96.358 592.153 95.6761 591.392 95.1761C590.631 94.6648 589.699 94.4091 588.597 94.4091ZM615.903 124.767C612.972 124.767 610.568 124.051 608.693 122.619C606.818 121.176 605.54 119.097 604.858 116.381C604.188 113.665 604.17 110.398 604.807 106.58C605.455 102.773 606.562 99.5284 608.131 96.8466C609.71 94.1648 611.665 92.125 613.994 90.7273C616.335 89.3182 618.966 88.6136 621.886 88.6136C624.795 88.6136 627.188 89.3182 629.062 90.7273C630.938 92.1364 632.222 94.1761 632.915 96.8466C633.619 99.517 633.653 102.761 633.017 106.58C632.381 110.409 631.273 113.682 629.693 116.398C628.114 119.102 626.153 121.176 623.812 122.619C621.472 124.051 618.835 124.767 615.903 124.767ZM616.926 118.648C618.938 118.648 620.699 117.642 622.21 115.631C623.722 113.619 624.813 110.602 625.483 106.58C625.926 103.943 626.023 101.744 625.773 99.983C625.534 98.2102 624.994 96.8807 624.153 95.9943C623.313 95.108 622.227 94.6648 620.898 94.6648C618.909 94.6648 617.148 95.6648 615.614 97.6648C614.091 99.6534 613 102.625 612.341 106.58C611.898 109.261 611.801 111.5 612.051 113.295C612.301 115.08 612.847 116.42 613.688 117.318C614.528 118.205 615.608 118.648 616.926 118.648ZM648.013 105.608C646.479 105.608 645.075 105.233 643.803 104.483C642.53 103.722 641.518 102.71 640.768 101.449C640.018 100.176 639.643 98.767 639.643 97.2216C639.643 95.6875 640.018 94.2898 640.768 93.0284C641.518 91.7557 642.53 90.7443 643.803 89.9943C645.075 89.233 646.479 88.8523 648.013 88.8523C649.558 88.8523 650.962 89.233 652.223 89.9943C653.496 90.7443 654.507 91.7557 655.257 93.0284C656.007 94.2898 656.382 95.6875 656.382 97.2216C656.382 98.767 656.007 100.176 655.257 101.449C654.507 102.71 653.496 103.722 652.223 104.483C650.962 105.233 649.558 105.608 648.013 105.608ZM648.013 100.767C648.672 100.767 649.268 100.608 649.803 100.29C650.337 99.9716 650.757 99.5455 651.064 99.0114C651.382 98.4773 651.541 97.8807 651.541 97.2216C651.541 96.5739 651.382 95.983 651.064 95.4489C650.757 94.9148 650.337 94.4886 649.803 94.1705C649.268 93.8523 648.672 93.6932 648.013 93.6932C647.365 93.6932 646.774 93.8523 646.24 94.1705C645.706 94.4886 645.28 94.9148 644.962 95.4489C644.643 95.983 644.484 96.5739 644.484 97.2216C644.484 97.8807 644.643 98.4773 644.962 99.0114C645.28 99.5455 645.706 99.9716 646.24 100.29C646.774 100.608 647.365 100.767 648.013 100.767Z" fill="black"/>
<path d="M658.087 215C658.087 217.209 659.878 219 662.087 219C664.296 219 666.087 217.209 666.087 215H658.087ZM552.087 215C552.087 195.191 558.852 180.743 568.678 171.255C578.552 161.721 591.771 156.949 605.072 157C618.374 157.051 631.607 161.926 641.493 171.497C651.33 181.021 658.087 195.422 658.087 215H666.087C666.087 193.463 658.594 176.919 647.057 165.749C635.568 154.627 620.3 149.059 605.103 149C589.904 148.942 574.623 154.394 563.121 165.5C551.572 176.651 544.087 193.257 544.087 215H552.087Z" fill="black"/>
<path d="M117.852 88.6136C119.693 88.6136 121.415 88.9261 123.017 89.5511C124.631 90.1648 126 91.1534 127.125 92.517C128.25 93.8807 129.017 95.6705 129.426 97.8864C129.847 100.102 129.784 102.818 129.239 106.034C128.739 108.955 127.977 111.557 126.955 113.841C125.943 116.125 124.699 118.057 123.222 119.636C121.756 121.216 120.102 122.42 118.261 123.25C116.42 124.068 114.438 124.477 112.312 124.477C109.983 124.477 107.983 124.028 106.312 123.131C104.642 122.233 103.369 121.011 102.494 119.466C101.631 117.909 101.239 116.148 101.318 114.182H108.443C108.466 115.489 108.858 116.477 109.619 117.148C110.381 117.818 111.42 118.153 112.739 118.153C115.057 118.153 117.017 117.142 118.619 115.119C120.222 113.097 121.33 110.324 121.943 106.801L121.67 107.193C120.977 108.216 120.136 109.08 119.148 109.784C118.17 110.489 117.102 111.028 115.943 111.403C114.784 111.767 113.58 111.949 112.33 111.949C110.216 111.949 108.409 111.443 106.909 110.432C105.409 109.42 104.324 108.04 103.653 106.29C102.983 104.54 102.835 102.551 103.21 100.324C103.608 98.0398 104.483 96.017 105.835 94.2557C107.188 92.483 108.898 91.0966 110.966 90.0966C113.034 89.0966 115.33 88.6023 117.852 88.6136ZM117.597 94.4091C116.415 94.4091 115.295 94.6989 114.239 95.2784C113.193 95.8466 112.313 96.625 111.597 97.6136C110.892 98.5909 110.449 99.6932 110.267 100.92C110.108 101.989 110.193 102.955 110.523 103.818C110.852 104.682 111.386 105.364 112.125 105.864C112.875 106.352 113.795 106.597 114.886 106.597C115.784 106.597 116.642 106.426 117.46 106.085C118.29 105.744 119.04 105.278 119.71 104.688C120.392 104.085 120.955 103.392 121.398 102.608C121.852 101.812 122.148 100.977 122.284 100.102C122.455 99.0341 122.369 98.0739 122.028 97.2216C121.699 96.358 121.153 95.6761 120.392 95.1761C119.631 94.6648 118.699 94.4091 117.597 94.4091ZM144.903 124.767C141.972 124.767 139.568 124.051 137.693 122.619C135.818 121.176 134.54 119.097 133.858 116.381C133.188 113.665 133.17 110.398 133.807 106.58C134.455 102.773 135.562 99.5284 137.131 96.8466C138.71 94.1648 140.665 92.125 142.994 90.7273C145.335 89.3182 147.966 88.6136 150.886 88.6136C153.795 88.6136 156.188 89.3182 158.062 90.7273C159.938 92.1364 161.222 94.1761 161.915 96.8466C162.619 99.517 162.653 102.761 162.017 106.58C161.381 110.409 160.273 113.682 158.693 116.398C157.114 119.102 155.153 121.176 152.812 122.619C150.472 124.051 147.835 124.767 144.903 124.767ZM145.926 118.648C147.938 118.648 149.699 117.642 151.21 115.631C152.722 113.619 153.813 110.602 154.483 106.58C154.926 103.943 155.023 101.744 154.773 99.983C154.534 98.2102 153.994 96.8807 153.153 95.9943C152.313 95.108 151.227 94.6648 149.898 94.6648C147.909 94.6648 146.148 95.6648 144.614 97.6648C143.091 99.6534 142 102.625 141.341 106.58C140.898 109.261 140.801 111.5 141.051 113.295C141.301 115.08 141.847 116.42 142.688 117.318C143.528 118.205 144.608 118.648 145.926 118.648ZM177.013 105.608C175.479 105.608 174.075 105.233 172.803 104.483C171.53 103.722 170.518 102.71 169.768 101.449C169.018 100.176 168.643 98.767 168.643 97.2216C168.643 95.6875 169.018 94.2898 169.768 93.0284C170.518 91.7557 171.53 90.7443 172.803 89.9943C174.075 89.233 175.479 88.8523 177.013 88.8523C178.558 88.8523 179.962 89.233 181.223 89.9943C182.496 90.7443 183.507 91.7557 184.257 93.0284C185.007 94.2898 185.382 95.6875 185.382 97.2216C185.382 98.767 185.007 100.176 184.257 101.449C183.507 102.71 182.496 103.722 181.223 104.483C179.962 105.233 178.558 105.608 177.013 105.608ZM177.013 100.767C177.672 100.767 178.268 100.608 178.803 100.29C179.337 99.9716 179.757 99.5455 180.064 99.0114C180.382 98.4773 180.541 97.8807 180.541 97.2216C180.541 96.5739 180.382 95.983 180.064 95.4489C179.757 94.9148 179.337 94.4886 178.803 94.1705C178.268 93.8523 177.672 93.6932 177.013 93.6932C176.365 93.6932 175.774 93.8523 175.24 94.1705C174.706 94.4886 174.28 94.9148 173.962 95.4489C173.643 95.983 173.484 96.5739 173.484 97.2216C173.484 97.8807 173.643 98.4773 173.962 99.0114C174.28 99.5455 174.706 99.9716 175.24 100.29C175.774 100.608 176.365 100.767 177.013 100.767Z" fill="black"/>
<path d="M74.0746 222.726C75.5812 224.342 78.1123 224.43 79.728 222.924L106.057 198.372C107.672 196.865 107.761 194.334 106.254 192.718C104.748 191.103 102.216 191.014 100.601 192.521L77.1974 214.345L55.3735 190.942C53.8668 189.326 51.3357 189.238 49.7201 190.744C48.1044 192.251 48.016 194.782 49.5226 196.398L74.0746 222.726ZM73.1769 214.862L73.0024 219.859L80.9976 220.138L81.1721 215.141L73.1769 214.862Z" fill="black"/>
<path d="M187.087 215C187.087 217.209 188.878 219 191.087 219C193.296 219 195.087 217.209 195.087 215H187.087ZM81.0873 215C81.0873 195.191 87.8523 180.743 97.6782 171.255C107.552 161.721 120.771 156.949 134.072 157C147.374 157.051 160.607 161.926 170.493 171.497C180.33 181.021 187.087 195.422 187.087 215H195.087C195.087 193.463 187.594 176.919 176.057 165.749C164.568 154.627 149.3 149.059 134.103 149C118.904 148.942 103.623 154.394 92.1213 165.5C80.5723 176.651 73.0873 193.257 73.0873 215H81.0873Z" fill="black"/>
<path d="M117.852 88.6136C119.693 88.6136 121.415 88.9261 123.017 89.5511C124.631 90.1648 126 91.1534 127.125 92.517C128.25 93.8807 129.017 95.6705 129.426 97.8864C129.847 100.102 129.784 102.818 129.239 106.034C128.739 108.955 127.977 111.557 126.955 113.841C125.943 116.125 124.699 118.057 123.222 119.636C121.756 121.216 120.102 122.42 118.261 123.25C116.42 124.068 114.438 124.477 112.312 124.477C109.983 124.477 107.983 124.028 106.312 123.131C104.642 122.233 103.369 121.011 102.494 119.466C101.631 117.909 101.239 116.148 101.318 114.182H108.443C108.466 115.489 108.858 116.477 109.619 117.148C110.381 117.818 111.42 118.153 112.739 118.153C115.057 118.153 117.017 117.142 118.619 115.119C120.222 113.097 121.33 110.324 121.943 106.801L121.67 107.193C120.977 108.216 120.136 109.08 119.148 109.784C118.17 110.489 117.102 111.028 115.943 111.403C114.784 111.767 113.58 111.949 112.33 111.949C110.216 111.949 108.409 111.443 106.909 110.432C105.409 109.42 104.324 108.04 103.653 106.29C102.983 104.54 102.835 102.551 103.21 100.324C103.608 98.0398 104.483 96.017 105.835 94.2557C107.188 92.483 108.898 91.0966 110.966 90.0966C113.034 89.0966 115.33 88.6023 117.852 88.6136ZM117.597 94.4091C116.415 94.4091 115.295 94.6989 114.239 95.2784C113.193 95.8466 112.313 96.625 111.597 97.6136C110.892 98.5909 110.449 99.6932 110.267 100.92C110.108 101.989 110.193 102.955 110.523 103.818C110.852 104.682 111.386 105.364 112.125 105.864C112.875 106.352 113.795 106.597 114.886 106.597C115.784 106.597 116.642 106.426 117.46 106.085C118.29 105.744 119.04 105.278 119.71 104.688C120.392 104.085 120.955 103.392 121.398 102.608C121.852 101.812 122.148 100.977 122.284 100.102C122.455 99.0341 122.369 98.0739 122.028 97.2216C121.699 96.358 121.153 95.6761 120.392 95.1761C119.631 94.6648 118.699 94.4091 117.597 94.4091ZM144.903 124.767C141.972 124.767 139.568 124.051 137.693 122.619C135.818 121.176 134.54 119.097 133.858 116.381C133.188 113.665 133.17 110.398 133.807 106.58C134.455 102.773 135.562 99.5284 137.131 96.8466C138.71 94.1648 140.665 92.125 142.994 90.7273C145.335 89.3182 147.966 88.6136 150.886 88.6136C153.795 88.6136 156.188 89.3182 158.062 90.7273C159.938 92.1364 161.222 94.1761 161.915 96.8466C162.619 99.517 162.653 102.761 162.017 106.58C161.381 110.409 160.273 113.682 158.693 116.398C157.114 119.102 155.153 121.176 152.812 122.619C150.472 124.051 147.835 124.767 144.903 124.767ZM145.926 118.648C147.938 118.648 149.699 117.642 151.21 115.631C152.722 113.619 153.813 110.602 154.483 106.58C154.926 103.943 155.023 101.744 154.773 99.983C154.534 98.2102 153.994 96.8807 153.153 95.9943C152.313 95.108 151.227 94.6648 149.898 94.6648C147.909 94.6648 146.148 95.6648 144.614 97.6648C143.091 99.6534 142 102.625 141.341 106.58C140.898 109.261 140.801 111.5 141.051 113.295C141.301 115.08 141.847 116.42 142.688 117.318C143.528 118.205 144.608 118.648 145.926 118.648ZM177.013 105.608C175.479 105.608 174.075 105.233 172.803 104.483C171.53 103.722 170.518 102.71 169.768 101.449C169.018 100.176 168.643 98.767 168.643 97.2216C168.643 95.6875 169.018 94.2898 169.768 93.0284C170.518 91.7557 171.53 90.7443 172.803 89.9943C174.075 89.233 175.479 88.8523 177.013 88.8523C178.558 88.8523 179.962 89.233 181.223 89.9943C182.496 90.7443 183.507 91.7557 184.257 93.0284C185.007 94.2898 185.382 95.6875 185.382 97.2216C185.382 98.767 185.007 100.176 184.257 101.449C183.507 102.71 182.496 103.722 181.223 104.483C179.962 105.233 178.558 105.608 177.013 105.608ZM177.013 100.767C177.672 100.767 178.268 100.608 178.803 100.29C179.337 99.9716 179.757 99.5455 180.064 99.0114C180.382 98.4773 180.541 97.8807 180.541 97.2216C180.541 96.5739 180.382 95.983 180.064 95.4489C179.757 94.9148 179.337 94.4886 178.803 94.1705C178.268 93.8523 177.672 93.6932 177.013 93.6932C176.365 93.6932 175.774 93.8523 175.24 94.1705C174.706 94.4886 174.28 94.9148 173.962 95.4489C173.643 95.983 173.484 96.5739 173.484 97.2216C173.484 97.8807 173.643 98.4773 173.962 99.0114C174.28 99.5455 174.706 99.9716 175.24 100.29C175.774 100.608 176.365 100.767 177.013 100.767Z" fill="black"/>
<path d="M187.087 215C187.087 217.209 188.878 219 191.087 219C193.296 219 195.087 217.209 195.087 215H187.087ZM81.0873 215C81.0873 195.191 87.8523 180.743 97.6782 171.255C107.552 161.721 120.771 156.949 134.072 157C147.374 157.051 160.607 161.926 170.493 171.497C180.33 181.021 187.087 195.422 187.087 215H195.087C195.087 193.463 187.594 176.919 176.057 165.749C164.568 154.627 149.3 149.059 134.103 149C118.904 148.942 103.623 154.394 92.1213 165.5C80.5723 176.651 73.0873 193.257 73.0873 215H81.0873Z" fill="black"/>
<path d="M117.852 88.6136C119.693 88.6136 121.415 88.9261 123.017 89.5511C124.631 90.1648 126 91.1534 127.125 92.517C128.25 93.8807 129.017 95.6705 129.426 97.8864C129.847 100.102 129.784 102.818 129.239 106.034C128.739 108.955 127.977 111.557 126.955 113.841C125.943 116.125 124.699 118.057 123.222 119.636C121.756 121.216 120.102 122.42 118.261 123.25C116.42 124.068 114.438 124.477 112.312 124.477C109.983 124.477 107.983 124.028 106.312 123.131C104.642 122.233 103.369 121.011 102.494 119.466C101.631 117.909 101.239 116.148 101.318 114.182H108.443C108.466 115.489 108.858 116.477 109.619 117.148C110.381 117.818 111.42 118.153 112.739 118.153C115.057 118.153 117.017 117.142 118.619 115.119C120.222 113.097 121.33 110.324 121.943 106.801L121.67 107.193C120.977 108.216 120.136 109.08 119.148 109.784C118.17 110.489 117.102 111.028 115.943 111.403C114.784 111.767 113.58 111.949 112.33 111.949C110.216 111.949 108.409 111.443 106.909 110.432C105.409 109.42 104.324 108.04 103.653 106.29C102.983 104.54 102.835 102.551 103.21 100.324C103.608 98.0398 104.483 96.017 105.835 94.2557C107.188 92.483 108.898 91.0966 110.966 90.0966C113.034 89.0966 115.33 88.6023 117.852 88.6136ZM117.597 94.4091C116.415 94.4091 115.295 94.6989 114.239 95.2784C113.193 95.8466 112.313 96.625 111.597 97.6136C110.892 98.5909 110.449 99.6932 110.267 100.92C110.108 101.989 110.193 102.955 110.523 103.818C110.852 104.682 111.386 105.364 112.125 105.864C112.875 106.352 113.795 106.597 114.886 106.597C115.784 106.597 116.642 106.426 117.46 106.085C118.29 105.744 119.04 105.278 119.71 104.688C120.392 104.085 120.955 103.392 121.398 102.608C121.852 101.812 122.148 100.977 122.284 100.102C122.455 99.0341 122.369 98.0739 122.028 97.2216C121.699 96.358 121.153 95.6761 120.392 95.1761C119.631 94.6648 118.699 94.4091 117.597 94.4091ZM144.903 124.767C141.972 124.767 139.568 124.051 137.693 122.619C135.818 121.176 134.54 119.097 133.858 116.381C133.188 113.665 133.17 110.398 133.807 106.58C134.455 102.773 135.562 99.5284 137.131 96.8466C138.71 94.1648 140.665 92.125 142.994 90.7273C145.335 89.3182 147.966 88.6136 150.886 88.6136C153.795 88.6136 156.188 89.3182 158.062 90.7273C159.938 92.1364 161.222 94.1761 161.915 96.8466C162.619 99.517 162.653 102.761 162.017 106.58C161.381 110.409 160.273 113.682 158.693 116.398C157.114 119.102 155.153 121.176 152.812 122.619C150.472 124.051 147.835 124.767 144.903 124.767ZM145.926 118.648C147.938 118.648 149.699 117.642 151.21 115.631C152.722 113.619 153.813 110.602 154.483 106.58C154.926 103.943 155.023 101.744 154.773 99.983C154.534 98.2102 153.994 96.8807 153.153 95.9943C152.313 95.108 151.227 94.6648 149.898 94.6648C147.909 94.6648 146.148 95.6648 144.614 97.6648C143.091 99.6534 142 102.625 141.341 106.58C140.898 109.261 140.801 111.5 141.051 113.295C141.301 115.08 141.847 116.42 142.688 117.318C143.528 118.205 144.608 118.648 145.926 118.648ZM177.013 105.608C175.479 105.608 174.075 105.233 172.803 104.483C171.53 103.722 170.518 102.71 169.768 101.449C169.018 100.176 168.643 98.767 168.643 97.2216C168.643 95.6875 169.018 94.2898 169.768 93.0284C170.518 91.7557 171.53 90.7443 172.803 89.9943C174.075 89.233 175.479 88.8523 177.013 88.8523C178.558 88.8523 179.962 89.233 181.223 89.9943C182.496 90.7443 183.507 91.7557 184.257 93.0284C185.007 94.2898 185.382 95.6875 185.382 97.2216C185.382 98.767 185.007 100.176 184.257 101.449C183.507 102.71 182.496 103.722 181.223 104.483C179.962 105.233 178.558 105.608 177.013 105.608ZM177.013 100.767C177.672 100.767 178.268 100.608 178.803 100.29C179.337 99.9716 179.757 99.5455 180.064 99.0114C180.382 98.4773 180.541 97.8807 180.541 97.2216C180.541 96.5739 180.382 95.983 180.064 95.4489C179.757 94.9148 179.337 94.4886 178.803 94.1705C178.268 93.8523 177.672 93.6932 177.013 93.6932C176.365 93.6932 175.774 93.8523 175.24 94.1705C174.706 94.4886 174.28 94.9148 173.962 95.4489C173.643 95.983 173.484 96.5739 173.484 97.2216C173.484 97.8807 173.643 98.4773 173.962 99.0114C174.28 99.5455 174.706 99.9716 175.24 100.29C175.774 100.608 176.365 100.767 177.013 100.767Z" fill="black"/>
<path d="M187.087 215C187.087 217.209 188.878 219 191.087 219C193.296 219 195.087 217.209 195.087 215H187.087ZM81.0873 215C81.0873 195.191 87.8523 180.743 97.6782 171.255C107.552 161.721 120.771 156.949 134.072 157C147.374 157.051 160.607 161.926 170.493 171.497C180.33 181.021 187.087 195.422 187.087 215H195.087C195.087 193.463 187.594 176.919 176.057 165.749C164.568 154.627 149.3 149.059 134.103 149C118.904 148.942 103.623 154.394 92.1213 165.5C80.5723 176.651 73.0873 193.257 73.0873 215H81.0873Z" fill="black"/>
<path d="M117.852 88.6136C119.693 88.6136 121.415 88.9261 123.017 89.5511C124.631 90.1648 126 91.1534 127.125 92.517C128.25 93.8807 129.017 95.6705 129.426 97.8864C129.847 100.102 129.784 102.818 129.239 106.034C128.739 108.955 127.977 111.557 126.955 113.841C125.943 116.125 124.699 118.057 123.222 119.636C121.756 121.216 120.102 122.42 118.261 123.25C116.42 124.068 114.438 124.477 112.312 124.477C109.983 124.477 107.983 124.028 106.312 123.131C104.642 122.233 103.369 121.011 102.494 119.466C101.631 117.909 101.239 116.148 101.318 114.182H108.443C108.466 115.489 108.858 116.477 109.619 117.148C110.381 117.818 111.42 118.153 112.739 118.153C115.057 118.153 117.017 117.142 118.619 115.119C120.222 113.097 121.33 110.324 121.943 106.801L121.67 107.193C120.977 108.216 120.136 109.08 119.148 109.784C118.17 110.489 117.102 111.028 115.943 111.403C114.784 111.767 113.58 111.949 112.33 111.949C110.216 111.949 108.409 111.443 106.909 110.432C105.409 109.42 104.324 108.04 103.653 106.29C102.983 104.54 102.835 102.551 103.21 100.324C103.608 98.0398 104.483 96.017 105.835 94.2557C107.188 92.483 108.898 91.0966 110.966 90.0966C113.034 89.0966 115.33 88.6023 117.852 88.6136ZM117.597 94.4091C116.415 94.4091 115.295 94.6989 114.239 95.2784C113.193 95.8466 112.313 96.625 111.597 97.6136C110.892 98.5909 110.449 99.6932 110.267 100.92C110.108 101.989 110.193 102.955 110.523 103.818C110.852 104.682 111.386 105.364 112.125 105.864C112.875 106.352 113.795 106.597 114.886 106.597C115.784 106.597 116.642 106.426 117.46 106.085C118.29 105.744 119.04 105.278 119.71 104.688C120.392 104.085 120.955 103.392 121.398 102.608C121.852 101.812 122.148 100.977 122.284 100.102C122.455 99.0341 122.369 98.0739 122.028 97.2216C121.699 96.358 121.153 95.6761 120.392 95.1761C119.631 94.6648 118.699 94.4091 117.597 94.4091ZM144.903 124.767C141.972 124.767 139.568 124.051 137.693 122.619C135.818 121.176 134.54 119.097 133.858 116.381C133.188 113.665 133.17 110.398 133.807 106.58C134.455 102.773 135.562 99.5284 137.131 96.8466C138.71 94.1648 140.665 92.125 142.994 90.7273C145.335 89.3182 147.966 88.6136 150.886 88.6136C153.795 88.6136 156.188 89.3182 158.062 90.7273C159.938 92.1364 161.222 94.1761 161.915 96.8466C162.619 99.517 162.653 102.761 162.017 106.58C161.381 110.409 160.273 113.682 158.693 116.398C157.114 119.102 155.153 121.176 152.812 122.619C150.472 124.051 147.835 124.767 144.903 124.767ZM145.926 118.648C147.938 118.648 149.699 117.642 151.21 115.631C152.722 113.619 153.813 110.602 154.483 106.58C154.926 103.943 155.023 101.744 154.773 99.983C154.534 98.2102 153.994 96.8807 153.153 95.9943C152.313 95.108 151.227 94.6648 149.898 94.6648C147.909 94.6648 146.148 95.6648 144.614 97.6648C143.091 99.6534 142 102.625 141.341 106.58C140.898 109.261 140.801 111.5 141.051 113.295C141.301 115.08 141.847 116.42 142.688 117.318C143.528 118.205 144.608 118.648 145.926 118.648ZM177.013 105.608C175.479 105.608 174.075 105.233 172.803 104.483C171.53 103.722 170.518 102.71 169.768 101.449C169.018 100.176 168.643 98.767 168.643 97.2216C168.643 95.6875 169.018 94.2898 169.768 93.0284C170.518 91.7557 171.53 90.7443 172.803 89.9943C174.075 89.233 175.479 88.8523 177.013 88.8523C178.558 88.8523 179.962 89.233 181.223 89.9943C182.496 90.7443 183.507 91.7557 184.257 93.0284C185.007 94.2898 185.382 95.6875 185.382 97.2216C185.382 98.767 185.007 100.176 184.257 101.449C183.507 102.71 182.496 103.722 181.223 104.483C179.962 105.233 178.558 105.608 177.013 105.608ZM177.013 100.767C177.672 100.767 178.268 100.608 178.803 100.29C179.337 99.9716 179.757 99.5455 180.064 99.0114C180.382 98.4773 180.541 97.8807 180.541 97.2216C180.541 96.5739 180.382 95.983 180.064 95.4489C179.757 94.9148 179.337 94.4886 178.803 94.1705C178.268 93.8523 177.672 93.6932 177.013 93.6932C176.365 93.6932 175.774 93.8523 175.24 94.1705C174.706 94.4886 174.28 94.9148 173.962 95.4489C173.643 95.983 173.484 96.5739 173.484 97.2216C173.484 97.8807 173.643 98.4773 173.962 99.0114C174.28 99.5455 174.706 99.9716 175.24 100.29C175.774 100.608 176.365 100.767 177.013 100.767Z" fill="black"/>
<path d="M187.087 215C187.087 217.209 188.878 219 191.087 219C193.296 219 195.087 217.209 195.087 215H187.087ZM81.0873 215C81.0873 195.191 87.8523 180.743 97.6782 171.255C107.552 161.721 120.771 156.949 134.072 157C147.374 157.051 160.607 161.926 170.493 171.497C180.33 181.021 187.087 195.422 187.087 215H195.087C195.087 193.463 187.594 176.919 176.057 165.749C164.568 154.627 149.3 149.059 134.103 149C118.904 148.942 103.623 154.394 92.1213 165.5C80.5723 176.651 73.0873 193.257 73.0873 215H81.0873Z" fill="black"/>
<path d="M117.852 502.614C119.693 502.614 121.415 502.926 123.017 503.551C124.631 504.165 126 505.153 127.125 506.517C128.25 507.881 129.017 509.67 129.426 511.886C129.847 514.102 129.784 516.818 129.239 520.034C128.739 522.955 127.977 525.557 126.955 527.841C125.943 530.125 124.699 532.057 123.222 533.636C121.756 535.216 120.102 536.42 118.261 537.25C116.42 538.068 114.438 538.477 112.312 538.477C109.983 538.477 107.983 538.028 106.312 537.131C104.642 536.233 103.369 535.011 102.494 533.466C101.631 531.909 101.239 530.148 101.318 528.182H108.443C108.466 529.489 108.858 530.477 109.619 531.148C110.381 531.818 111.42 532.153 112.739 532.153C115.057 532.153 117.017 531.142 118.619 529.119C120.222 527.097 121.33 524.324 121.943 520.801L121.67 521.193C120.977 522.216 120.136 523.08 119.148 523.784C118.17 524.489 117.102 525.028 115.943 525.403C114.784 525.767 113.58 525.949 112.33 525.949C110.216 525.949 108.409 525.443 106.909 524.432C105.409 523.42 104.324 522.04 103.653 520.29C102.983 518.54 102.835 516.551 103.21 514.324C103.608 512.04 104.483 510.017 105.835 508.256C107.188 506.483 108.898 505.097 110.966 504.097C113.034 503.097 115.33 502.602 117.852 502.614ZM117.597 508.409C116.415 508.409 115.295 508.699 114.239 509.278C113.193 509.847 112.313 510.625 111.597 511.614C110.892 512.591 110.449 513.693 110.267 514.92C110.108 515.989 110.193 516.955 110.523 517.818C110.852 518.682 111.386 519.364 112.125 519.864C112.875 520.352 113.795 520.597 114.886 520.597C115.784 520.597 116.642 520.426 117.46 520.085C118.29 519.744 119.04 519.278 119.71 518.688C120.392 518.085 120.955 517.392 121.398 516.608C121.852 515.812 122.148 514.977 122.284 514.102C122.455 513.034 122.369 512.074 122.028 511.222C121.699 510.358 121.153 509.676 120.392 509.176C119.631 508.665 118.699 508.409 117.597 508.409ZM144.903 538.767C141.972 538.767 139.568 538.051 137.693 536.619C135.818 535.176 134.54 533.097 133.858 530.381C133.188 527.665 133.17 524.398 133.807 520.58C134.455 516.773 135.562 513.528 137.131 510.847C138.71 508.165 140.665 506.125 142.994 504.727C145.335 503.318 147.966 502.614 150.886 502.614C153.795 502.614 156.188 503.318 158.062 504.727C159.938 506.136 161.222 508.176 161.915 510.847C162.619 513.517 162.653 516.761 162.017 520.58C161.381 524.409 160.273 527.682 158.693 530.398C157.114 533.102 155.153 535.176 152.812 536.619C150.472 538.051 147.835 538.767 144.903 538.767ZM145.926 532.648C147.938 532.648 149.699 531.642 151.21 529.631C152.722 527.619 153.813 524.602 154.483 520.58C154.926 517.943 155.023 515.744 154.773 513.983C154.534 512.21 153.994 510.881 153.153 509.994C152.313 509.108 151.227 508.665 149.898 508.665C147.909 508.665 146.148 509.665 144.614 511.665C143.091 513.653 142 516.625 141.341 520.58C140.898 523.261 140.801 525.5 141.051 527.295C141.301 529.08 141.847 530.42 142.688 531.318C143.528 532.205 144.608 532.648 145.926 532.648ZM177.013 519.608C175.479 519.608 174.075 519.233 172.803 518.483C171.53 517.722 170.518 516.71 169.768 515.449C169.018 514.176 168.643 512.767 168.643 511.222C168.643 509.687 169.018 508.29 169.768 507.028C170.518 505.756 171.53 504.744 172.803 503.994C174.075 503.233 175.479 502.852 177.013 502.852C178.558 502.852 179.962 503.233 181.223 503.994C182.496 504.744 183.507 505.756 184.257 507.028C185.007 508.29 185.382 509.687 185.382 511.222C185.382 512.767 185.007 514.176 184.257 515.449C183.507 516.71 182.496 517.722 181.223 518.483C179.962 519.233 178.558 519.608 177.013 519.608ZM177.013 514.767C177.672 514.767 178.268 514.608 178.803 514.29C179.337 513.972 179.757 513.545 180.064 513.011C180.382 512.477 180.541 511.881 180.541 511.222C180.541 510.574 180.382 509.983 180.064 509.449C179.757 508.915 179.337 508.489 178.803 508.17C178.268 507.852 177.672 507.693 177.013 507.693C176.365 507.693 175.774 507.852 175.24 508.17C174.706 508.489 174.28 508.915 173.962 509.449C173.643 509.983 173.484 510.574 173.484 511.222C173.484 511.881 173.643 512.477 173.962 513.011C174.28 513.545 174.706 513.972 175.24 514.29C175.774 514.608 176.365 514.767 177.013 514.767Z" fill="black"/>
<path d="M74.0746 636.726C75.5812 638.342 78.1123 638.43 79.728 636.924L106.057 612.372C107.672 610.865 107.761 608.334 106.254 606.718C104.748 605.103 102.216 605.014 100.601 606.521L77.1974 628.345L55.3735 604.942C53.8668 603.326 51.3357 603.238 49.7201 604.744C48.1044 606.251 48.016 608.782 49.5226 610.398L74.0746 636.726ZM73.1769 628.862L73.0024 633.859L80.9976 634.138L81.1721 629.141L73.1769 628.862Z" fill="black"/>
<path d="M187.087 629C187.087 631.209 188.878 633 191.087 633C193.296 633 195.087 631.209 195.087 629H187.087ZM81.0873 629C81.0873 609.191 87.8523 594.743 97.6782 585.255C107.552 575.721 120.771 570.949 134.072 571C147.374 571.051 160.607 575.926 170.493 585.497C180.33 595.021 187.087 609.422 187.087 629H195.087C195.087 607.463 187.594 590.919 176.057 579.749C164.568 568.627 149.3 563.059 134.103 563C118.904 562.942 103.623 568.394 92.1213 579.5C80.5723 590.651 73.0873 607.257 73.0873 629H81.0873Z" fill="black"/>
<path d="M117.852 502.614C119.693 502.614 121.415 502.926 123.017 503.551C124.631 504.165 126 505.153 127.125 506.517C128.25 507.881 129.017 509.67 129.426 511.886C129.847 514.102 129.784 516.818 129.239 520.034C128.739 522.955 127.977 525.557 126.955 527.841C125.943 530.125 124.699 532.057 123.222 533.636C121.756 535.216 120.102 536.42 118.261 537.25C116.42 538.068 114.438 538.477 112.312 538.477C109.983 538.477 107.983 538.028 106.312 537.131C104.642 536.233 103.369 535.011 102.494 533.466C101.631 531.909 101.239 530.148 101.318 528.182H108.443C108.466 529.489 108.858 530.477 109.619 531.148C110.381 531.818 111.42 532.153 112.739 532.153C115.057 532.153 117.017 531.142 118.619 529.119C120.222 527.097 121.33 524.324 121.943 520.801L121.67 521.193C120.977 522.216 120.136 523.08 119.148 523.784C118.17 524.489 117.102 525.028 115.943 525.403C114.784 525.767 113.58 525.949 112.33 525.949C110.216 525.949 108.409 525.443 106.909 524.432C105.409 523.42 104.324 522.04 103.653 520.29C102.983 518.54 102.835 516.551 103.21 514.324C103.608 512.04 104.483 510.017 105.835 508.256C107.188 506.483 108.898 505.097 110.966 504.097C113.034 503.097 115.33 502.602 117.852 502.614ZM117.597 508.409C116.415 508.409 115.295 508.699 114.239 509.278C113.193 509.847 112.313 510.625 111.597 511.614C110.892 512.591 110.449 513.693 110.267 514.92C110.108 515.989 110.193 516.955 110.523 517.818C110.852 518.682 111.386 519.364 112.125 519.864C112.875 520.352 113.795 520.597 114.886 520.597C115.784 520.597 116.642 520.426 117.46 520.085C118.29 519.744 119.04 519.278 119.71 518.688C120.392 518.085 120.955 517.392 121.398 516.608C121.852 515.812 122.148 514.977 122.284 514.102C122.455 513.034 122.369 512.074 122.028 511.222C121.699 510.358 121.153 509.676 120.392 509.176C119.631 508.665 118.699 508.409 117.597 508.409ZM144.903 538.767C141.972 538.767 139.568 538.051 137.693 536.619C135.818 535.176 134.54 533.097 133.858 530.381C133.188 527.665 133.17 524.398 133.807 520.58C134.455 516.773 135.562 513.528 137.131 510.847C138.71 508.165 140.665 506.125 142.994 504.727C145.335 503.318 147.966 502.614 150.886 502.614C153.795 502.614 156.188 503.318 158.062 504.727C159.938 506.136 161.222 508.176 161.915 510.847C162.619 513.517 162.653 516.761 162.017 520.58C161.381 524.409 160.273 527.682 158.693 530.398C157.114 533.102 155.153 535.176 152.812 536.619C150.472 538.051 147.835 538.767 144.903 538.767ZM145.926 532.648C147.938 532.648 149.699 531.642 151.21 529.631C152.722 527.619 153.813 524.602 154.483 520.58C154.926 517.943 155.023 515.744 154.773 513.983C154.534 512.21 153.994 510.881 153.153 509.994C152.313 509.108 151.227 508.665 149.898 508.665C147.909 508.665 146.148 509.665 144.614 511.665C143.091 513.653 142 516.625 141.341 520.58C140.898 523.261 140.801 525.5 141.051 527.295C141.301 529.08 141.847 530.42 142.688 531.318C143.528 532.205 144.608 532.648 145.926 532.648ZM177.013 519.608C175.479 519.608 174.075 519.233 172.803 518.483C171.53 517.722 170.518 516.71 169.768 515.449C169.018 514.176 168.643 512.767 168.643 511.222C168.643 509.687 169.018 508.29 169.768 507.028C170.518 505.756 171.53 504.744 172.803 503.994C174.075 503.233 175.479 502.852 177.013 502.852C178.558 502.852 179.962 503.233 181.223 503.994C182.496 504.744 183.507 505.756 184.257 507.028C185.007 508.29 185.382 509.687 185.382 511.222C185.382 512.767 185.007 514.176 184.257 515.449C183.507 516.71 182.496 517.722 181.223 518.483C179.962 519.233 178.558 519.608 177.013 519.608ZM177.013 514.767C177.672 514.767 178.268 514.608 178.803 514.29C179.337 513.972 179.757 513.545 180.064 513.011C180.382 512.477 180.541 511.881 180.541 511.222C180.541 510.574 180.382 509.983 180.064 509.449C179.757 508.915 179.337 508.489 178.803 508.17C178.268 507.852 177.672 507.693 177.013 507.693C176.365 507.693 175.774 507.852 175.24 508.17C174.706 508.489 174.28 508.915 173.962 509.449C173.643 509.983 173.484 510.574 173.484 511.222C173.484 511.881 173.643 512.477 173.962 513.011C174.28 513.545 174.706 513.972 175.24 514.29C175.774 514.608 176.365 514.767 177.013 514.767Z" fill="black"/>
<path d="M187.087 629C187.087 631.209 188.878 633 191.087 633C193.296 633 195.087 631.209 195.087 629H187.087ZM81.0873 629C81.0873 609.191 87.8523 594.743 97.6782 585.255C107.552 575.721 120.771 570.949 134.072 571C147.374 571.051 160.607 575.926 170.493 585.497C180.33 595.021 187.087 609.422 187.087 629H195.087C195.087 607.463 187.594 590.919 176.057 579.749C164.568 568.627 149.3 563.059 134.103 563C118.904 562.942 103.623 568.394 92.1213 579.5C80.5723 590.651 73.0873 607.257 73.0873 629H81.0873Z" fill="black"/>
<path d="M117.852 502.614C119.693 502.614 121.415 502.926 123.017 503.551C124.631 504.165 126 505.153 127.125 506.517C128.25 507.881 129.017 509.67 129.426 511.886C129.847 514.102 129.784 516.818 129.239 520.034C128.739 522.955 127.977 525.557 126.955 527.841C125.943 530.125 124.699 532.057 123.222 533.636C121.756 535.216 120.102 536.42 118.261 537.25C116.42 538.068 114.438 538.477 112.312 538.477C109.983 538.477 107.983 538.028 106.312 537.131C104.642 536.233 103.369 535.011 102.494 533.466C101.631 531.909 101.239 530.148 101.318 528.182H108.443C108.466 529.489 108.858 530.477 109.619 531.148C110.381 531.818 111.42 532.153 112.739 532.153C115.057 532.153 117.017 531.142 118.619 529.119C120.222 527.097 121.33 524.324 121.943 520.801L121.67 521.193C120.977 522.216 120.136 523.08 119.148 523.784C118.17 524.489 117.102 525.028 115.943 525.403C114.784 525.767 113.58 525.949 112.33 525.949C110.216 525.949 108.409 525.443 106.909 524.432C105.409 523.42 104.324 522.04 103.653 520.29C102.983 518.54 102.835 516.551 103.21 514.324C103.608 512.04 104.483 510.017 105.835 508.256C107.188 506.483 108.898 505.097 110.966 504.097C113.034 503.097 115.33 502.602 117.852 502.614ZM117.597 508.409C116.415 508.409 115.295 508.699 114.239 509.278C113.193 509.847 112.313 510.625 111.597 511.614C110.892 512.591 110.449 513.693 110.267 514.92C110.108 515.989 110.193 516.955 110.523 517.818C110.852 518.682 111.386 519.364 112.125 519.864C112.875 520.352 113.795 520.597 114.886 520.597C115.784 520.597 116.642 520.426 117.46 520.085C118.29 519.744 119.04 519.278 119.71 518.688C120.392 518.085 120.955 517.392 121.398 516.608C121.852 515.812 122.148 514.977 122.284 514.102C122.455 513.034 122.369 512.074 122.028 511.222C121.699 510.358 121.153 509.676 120.392 509.176C119.631 508.665 118.699 508.409 117.597 508.409ZM144.903 538.767C141.972 538.767 139.568 538.051 137.693 536.619C135.818 535.176 134.54 533.097 133.858 530.381C133.188 527.665 133.17 524.398 133.807 520.58C134.455 516.773 135.562 513.528 137.131 510.847C138.71 508.165 140.665 506.125 142.994 504.727C145.335 503.318 147.966 502.614 150.886 502.614C153.795 502.614 156.188 503.318 158.062 504.727C159.938 506.136 161.222 508.176 161.915 510.847C162.619 513.517 162.653 516.761 162.017 520.58C161.381 524.409 160.273 527.682 158.693 530.398C157.114 533.102 155.153 535.176 152.812 536.619C150.472 538.051 147.835 538.767 144.903 538.767ZM145.926 532.648C147.938 532.648 149.699 531.642 151.21 529.631C152.722 527.619 153.813 524.602 154.483 520.58C154.926 517.943 155.023 515.744 154.773 513.983C154.534 512.21 153.994 510.881 153.153 509.994C152.313 509.108 151.227 508.665 149.898 508.665C147.909 508.665 146.148 509.665 144.614 511.665C143.091 513.653 142 516.625 141.341 520.58C140.898 523.261 140.801 525.5 141.051 527.295C141.301 529.08 141.847 530.42 142.688 531.318C143.528 532.205 144.608 532.648 145.926 532.648ZM177.013 519.608C175.479 519.608 174.075 519.233 172.803 518.483C171.53 517.722 170.518 516.71 169.768 515.449C169.018 514.176 168.643 512.767 168.643 511.222C168.643 509.687 169.018 508.29 169.768 507.028C170.518 505.756 171.53 504.744 172.803 503.994C174.075 503.233 175.479 502.852 177.013 502.852C178.558 502.852 179.962 503.233 181.223 503.994C182.496 504.744 183.507 505.756 184.257 507.028C185.007 508.29 185.382 509.687 185.382 511.222C185.382 512.767 185.007 514.176 184.257 515.449C183.507 516.71 182.496 517.722 181.223 518.483C179.962 519.233 178.558 519.608 177.013 519.608ZM177.013 514.767C177.672 514.767 178.268 514.608 178.803 514.29C179.337 513.972 179.757 513.545 180.064 513.011C180.382 512.477 180.541 511.881 180.541 511.222C180.541 510.574 180.382 509.983 180.064 509.449C179.757 508.915 179.337 508.489 178.803 508.17C178.268 507.852 177.672 507.693 177.013 507.693C176.365 507.693 175.774 507.852 175.24 508.17C174.706 508.489 174.28 508.915 173.962 509.449C173.643 509.983 173.484 510.574 173.484 511.222C173.484 511.881 173.643 512.477 173.962 513.011C174.28 513.545 174.706 513.972 175.24 514.29C175.774 514.608 176.365 514.767 177.013 514.767Z" fill="black"/>
<path d="M187.087 629C187.087 631.209 188.878 633 191.087 633C193.296 633 195.087 631.209 195.087 629H187.087ZM81.0873 629C81.0873 609.191 87.8523 594.743 97.6782 585.255C107.552 575.721 120.771 570.949 134.072 571C147.374 571.051 160.607 575.926 170.493 585.497C180.33 595.021 187.087 609.422 187.087 629H195.087C195.087 607.463 187.594 590.919 176.057 579.749C164.568 568.627 149.3 563.059 134.103 563C118.904 562.942 103.623 568.394 92.1213 579.5C80.5723 590.651 73.0873 607.257 73.0873 629H81.0873Z" fill="black"/>
<path d="M117.852 502.614C119.693 502.614 121.415 502.926 123.017 503.551C124.631 504.165 126 505.153 127.125 506.517C128.25 507.881 129.017 509.67 129.426 511.886C129.847 514.102 129.784 516.818 129.239 520.034C128.739 522.955 127.977 525.557 126.955 527.841C125.943 530.125 124.699 532.057 123.222 533.636C121.756 535.216 120.102 536.42 118.261 537.25C116.42 538.068 114.438 538.477 112.312 538.477C109.983 538.477 107.983 538.028 106.312 537.131C104.642 536.233 103.369 535.011 102.494 533.466C101.631 531.909 101.239 530.148 101.318 528.182H108.443C108.466 529.489 108.858 530.477 109.619 531.148C110.381 531.818 111.42 532.153 112.739 532.153C115.057 532.153 117.017 531.142 118.619 529.119C120.222 527.097 121.33 524.324 121.943 520.801L121.67 521.193C120.977 522.216 120.136 523.08 119.148 523.784C118.17 524.489 117.102 525.028 115.943 525.403C114.784 525.767 113.58 525.949 112.33 525.949C110.216 525.949 108.409 525.443 106.909 524.432C105.409 523.42 104.324 522.04 103.653 520.29C102.983 518.54 102.835 516.551 103.21 514.324C103.608 512.04 104.483 510.017 105.835 508.256C107.188 506.483 108.898 505.097 110.966 504.097C113.034 503.097 115.33 502.602 117.852 502.614ZM117.597 508.409C116.415 508.409 115.295 508.699 114.239 509.278C113.193 509.847 112.313 510.625 111.597 511.614C110.892 512.591 110.449 513.693 110.267 514.92C110.108 515.989 110.193 516.955 110.523 517.818C110.852 518.682 111.386 519.364 112.125 519.864C112.875 520.352 113.795 520.597 114.886 520.597C115.784 520.597 116.642 520.426 117.46 520.085C118.29 519.744 119.04 519.278 119.71 518.688C120.392 518.085 120.955 517.392 121.398 516.608C121.852 515.812 122.148 514.977 122.284 514.102C122.455 513.034 122.369 512.074 122.028 511.222C121.699 510.358 121.153 509.676 120.392 509.176C119.631 508.665 118.699 508.409 117.597 508.409ZM144.903 538.767C141.972 538.767 139.568 538.051 137.693 536.619C135.818 535.176 134.54 533.097 133.858 530.381C133.188 527.665 133.17 524.398 133.807 520.58C134.455 516.773 135.562 513.528 137.131 510.847C138.71 508.165 140.665 506.125 142.994 504.727C145.335 503.318 147.966 502.614 150.886 502.614C153.795 502.614 156.188 503.318 158.062 504.727C159.938 506.136 161.222 508.176 161.915 510.847C162.619 513.517 162.653 516.761 162.017 520.58C161.381 524.409 160.273 527.682 158.693 530.398C157.114 533.102 155.153 535.176 152.812 536.619C150.472 538.051 147.835 538.767 144.903 538.767ZM145.926 532.648C147.938 532.648 149.699 531.642 151.21 529.631C152.722 527.619 153.813 524.602 154.483 520.58C154.926 517.943 155.023 515.744 154.773 513.983C154.534 512.21 153.994 510.881 153.153 509.994C152.313 509.108 151.227 508.665 149.898 508.665C147.909 508.665 146.148 509.665 144.614 511.665C143.091 513.653 142 516.625 141.341 520.58C140.898 523.261 140.801 525.5 141.051 527.295C141.301 529.08 141.847 530.42 142.688 531.318C143.528 532.205 144.608 532.648 145.926 532.648ZM177.013 519.608C175.479 519.608 174.075 519.233 172.803 518.483C171.53 517.722 170.518 516.71 169.768 515.449C169.018 514.176 168.643 512.767 168.643 511.222C168.643 509.687 169.018 508.29 169.768 507.028C170.518 505.756 171.53 504.744 172.803 503.994C174.075 503.233 175.479 502.852 177.013 502.852C178.558 502.852 179.962 503.233 181.223 503.994C182.496 504.744 183.507 505.756 184.257 507.028C185.007 508.29 185.382 509.687 185.382 511.222C185.382 512.767 185.007 514.176 184.257 515.449C183.507 516.71 182.496 517.722 181.223 518.483C179.962 519.233 178.558 519.608 177.013 519.608ZM177.013 514.767C177.672 514.767 178.268 514.608 178.803 514.29C179.337 513.972 179.757 513.545 180.064 513.011C180.382 512.477 180.541 511.881 180.541 511.222C180.541 510.574 180.382 509.983 180.064 509.449C179.757 508.915 179.337 508.489 178.803 508.17C178.268 507.852 177.672 507.693 177.013 507.693C176.365 507.693 175.774 507.852 175.24 508.17C174.706 508.489 174.28 508.915 173.962 509.449C173.643 509.983 173.484 510.574 173.484 511.222C173.484 511.881 173.643 512.477 173.962 513.011C174.28 513.545 174.706 513.972 175.24 514.29C175.774 514.608 176.365 514.767 177.013 514.767Z" fill="black"/>
<path d="M187.087 629C187.087 631.209 188.878 633 191.087 633C193.296 633 195.087 631.209 195.087 629H187.087ZM81.0873 629C81.0873 609.191 87.8523 594.743 97.6782 585.255C107.552 575.721 120.771 570.949 134.072 571C147.374 571.051 160.607 575.926 170.493 585.497C180.33 595.021 187.087 609.422 187.087 629H195.087C195.087 607.463 187.594 590.919 176.057 579.749C164.568 568.627 149.3 563.059 134.103 563C118.904 562.942 103.623 568.394 92.1213 579.5C80.5723 590.651 73.0873 607.257 73.0873 629H81.0873Z" fill="black"/>
<path d="M596 479C596 481.209 597.791 483 600 483C602.209 483 604 481.209 604 479H596ZM602.828 256.172C601.266 254.609 598.734 254.609 597.172 256.172L571.716 281.627C570.154 283.19 570.154 285.722 571.716 287.284C573.278 288.846 575.81 288.846 577.373 287.284L600 264.657L622.627 287.284C624.19 288.846 626.722 288.846 628.284 287.284C629.846 285.722 629.846 283.19 628.284 281.627L602.828 256.172ZM604 479V259H596V479H604Z" fill="black"/>
<path d="M636.33 398.426C634.33 398.426 632.608 397.915 631.165 396.892C629.733 395.858 628.71 394.341 628.097 392.341C627.494 390.33 627.438 387.864 627.926 384.943C628.426 381.943 629.324 379.449 630.619 377.46C631.915 375.46 633.449 373.966 635.222 372.977C636.994 371.977 638.841 371.477 640.761 371.477C642.216 371.477 643.392 371.727 644.29 372.227C645.199 372.716 645.898 373.33 646.386 374.068C646.875 374.795 647.216 375.511 647.409 376.216H647.631L649.83 363.091H657.074L651.278 398H644.119L644.818 393.807H644.511C644.057 394.534 643.455 395.256 642.705 395.972C641.966 396.676 641.068 397.261 640.011 397.727C638.966 398.193 637.739 398.426 636.33 398.426ZM639.534 392.648C640.693 392.648 641.739 392.33 642.67 391.693C643.602 391.045 644.386 390.142 645.023 388.983C645.659 387.824 646.102 386.466 646.352 384.909C646.614 383.352 646.619 382 646.369 380.852C646.119 379.705 645.631 378.818 644.903 378.193C644.188 377.568 643.239 377.256 642.057 377.256C640.864 377.256 639.807 377.58 638.886 378.227C637.977 378.875 637.222 379.773 636.619 380.92C636.028 382.068 635.608 383.398 635.358 384.909C635.108 386.432 635.091 387.778 635.307 388.949C635.523 390.108 635.983 391.017 636.688 391.676C637.392 392.324 638.341 392.648 639.534 392.648Z" fill="black"/>
<path d="M170.33 357.426C168.33 357.426 166.608 356.915 165.165 355.892C163.733 354.858 162.71 353.341 162.097 351.341C161.494 349.33 161.438 346.864 161.926 343.943C162.426 340.943 163.324 338.449 164.619 336.46C165.915 334.46 167.449 332.966 169.222 331.977C170.994 330.977 172.841 330.477 174.761 330.477C176.216 330.477 177.392 330.727 178.29 331.227C179.199 331.716 179.898 332.33 180.386 333.068C180.875 333.795 181.216 334.511 181.409 335.216H181.631L183.83 322.091H191.074L185.278 357H178.119L178.818 352.807H178.511C178.057 353.534 177.455 354.256 176.705 354.972C175.966 355.676 175.068 356.261 174.011 356.727C172.966 357.193 171.739 357.426 170.33 357.426ZM173.534 351.648C174.693 351.648 175.739 351.33 176.67 350.693C177.602 350.045 178.386 349.142 179.023 347.983C179.659 346.824 180.102 345.466 180.352 343.909C180.614 342.352 180.619 341 180.369 339.852C180.119 338.705 179.631 337.818 178.903 337.193C178.188 336.568 177.239 336.256 176.057 336.256C174.864 336.256 173.807 336.58 172.886 337.227C171.977 337.875 171.222 338.773 170.619 339.92C170.028 341.068 169.608 342.398 169.358 343.909C169.108 345.432 169.091 346.778 169.307 347.949C169.523 349.108 169.983 350.017 170.688 350.676C171.392 351.324 172.341 351.648 173.534 351.648Z" fill="black"/>
<path d="M138 259C138 256.791 136.209 255 134 255C131.791 255 130 256.791 130 259H138ZM131.172 481.828C132.734 483.391 135.266 483.391 136.828 481.828L162.284 456.373C163.846 454.81 163.846 452.278 162.284 450.716C160.722 449.154 158.19 449.154 156.627 450.716L134 473.343L111.373 450.716C109.81 449.154 107.278 449.154 105.716 450.716C104.154 452.278 104.154 454.81 105.716 456.373L131.172 481.828ZM130 259V479H138V259H130Z" fill="black"/>
<path d="M361.33 150.426C359.33 150.426 357.608 149.915 356.165 148.892C354.733 147.858 353.71 146.341 353.097 144.341C352.494 142.33 352.438 139.864 352.926 136.943C353.426 133.943 354.324 131.449 355.619 129.46C356.915 127.46 358.449 125.966 360.222 124.977C361.994 123.977 363.841 123.477 365.761 123.477C367.216 123.477 368.392 123.727 369.29 124.227C370.199 124.716 370.898 125.33 371.386 126.068C371.875 126.795 372.216 127.511 372.409 128.216H372.631L374.83 115.091H382.074L376.278 150H369.119L369.818 145.807H369.511C369.057 146.534 368.455 147.256 367.705 147.972C366.966 148.676 366.068 149.261 365.011 149.727C363.966 150.193 362.739 150.426 361.33 150.426ZM364.534 144.648C365.693 144.648 366.739 144.33 367.67 143.693C368.602 143.045 369.386 142.142 370.023 140.983C370.659 139.824 371.102 138.466 371.352 136.909C371.614 135.352 371.619 134 371.369 132.852C371.119 131.705 370.631 130.818 369.903 130.193C369.188 129.568 368.239 129.256 367.057 129.256C365.864 129.256 364.807 129.58 363.886 130.227C362.977 130.875 362.222 131.773 361.619 132.92C361.028 134.068 360.608 135.398 360.358 136.909C360.108 138.432 360.091 139.778 360.307 140.949C360.523 142.108 360.983 143.017 361.688 143.676C362.392 144.324 363.341 144.648 364.534 144.648Z" fill="black"/>
<path d="M361.33 150.426C359.33 150.426 357.608 149.915 356.165 148.892C354.733 147.858 353.71 146.341 353.097 144.341C352.494 142.33 352.438 139.864 352.926 136.943C353.426 133.943 354.324 131.449 355.619 129.46C356.915 127.46 358.449 125.966 360.222 124.977C361.994 123.977 363.841 123.477 365.761 123.477C367.216 123.477 368.392 123.727 369.29 124.227C370.199 124.716 370.898 125.33 371.386 126.068C371.875 126.795 372.216 127.511 372.409 128.216H372.631L374.83 115.091H382.074L376.278 150H369.119L369.818 145.807H369.511C369.057 146.534 368.455 147.256 367.705 147.972C366.966 148.676 366.068 149.261 365.011 149.727C363.966 150.193 362.739 150.426 361.33 150.426ZM364.534 144.648C365.693 144.648 366.739 144.33 367.67 143.693C368.602 143.045 369.386 142.142 370.023 140.983C370.659 139.824 371.102 138.466 371.352 136.909C371.614 135.352 371.619 134 371.369 132.852C371.119 131.705 370.631 130.818 369.903 130.193C369.188 129.568 368.239 129.256 367.057 129.256C365.864 129.256 364.807 129.58 363.886 130.227C362.977 130.875 362.222 131.773 361.619 132.92C361.028 134.068 360.608 135.398 360.358 136.909C360.108 138.432 360.091 139.778 360.307 140.949C360.523 142.108 360.983 143.017 361.688 143.676C362.392 144.324 363.341 144.648 364.534 144.648Z" fill="black"/>
<path d="M469 191C471.209 191 473 189.209 473 187C473 184.791 471.209 183 469 183V191ZM246.172 184.172C244.609 185.734 244.609 188.266 246.172 189.828L271.627 215.284C273.19 216.846 275.722 216.846 277.284 215.284C278.846 213.722 278.846 211.19 277.284 209.627L254.657 187L277.284 164.373C278.846 162.81 278.846 160.278 277.284 158.716C275.722 157.154 273.19 157.154 271.627 158.716L246.172 184.172ZM469 183L249 183V191L469 191V183Z" fill="black"/>
<path d="M361.33 564.426C359.33 564.426 357.608 563.915 356.165 562.892C354.733 561.858 353.71 560.341 353.097 558.341C352.494 556.33 352.438 553.864 352.926 550.943C353.426 547.943 354.324 545.449 355.619 543.46C356.915 541.46 358.449 539.966 360.222 538.977C361.994 537.977 363.841 537.477 365.761 537.477C367.216 537.477 368.392 537.727 369.29 538.227C370.199 538.716 370.898 539.33 371.386 540.068C371.875 540.795 372.216 541.511 372.409 542.216H372.631L374.83 529.091H382.074L376.278 564H369.119L369.818 559.807H369.511C369.057 560.534 368.455 561.256 367.705 561.972C366.966 562.676 366.068 563.261 365.011 563.727C363.966 564.193 362.739 564.426 361.33 564.426ZM364.534 558.648C365.693 558.648 366.739 558.33 367.67 557.693C368.602 557.045 369.386 556.142 370.023 554.983C370.659 553.824 371.102 552.466 371.352 550.909C371.614 549.352 371.619 548 371.369 546.852C371.119 545.705 370.631 544.818 369.903 544.193C369.188 543.568 368.239 543.256 367.057 543.256C365.864 543.256 364.807 543.58 363.886 544.227C362.977 544.875 362.222 545.773 361.619 546.92C361.028 548.068 360.608 549.398 360.358 550.909C360.108 552.432 360.091 553.778 360.307 554.949C360.523 556.108 360.983 557.017 361.688 557.676C362.392 558.324 363.341 558.648 364.534 558.648Z" fill="black"/>
<path d="M361.33 564.426C359.33 564.426 357.608 563.915 356.165 562.892C354.733 561.858 353.71 560.341 353.097 558.341C352.494 556.33 352.438 553.864 352.926 550.943C353.426 547.943 354.324 545.449 355.619 543.46C356.915 541.46 358.449 539.966 360.222 538.977C361.994 537.977 363.841 537.477 365.761 537.477C367.216 537.477 368.392 537.727 369.29 538.227C370.199 538.716 370.898 539.33 371.386 540.068C371.875 540.795 372.216 541.511 372.409 542.216H372.631L374.83 529.091H382.074L376.278 564H369.119L369.818 559.807H369.511C369.057 560.534 368.455 561.256 367.705 561.972C366.966 562.676 366.068 563.261 365.011 563.727C363.966 564.193 362.739 564.426 361.33 564.426ZM364.534 558.648C365.693 558.648 366.739 558.33 367.67 557.693C368.602 557.045 369.386 556.142 370.023 554.983C370.659 553.824 371.102 552.466 371.352 550.909C371.614 549.352 371.619 548 371.369 546.852C371.119 545.705 370.631 544.818 369.903 544.193C369.188 543.568 368.239 543.256 367.057 543.256C365.864 543.256 364.807 543.58 363.886 544.227C362.977 544.875 362.222 545.773 361.619 546.92C361.028 548.068 360.608 549.398 360.358 550.909C360.108 552.432 360.091 553.778 360.307 554.949C360.523 556.108 360.983 557.017 361.688 557.676C362.392 558.324 363.341 558.648 364.534 558.648Z" fill="black"/>
<path d="M249 597C246.791 597 245 598.791 245 601C245 603.209 246.791 605 249 605V597ZM471.828 603.828C473.391 602.266 473.391 599.734 471.828 598.172L446.373 572.716C444.81 571.154 442.278 571.154 440.716 572.716C439.154 574.278 439.154 576.81 440.716 578.373L463.343 601L440.716 623.627C439.154 625.19 439.154 627.722 440.716 629.284C442.278 630.846 444.81 630.846 446.373 629.284L471.828 603.828ZM249 605H469V597H249V605Z" fill="black"/>
</svg>
