<svg width="1365" height="730" viewBox="0 0 1365 730" fill="none" xmlns="http://www.w3.org/2000/svg">
<rect width="1365" height="730" fill="white"/>
<path d="M1130.93 557.727C1129.42 559.342 1126.89 559.431 1125.27 557.924L1098.94 533.374C1097.33 531.867 1097.24 529.336 1098.75 527.72C1100.25 526.105 1102.79 526.016 1104.4 527.523L1127.8 549.345L1149.63 525.941C1151.13 524.325 1153.67 524.237 1155.28 525.743C1156.9 527.25 1156.99 529.781 1155.48 531.397L1130.93 557.727ZM1131.82 549.862L1132 554.859L1124 555.139L1123.83 550.141L1131.82 549.862Z" fill="black"/>
<path d="M1018 550C1018 552.209 1016.21 554 1014 554C1011.79 554 1010 552.209 1010 550H1018ZM1124 550C1124 530.191 1117.24 515.743 1107.41 506.255C1097.54 496.721 1084.32 491.949 1071.02 492C1057.71 492.051 1044.48 496.926 1034.59 506.497C1024.76 516.021 1018 530.422 1018 550H1010C1010 528.463 1017.49 511.919 1029.03 500.749C1040.52 489.627 1055.79 484.059 1070.98 484C1086.18 483.942 1101.46 489.394 1112.97 500.5C1124.51 511.651 1132 528.257 1132 550H1124Z" fill="black"/>
<path d="M817.852 375.614C819.693 375.614 821.415 375.926 823.017 376.551C824.631 377.165 826 378.153 827.125 379.517C828.25 380.881 829.017 382.67 829.426 384.886C829.847 387.102 829.784 389.818 829.239 393.034C828.739 395.955 827.977 398.557 826.955 400.841C825.943 403.125 824.699 405.057 823.222 406.636C821.756 408.216 820.102 409.42 818.261 410.25C816.42 411.068 814.438 411.477 812.312 411.477C809.983 411.477 807.983 411.028 806.312 410.131C804.642 409.233 803.369 408.011 802.494 406.466C801.631 404.909 801.239 403.148 801.318 401.182H808.443C808.466 402.489 808.858 403.477 809.619 404.148C810.381 404.818 811.42 405.153 812.739 405.153C815.057 405.153 817.017 404.142 818.619 402.119C820.222 400.097 821.33 397.324 821.943 393.801L821.67 394.193C820.977 395.216 820.136 396.08 819.148 396.784C818.17 397.489 817.102 398.028 815.943 398.403C814.784 398.767 813.58 398.949 812.33 398.949C810.216 398.949 808.409 398.443 806.909 397.432C805.409 396.42 804.324 395.04 803.653 393.29C802.983 391.54 802.835 389.551 803.21 387.324C803.608 385.04 804.483 383.017 805.835 381.256C807.188 379.483 808.898 378.097 810.966 377.097C813.034 376.097 815.33 375.602 817.852 375.614ZM817.597 381.409C816.415 381.409 815.295 381.699 814.239 382.278C813.193 382.847 812.313 383.625 811.597 384.614C810.892 385.591 810.449 386.693 810.267 387.92C810.108 388.989 810.193 389.955 810.523 390.818C810.852 391.682 811.386 392.364 812.125 392.864C812.875 393.352 813.795 393.597 814.886 393.597C815.784 393.597 816.642 393.426 817.46 393.085C818.29 392.744 819.04 392.278 819.71 391.688C820.392 391.085 820.955 390.392 821.398 389.608C821.852 388.812 822.148 387.977 822.284 387.102C822.455 386.034 822.369 385.074 822.028 384.222C821.699 383.358 821.153 382.676 820.392 382.176C819.631 381.665 818.699 381.409 817.597 381.409ZM844.903 411.767C841.972 411.767 839.568 411.051 837.693 409.619C835.818 408.176 834.54 406.097 833.858 403.381C833.188 400.665 833.17 397.398 833.807 393.58C834.455 389.773 835.562 386.528 837.131 383.847C838.71 381.165 840.665 379.125 842.994 377.727C845.335 376.318 847.966 375.614 850.886 375.614C853.795 375.614 856.188 376.318 858.062 377.727C859.938 379.136 861.222 381.176 861.915 383.847C862.619 386.517 862.653 389.761 862.017 393.58C861.381 397.409 860.273 400.682 858.693 403.398C857.114 406.102 855.153 408.176 852.812 409.619C850.472 411.051 847.835 411.767 844.903 411.767ZM845.926 405.648C847.938 405.648 849.699 404.642 851.21 402.631C852.722 400.619 853.813 397.602 854.483 393.58C854.926 390.943 855.023 388.744 854.773 386.983C854.534 385.21 853.994 383.881 853.153 382.994C852.313 382.108 851.227 381.665 849.898 381.665C847.909 381.665 846.148 382.665 844.614 384.665C843.091 386.653 842 389.625 841.341 393.58C840.898 396.261 840.801 398.5 841.051 400.295C841.301 402.08 841.847 403.42 842.688 404.318C843.528 405.205 844.608 405.648 845.926 405.648ZM877.013 392.608C875.479 392.608 874.075 392.233 872.803 391.483C871.53 390.722 870.518 389.71 869.768 388.449C869.018 387.176 868.643 385.767 868.643 384.222C868.643 382.687 869.018 381.29 869.768 380.028C870.518 378.756 871.53 377.744 872.803 376.994C874.075 376.233 875.479 375.852 877.013 375.852C878.558 375.852 879.962 376.233 881.223 376.994C882.496 377.744 883.507 378.756 884.257 380.028C885.007 381.29 885.382 382.687 885.382 384.222C885.382 385.767 885.007 387.176 884.257 388.449C883.507 389.71 882.496 390.722 881.223 391.483C879.962 392.233 878.558 392.608 877.013 392.608ZM877.013 387.767C877.672 387.767 878.268 387.608 878.803 387.29C879.337 386.972 879.757 386.545 880.064 386.011C880.382 385.477 880.541 384.881 880.541 384.222C880.541 383.574 880.382 382.983 880.064 382.449C879.757 381.915 879.337 381.489 878.803 381.17C878.268 380.852 877.672 380.693 877.013 380.693C876.365 380.693 875.774 380.852 875.24 381.17C874.706 381.489 874.28 381.915 873.962 382.449C873.643 382.983 873.484 383.574 873.484 384.222C873.484 384.881 873.643 385.477 873.962 386.011C874.28 386.545 874.706 386.972 875.24 387.29C875.774 387.608 876.365 387.767 877.013 387.767Z" fill="black"/>
<path d="M1080.81 436.852L1079.92 442.307H1062.53L1063.44 436.852H1080.81ZM1083.91 436.597L1082.9 442.597C1082.34 445.994 1081.37 448.79 1080.01 450.983C1078.64 453.176 1076.98 454.807 1075.01 455.875C1073.06 456.943 1070.9 457.477 1068.55 457.477C1066.18 457.477 1064.17 456.943 1062.53 455.875C1060.91 454.807 1059.77 453.176 1059.12 450.983C1058.48 448.79 1058.44 445.994 1059.01 442.597L1060.01 436.597C1060.56 433.244 1061.51 430.472 1062.88 428.278C1064.25 426.074 1065.92 424.437 1067.89 423.369C1069.86 422.29 1072.03 421.75 1074.4 421.75C1076.75 421.75 1078.73 422.29 1080.35 423.369C1081.96 424.437 1083.09 426.068 1083.74 428.261C1084.4 430.455 1084.45 433.233 1083.91 436.597ZM1075.73 443.517L1077.06 435.557C1077.35 433.648 1077.39 432.108 1077.18 430.938C1076.97 429.756 1076.55 428.903 1075.9 428.381C1075.26 427.847 1074.44 427.58 1073.44 427.58C1071.85 427.58 1070.53 428.227 1069.47 429.523C1068.41 430.818 1067.67 432.83 1067.24 435.557L1065.93 443.517C1065.44 446.335 1065.51 448.392 1066.15 449.688C1066.8 450.972 1067.93 451.614 1069.54 451.614C1070.52 451.614 1071.41 451.352 1072.22 450.83C1073.03 450.307 1073.74 449.455 1074.33 448.273C1074.92 447.091 1075.39 445.506 1075.73 443.517Z" fill="black"/>
<path d="M940.034 422.803L1128 89" stroke="black" stroke-width="8" stroke-dasharray="16 16"/>
<path d="M42 62C39.7909 62 38 63.7909 38 66C38 68.2091 39.7909 70 42 70V62ZM42 70H1242V62H42V70Z" fill="black"/>
<path d="M135 117L733.803 477.507" stroke="black" stroke-width="8" stroke-dasharray="16 16"/>
<path d="M831.43 471.57L871.097 640.989L955.806 621.156C963.872 619.267 968.88 611.197 966.991 603.131L934.164 462.923C932.275 454.857 924.205 449.849 916.139 451.737L831.43 471.57Z" fill="#747474"/>
<circle cx="87" cy="87" r="87" transform="matrix(0.227968 0.973669 0.973669 -0.227968 751.589 490.264)" fill="#747474"/>
<rect width="124" height="77" rx="15" transform="matrix(0.227968 0.973669 0.973669 -0.227968 837.129 495.912)" fill="#585858"/>
</svg>
