<svg width="1075" height="678" viewBox="0 0 1075 678" fill="none" xmlns="http://www.w3.org/2000/svg">
<rect width="1075" height="678" fill="white"/>
<path d="M522.852 375.614C524.693 375.614 526.415 375.926 528.017 376.551C529.631 377.165 531 378.153 532.125 379.517C533.25 380.881 534.017 382.67 534.426 384.886C534.847 387.102 534.784 389.818 534.239 393.034C533.739 395.955 532.977 398.557 531.955 400.841C530.943 403.125 529.699 405.057 528.222 406.636C526.756 408.216 525.102 409.42 523.261 410.25C521.42 411.068 519.438 411.477 517.312 411.477C514.983 411.477 512.983 411.028 511.312 410.131C509.642 409.233 508.369 408.011 507.494 406.466C506.631 404.909 506.239 403.148 506.318 401.182H513.443C513.466 402.489 513.858 403.477 514.619 404.148C515.381 404.818 516.42 405.153 517.739 405.153C520.057 405.153 522.017 404.142 523.619 402.119C525.222 400.097 526.33 397.324 526.943 393.801L526.67 394.193C525.977 395.216 525.136 396.08 524.148 396.784C523.17 397.489 522.102 398.028 520.943 398.403C519.784 398.767 518.58 398.949 517.33 398.949C515.216 398.949 513.409 398.443 511.909 397.432C510.409 396.42 509.324 395.04 508.653 393.29C507.983 391.54 507.835 389.551 508.21 387.324C508.608 385.04 509.483 383.017 510.835 381.256C512.188 379.483 513.898 378.097 515.966 377.097C518.034 376.097 520.33 375.602 522.852 375.614ZM522.597 381.409C521.415 381.409 520.295 381.699 519.239 382.278C518.193 382.847 517.313 383.625 516.597 384.614C515.892 385.591 515.449 386.693 515.267 387.92C515.108 388.989 515.193 389.955 515.523 390.818C515.852 391.682 516.386 392.364 517.125 392.864C517.875 393.352 518.795 393.597 519.886 393.597C520.784 393.597 521.642 393.426 522.46 393.085C523.29 392.744 524.04 392.278 524.71 391.688C525.392 391.085 525.955 390.392 526.398 389.608C526.852 388.812 527.148 387.977 527.284 387.102C527.455 386.034 527.369 385.074 527.028 384.222C526.699 383.358 526.153 382.676 525.392 382.176C524.631 381.665 523.699 381.409 522.597 381.409ZM549.903 411.767C546.972 411.767 544.568 411.051 542.693 409.619C540.818 408.176 539.54 406.097 538.858 403.381C538.188 400.665 538.17 397.398 538.807 393.58C539.455 389.773 540.562 386.528 542.131 383.847C543.71 381.165 545.665 379.125 547.994 377.727C550.335 376.318 552.966 375.614 555.886 375.614C558.795 375.614 561.188 376.318 563.062 377.727C564.938 379.136 566.222 381.176 566.915 383.847C567.619 386.517 567.653 389.761 567.017 393.58C566.381 397.409 565.273 400.682 563.693 403.398C562.114 406.102 560.153 408.176 557.812 409.619C555.472 411.051 552.835 411.767 549.903 411.767ZM550.926 405.648C552.938 405.648 554.699 404.642 556.21 402.631C557.722 400.619 558.813 397.602 559.483 393.58C559.926 390.943 560.023 388.744 559.773 386.983C559.534 385.21 558.994 383.881 558.153 382.994C557.313 382.108 556.227 381.665 554.898 381.665C552.909 381.665 551.148 382.665 549.614 384.665C548.091 386.653 547 389.625 546.341 393.58C545.898 396.261 545.801 398.5 546.051 400.295C546.301 402.08 546.847 403.42 547.688 404.318C548.528 405.205 549.608 405.648 550.926 405.648ZM582.013 392.608C580.479 392.608 579.075 392.233 577.803 391.483C576.53 390.722 575.518 389.71 574.768 388.449C574.018 387.176 573.643 385.767 573.643 384.222C573.643 382.687 574.018 381.29 574.768 380.028C575.518 378.756 576.53 377.744 577.803 376.994C579.075 376.233 580.479 375.852 582.013 375.852C583.558 375.852 584.962 376.233 586.223 376.994C587.496 377.744 588.507 378.756 589.257 380.028C590.007 381.29 590.382 382.687 590.382 384.222C590.382 385.767 590.007 387.176 589.257 388.449C588.507 389.71 587.496 390.722 586.223 391.483C584.962 392.233 583.558 392.608 582.013 392.608ZM582.013 387.767C582.672 387.767 583.268 387.608 583.803 387.29C584.337 386.972 584.757 386.545 585.064 386.011C585.382 385.477 585.541 384.881 585.541 384.222C585.541 383.574 585.382 382.983 585.064 382.449C584.757 381.915 584.337 381.489 583.803 381.17C583.268 380.852 582.672 380.693 582.013 380.693C581.365 380.693 580.774 380.852 580.24 381.17C579.706 381.489 579.28 381.915 578.962 382.449C578.643 382.983 578.484 383.574 578.484 384.222C578.484 384.881 578.643 385.477 578.962 386.011C579.28 386.545 579.706 386.972 580.24 387.29C580.774 387.608 581.365 387.767 582.013 387.767Z" fill="black"/>
<path d="M620 432.883L938.198 114.685" stroke="black" stroke-width="8" stroke-dasharray="16 16"/>
<path d="M93 80C90.7909 80 89 81.7909 89 84C89 86.2091 90.7909 88 93 88V80ZM93 88H998.027V80H93V88Z" fill="black"/>
<path d="M150 132L468.198 450.198" stroke="black" stroke-width="8" stroke-dasharray="16 16"/>
<path d="M509.998 450.387V624.387H596.998C605.283 624.387 611.998 617.671 611.998 609.387V465.387C611.998 457.102 605.283 450.387 596.998 450.387H509.998Z" fill="#747474"/>
<circle cx="87" cy="87" r="87" transform="matrix(0 1 1 0 428 449.953)" fill="#747474"/>
<rect width="124" height="77" rx="15" transform="matrix(0 1 1 0 509.999 475.269)" fill="#585858"/>
</svg>
