<svg width="700" height="700" viewBox="0 0 700 700" fill="none" xmlns="http://www.w3.org/2000/svg">
<rect width="700" height="700" fill="white"/>
<path d="M379.33 359.426C377.33 359.426 375.608 358.915 374.165 357.892C372.733 356.858 371.71 355.341 371.097 353.341C370.494 351.33 370.438 348.864 370.926 345.943C371.426 342.943 372.324 340.449 373.619 338.46C374.915 336.46 376.449 334.966 378.222 333.977C379.994 332.977 381.841 332.477 383.761 332.477C385.216 332.477 386.392 332.727 387.29 333.227C388.199 333.716 388.898 334.33 389.386 335.068C389.875 335.795 390.216 336.511 390.409 337.216H390.631L392.83 324.091H400.074L394.278 359H387.119L387.818 354.807H387.511C387.057 355.534 386.455 356.256 385.705 356.972C384.966 357.676 384.068 358.261 383.011 358.727C381.966 359.193 380.739 359.426 379.33 359.426ZM382.534 353.648C383.693 353.648 384.739 353.33 385.67 352.693C386.602 352.045 387.386 351.142 388.023 349.983C388.659 348.824 389.102 347.466 389.352 345.909C389.614 344.352 389.619 343 389.369 341.852C389.119 340.705 388.631 339.818 387.903 339.193C387.188 338.568 386.239 338.256 385.057 338.256C383.864 338.256 382.807 338.58 381.886 339.227C380.977 339.875 380.222 340.773 379.619 341.92C379.028 343.068 378.608 344.398 378.358 345.909C378.108 347.432 378.091 348.778 378.307 349.949C378.523 351.108 378.983 352.017 379.688 352.676C380.392 353.324 381.341 353.648 382.534 353.648Z" fill="black"/>
<path d="M381.151 419.088C381.752 421.214 383.962 422.45 386.088 421.849L420.731 412.059C422.857 411.458 424.093 409.248 423.492 407.122C422.892 404.996 420.681 403.76 418.555 404.36L387.761 413.063L379.059 382.269C378.458 380.143 376.248 378.907 374.122 379.508C371.996 380.108 370.76 382.319 371.36 384.445L381.151 419.088ZM454.849 298.912C454.248 296.786 452.038 295.55 449.912 296.151L415.269 305.941C413.143 306.542 411.907 308.752 412.508 310.878C413.108 313.004 415.319 314.24 417.445 313.64L448.239 304.937L456.941 335.731C457.542 337.857 459.752 339.093 461.878 338.492C464.004 337.892 465.24 335.681 464.64 333.555L454.849 298.912ZM388.491 419.953L454.491 301.953L447.509 298.047L381.509 416.047L388.491 419.953Z" fill="black"/>
<path d="M249.542 472.661L400.788 558.688L443.801 483.065C447.897 475.864 445.38 466.707 438.179 462.611L313.01 391.416C305.809 387.32 296.651 389.837 292.555 397.038L249.542 472.661Z" fill="#747474"/>
<circle cx="87" cy="87" r="87" transform="matrix(0.86923 0.494408 0.494408 -0.86923 209 543.938)" fill="#747474"/>
<rect width="124" height="77" rx="15" transform="matrix(0.86923 0.494408 0.494408 -0.86923 271.272 485.022)" fill="#585858"/>
<circle cx="114" cy="144" r="31" stroke="black" stroke-width="8"/>
<circle cx="405" cy="135" r="31" stroke="black" stroke-width="8"/>
<circle cx="475" cy="252" r="31" stroke="#A6E475" stroke-width="8"/>
<path d="M562.925 554.726C561.418 556.342 558.887 556.431 557.272 554.924L530.944 530.373C529.329 528.867 529.241 526.336 530.747 524.72C532.254 523.104 534.785 523.016 536.401 524.522L559.803 546.345L581.628 522.94C583.135 521.325 585.666 521.236 587.281 522.743C588.897 524.249 588.985 526.78 587.478 528.396L562.925 554.726ZM563.823 546.862L563.997 551.859L556.002 552.138L555.828 547.141L563.823 546.862Z" fill="black"/>
<path d="M450 547C450 549.209 448.209 551 446 551C443.791 551 442 549.209 442 547H450ZM556 547C556 527.191 549.235 512.743 539.409 503.255C529.536 493.721 516.317 488.949 503.015 489C489.713 489.051 476.481 493.926 466.595 503.497C456.757 513.021 450 527.422 450 547H442C442 525.463 449.493 508.919 461.03 497.749C472.519 486.627 487.787 481.059 502.985 481C518.183 480.942 533.464 486.394 544.966 497.5C556.515 508.651 564 525.257 564 547H556Z" fill="black"/>
<path d="M498.807 437.852L497.92 443.307H480.534L481.438 437.852H498.807ZM501.909 437.597L500.903 443.597C500.335 446.994 499.369 449.79 498.006 451.983C496.642 454.176 494.977 455.807 493.011 456.875C491.057 457.943 488.903 458.477 486.551 458.477C484.176 458.477 482.17 457.943 480.534 456.875C478.909 455.807 477.773 454.176 477.125 451.983C476.477 449.79 476.438 446.994 477.006 443.597L478.011 437.597C478.557 434.244 479.511 431.472 480.875 429.278C482.25 427.074 483.92 425.437 485.886 424.369C487.864 423.29 490.034 422.75 492.398 422.75C494.75 422.75 496.733 423.29 498.347 424.369C499.96 425.437 501.091 427.068 501.739 429.261C502.398 431.455 502.455 434.233 501.909 437.597ZM493.727 444.517L495.057 436.557C495.352 434.648 495.392 433.108 495.176 431.938C494.972 430.756 494.545 429.903 493.898 429.381C493.261 428.847 492.443 428.58 491.443 428.58C489.852 428.58 488.528 429.227 487.472 430.523C486.415 431.818 485.67 433.83 485.239 436.557L483.926 444.517C483.438 447.335 483.511 449.392 484.148 450.688C484.795 451.972 485.926 452.614 487.54 452.614C488.517 452.614 489.409 452.352 490.216 451.83C491.034 451.307 491.739 450.455 492.33 449.273C492.92 448.091 493.386 446.506 493.727 444.517ZM517.732 439.608C516.197 439.608 514.794 439.233 513.521 438.483C512.249 437.722 511.237 436.71 510.487 435.449C509.737 434.176 509.362 432.767 509.362 431.222C509.362 429.687 509.737 428.29 510.487 427.028C511.237 425.756 512.249 424.744 513.521 423.994C514.794 423.233 516.197 422.852 517.732 422.852C519.277 422.852 520.68 423.233 521.942 423.994C523.214 424.744 524.226 425.756 524.976 427.028C525.726 428.29 526.101 429.687 526.101 431.222C526.101 432.767 525.726 434.176 524.976 435.449C524.226 436.71 523.214 437.722 521.942 438.483C520.68 439.233 519.277 439.608 517.732 439.608ZM517.732 434.767C518.391 434.767 518.987 434.608 519.521 434.29C520.055 433.972 520.476 433.545 520.783 433.011C521.101 432.477 521.26 431.881 521.26 431.222C521.26 430.574 521.101 429.983 520.783 429.449C520.476 428.915 520.055 428.489 519.521 428.17C518.987 427.852 518.391 427.693 517.732 427.693C517.084 427.693 516.493 427.852 515.959 428.17C515.425 428.489 514.999 428.915 514.68 429.449C514.362 429.983 514.203 430.574 514.203 431.222C514.203 431.881 514.362 432.477 514.68 433.011C514.999 433.545 515.425 433.972 515.959 434.29C516.493 434.608 517.084 434.767 517.732 434.767Z" fill="black"/>
</svg>
