<svg width="632" height="1000" viewBox="0 0 632 1000" fill="none" xmlns="http://www.w3.org/2000/svg">
<rect width="632" height="1000" fill="white"/>
<path d="M272.601 627.628C271.436 629.505 272.014 631.971 273.891 633.136C275.768 634.301 278.234 633.723 279.399 631.846L272.601 627.628ZM527.895 229.088C527.391 226.937 525.239 225.602 523.088 226.105L488.037 234.316C485.886 234.82 484.55 236.972 485.054 239.123C485.558 241.274 487.71 242.609 489.861 242.106L521.018 234.807L528.316 265.963C528.82 268.114 530.972 269.45 533.123 268.946C535.274 268.442 536.609 266.29 536.106 264.139L527.895 229.088ZM279.399 631.846L527.399 232.109L520.601 227.891L272.601 627.628L279.399 631.846Z" fill="black"/>
<path d="M269.926 709.382C268.419 710.997 265.888 711.086 264.272 709.579L237.943 685.027C236.328 683.52 236.239 680.989 237.746 679.374C239.253 677.758 241.784 677.67 243.399 679.176L266.803 701L288.627 677.597C290.133 675.981 292.664 675.893 294.28 677.399C295.896 678.906 295.984 681.437 294.477 683.053L269.926 709.382ZM270.825 701.569L270.998 706.514L263.003 706.793L262.83 701.848L270.825 701.569Z" fill="black"/>
<path d="M158 702C158 704.209 156.209 706 154 706C151.791 706 150 704.209 150 702H158ZM263 702C263 682.18 256.29 667.728 246.553 658.243C236.771 648.714 223.681 643.949 210.515 644C197.349 644.051 184.245 648.919 174.451 658.485C164.702 668.006 158 682.411 158 702H150C150 680.474 157.423 663.934 168.861 652.762C180.255 641.634 195.401 636.059 210.485 636C225.569 635.942 240.729 641.401 252.135 652.512C263.585 663.666 271 680.268 271 702H263Z" fill="black"/>
<path d="M102 845H276V758C276 749.716 269.284 743 261 743H117C108.716 743 102 749.716 102 758V845Z" fill="#747474"/>
<circle cx="87" cy="87" r="87" transform="matrix(1 0 0 -1 102 927)" fill="#747474"/>
<rect width="124" height="77" rx="15" transform="matrix(1 0 0 -1 127 845)" fill="#585858"/>
<circle cx="188.5" cy="242.5" r="74.5" stroke="black" stroke-width="8"/>
</svg>
