<svg width="1100" height="1100" viewBox="0 0 1100 1100" fill="none" xmlns="http://www.w3.org/2000/svg">
<rect width="1100" height="1100" fill="white"/>
<path d="M402.614 110.286C401.668 108.29 399.282 107.439 397.286 108.386C395.29 109.332 394.439 111.718 395.386 113.714L402.614 110.286ZM443.656 212.768C445.737 213.51 448.025 212.424 448.768 210.344L460.861 176.436C461.603 174.355 460.518 172.066 458.437 171.324C456.356 170.582 454.068 171.667 453.326 173.748L442.576 203.889L412.436 193.139C410.355 192.397 408.066 193.482 407.324 195.563C406.582 197.644 407.667 199.932 409.748 200.674L443.656 212.768ZM395.386 113.714L441.386 210.714L448.614 207.286L402.614 110.286L395.386 113.714Z" fill="black"/>
<path d="M422.409 403H410.034V368.091H422.511C426.023 368.091 429.045 368.79 431.58 370.188C434.114 371.574 436.063 373.568 437.426 376.17C438.801 378.773 439.489 381.886 439.489 385.511C439.489 389.148 438.801 392.273 437.426 394.886C436.063 397.5 434.102 399.506 431.545 400.903C429 402.301 425.955 403 422.409 403ZM417.415 396.676H422.102C424.284 396.676 426.119 396.29 427.608 395.517C429.108 394.733 430.233 393.523 430.983 391.886C431.744 390.239 432.125 388.114 432.125 385.511C432.125 382.932 431.744 380.824 430.983 379.188C430.233 377.551 429.114 376.347 427.625 375.574C426.136 374.801 424.301 374.415 422.119 374.415H417.415V396.676ZM444.82 403V376.818H451.859V381.386H452.132C452.609 379.761 453.411 378.534 454.536 377.705C455.661 376.864 456.956 376.443 458.422 376.443C458.786 376.443 459.178 376.466 459.598 376.511C460.018 376.557 460.388 376.619 460.706 376.699V383.142C460.365 383.04 459.893 382.949 459.291 382.869C458.689 382.79 458.138 382.75 457.638 382.75C456.57 382.75 455.615 382.983 454.774 383.449C453.945 383.903 453.286 384.54 452.797 385.358C452.32 386.176 452.081 387.119 452.081 388.188V403H444.82ZM464.46 403V376.818H471.722V403H464.46ZM468.108 373.443C467.028 373.443 466.102 373.085 465.33 372.369C464.568 371.642 464.188 370.773 464.188 369.761C464.188 368.761 464.568 367.903 465.33 367.188C466.102 366.46 467.028 366.097 468.108 366.097C469.188 366.097 470.108 366.46 470.869 367.188C471.642 367.903 472.028 368.761 472.028 369.761C472.028 370.773 471.642 371.642 470.869 372.369C470.108 373.085 469.188 373.443 468.108 373.443ZM501.947 376.818L492.794 403H484.612L475.459 376.818H483.129L488.567 395.551H488.839L494.26 376.818H501.947ZM516.751 403.511C514.058 403.511 511.74 402.966 509.797 401.875C507.865 400.773 506.376 399.216 505.331 397.205C504.286 395.182 503.763 392.79 503.763 390.028C503.763 387.335 504.286 384.972 505.331 382.938C506.376 380.903 507.848 379.318 509.746 378.182C511.655 377.045 513.893 376.477 516.462 376.477C518.189 376.477 519.797 376.756 521.286 377.312C522.786 377.858 524.092 378.682 525.206 379.784C526.331 380.886 527.206 382.273 527.831 383.943C528.456 385.602 528.768 387.545 528.768 389.773V391.767H506.661V387.267H521.933C521.933 386.222 521.706 385.295 521.251 384.489C520.797 383.682 520.166 383.051 519.359 382.597C518.564 382.131 517.638 381.898 516.581 381.898C515.479 381.898 514.501 382.153 513.649 382.665C512.808 383.165 512.149 383.841 511.672 384.693C511.195 385.534 510.95 386.472 510.939 387.506V391.784C510.939 393.08 511.178 394.199 511.655 395.142C512.143 396.085 512.831 396.812 513.717 397.324C514.604 397.835 515.655 398.091 516.871 398.091C517.678 398.091 518.416 397.977 519.087 397.75C519.757 397.523 520.331 397.182 520.808 396.727C521.286 396.273 521.649 395.716 521.899 395.057L528.615 395.5C528.274 397.114 527.575 398.523 526.518 399.727C525.473 400.92 524.121 401.852 522.462 402.523C520.814 403.182 518.911 403.511 516.751 403.511ZM563.69 378.131C563.554 376.756 562.969 375.687 561.935 374.926C560.901 374.165 559.497 373.784 557.724 373.784C556.52 373.784 555.503 373.955 554.673 374.295C553.844 374.625 553.207 375.085 552.764 375.676C552.332 376.267 552.116 376.938 552.116 377.688C552.094 378.312 552.224 378.858 552.509 379.324C552.804 379.79 553.207 380.193 553.719 380.534C554.23 380.864 554.821 381.153 555.491 381.403C556.162 381.642 556.878 381.847 557.639 382.017L560.776 382.767C562.298 383.108 563.696 383.562 564.969 384.131C566.241 384.699 567.344 385.398 568.276 386.227C569.207 387.057 569.929 388.034 570.44 389.159C570.963 390.284 571.23 391.574 571.241 393.028C571.23 395.165 570.685 397.017 569.605 398.585C568.537 400.142 566.991 401.352 564.969 402.216C562.957 403.068 560.531 403.494 557.69 403.494C554.872 403.494 552.418 403.062 550.327 402.199C548.247 401.335 546.622 400.057 545.452 398.364C544.293 396.659 543.685 394.551 543.628 392.04H550.77C550.849 393.21 551.185 394.187 551.776 394.972C552.378 395.744 553.179 396.33 554.179 396.727C555.19 397.114 556.332 397.307 557.605 397.307C558.855 397.307 559.94 397.125 560.861 396.761C561.793 396.398 562.514 395.892 563.026 395.244C563.537 394.597 563.793 393.852 563.793 393.011C563.793 392.227 563.56 391.568 563.094 391.034C562.639 390.5 561.969 390.045 561.082 389.67C560.207 389.295 559.134 388.955 557.861 388.648L554.06 387.693C551.116 386.977 548.793 385.858 547.088 384.335C545.384 382.812 544.537 380.761 544.548 378.182C544.537 376.068 545.099 374.222 546.236 372.642C547.384 371.062 548.957 369.83 550.957 368.943C552.957 368.057 555.23 367.614 557.776 367.614C560.366 367.614 562.628 368.057 564.56 368.943C566.503 369.83 568.014 371.062 569.094 372.642C570.173 374.222 570.73 376.051 570.764 378.131H563.69ZM593.371 412.818V398.807H593.149C592.808 399.534 592.325 400.256 591.7 400.972C591.087 401.676 590.286 402.261 589.297 402.727C588.32 403.193 587.126 403.426 585.717 403.426C583.729 403.426 581.928 402.915 580.314 401.892C578.712 400.858 577.439 399.341 576.496 397.341C575.564 395.33 575.098 392.864 575.098 389.943C575.098 386.943 575.581 384.449 576.547 382.46C577.513 380.46 578.797 378.966 580.399 377.977C582.013 376.977 583.78 376.477 585.7 376.477C587.166 376.477 588.388 376.727 589.365 377.227C590.354 377.716 591.149 378.33 591.751 379.068C592.365 379.795 592.831 380.511 593.149 381.216H593.456V376.818H600.615V412.818H593.371ZM588.018 397.648C589.189 397.648 590.178 397.33 590.984 396.693C591.803 396.045 592.428 395.142 592.859 393.983C593.303 392.824 593.524 391.466 593.524 389.909C593.524 388.352 593.308 387 592.876 385.852C592.445 384.705 591.82 383.818 591.001 383.193C590.183 382.568 589.189 382.256 588.018 382.256C586.825 382.256 585.82 382.58 585.001 383.227C584.183 383.875 583.564 384.773 583.143 385.92C582.723 387.068 582.513 388.398 582.513 389.909C582.513 391.432 582.723 392.778 583.143 393.949C583.575 395.108 584.195 396.017 585.001 396.676C585.82 397.324 586.825 397.648 588.018 397.648ZM623.234 391.852V376.818H630.496V403H623.524V398.244H623.251C622.661 399.778 621.678 401.011 620.303 401.943C618.939 402.875 617.274 403.341 615.308 403.341C613.558 403.341 612.018 402.943 610.689 402.148C609.359 401.352 608.32 400.222 607.57 398.756C606.831 397.29 606.456 395.534 606.445 393.489V376.818H613.706V392.193C613.717 393.739 614.132 394.96 614.95 395.858C615.768 396.756 616.865 397.205 618.24 397.205C619.115 397.205 619.933 397.006 620.695 396.608C621.456 396.199 622.07 395.597 622.536 394.801C623.013 394.006 623.246 393.023 623.234 391.852ZM643.77 403.494C642.099 403.494 640.611 403.205 639.304 402.625C637.997 402.034 636.963 401.165 636.202 400.017C635.452 398.858 635.077 397.415 635.077 395.688C635.077 394.233 635.344 393.011 635.878 392.023C636.412 391.034 637.139 390.239 638.06 389.636C638.98 389.034 640.026 388.58 641.196 388.273C642.378 387.966 643.616 387.75 644.912 387.625C646.435 387.466 647.662 387.318 648.594 387.182C649.526 387.034 650.202 386.818 650.622 386.534C651.043 386.25 651.253 385.83 651.253 385.273V385.17C651.253 384.091 650.912 383.256 650.23 382.665C649.56 382.074 648.605 381.778 647.366 381.778C646.06 381.778 645.02 382.068 644.247 382.648C643.474 383.216 642.963 383.932 642.713 384.795L635.997 384.25C636.338 382.659 637.009 381.284 638.009 380.125C639.009 378.955 640.298 378.057 641.878 377.432C643.469 376.795 645.31 376.477 647.401 376.477C648.855 376.477 650.247 376.648 651.577 376.989C652.918 377.33 654.105 377.858 655.139 378.574C656.185 379.29 657.009 380.21 657.611 381.335C658.213 382.449 658.514 383.784 658.514 385.341V403H651.628V399.369H651.423C651.003 400.188 650.44 400.909 649.736 401.534C649.031 402.148 648.185 402.631 647.196 402.983C646.207 403.324 645.065 403.494 643.77 403.494ZM645.849 398.483C646.918 398.483 647.861 398.273 648.679 397.852C649.497 397.42 650.139 396.841 650.605 396.114C651.071 395.386 651.304 394.562 651.304 393.642V390.864C651.077 391.011 650.764 391.148 650.366 391.273C649.98 391.386 649.543 391.494 649.054 391.597C648.565 391.687 648.077 391.773 647.588 391.852C647.099 391.92 646.656 391.983 646.259 392.04C645.406 392.165 644.662 392.364 644.026 392.636C643.389 392.909 642.895 393.278 642.543 393.744C642.19 394.199 642.014 394.767 642.014 395.449C642.014 396.438 642.372 397.193 643.088 397.716C643.815 398.227 644.736 398.483 645.849 398.483ZM664.148 403V376.818H671.188V381.386H671.46C671.938 379.761 672.739 378.534 673.864 377.705C674.989 376.864 676.284 376.443 677.75 376.443C678.114 376.443 678.506 376.466 678.926 376.511C679.347 376.557 679.716 376.619 680.034 376.699V383.142C679.693 383.04 679.222 382.949 678.619 382.869C678.017 382.79 677.466 382.75 676.966 382.75C675.898 382.75 674.943 382.983 674.102 383.449C673.273 383.903 672.614 384.54 672.125 385.358C671.648 386.176 671.409 387.119 671.409 388.188V403H664.148ZM694.501 403.511C691.808 403.511 689.49 402.966 687.547 401.875C685.615 400.773 684.126 399.216 683.081 397.205C682.036 395.182 681.513 392.79 681.513 390.028C681.513 387.335 682.036 384.972 683.081 382.938C684.126 380.903 685.598 379.318 687.496 378.182C689.405 377.045 691.643 376.477 694.212 376.477C695.939 376.477 697.547 376.756 699.036 377.312C700.536 377.858 701.842 378.682 702.956 379.784C704.081 380.886 704.956 382.273 705.581 383.943C706.206 385.602 706.518 387.545 706.518 389.773V391.767H684.411V387.267H699.683C699.683 386.222 699.456 385.295 699.001 384.489C698.547 383.682 697.916 383.051 697.109 382.597C696.314 382.131 695.388 381.898 694.331 381.898C693.229 381.898 692.251 382.153 691.399 382.665C690.558 383.165 689.899 383.841 689.422 384.693C688.945 385.534 688.7 386.472 688.689 387.506V391.784C688.689 393.08 688.928 394.199 689.405 395.142C689.893 396.085 690.581 396.812 691.467 397.324C692.354 397.835 693.405 398.091 694.621 398.091C695.428 398.091 696.166 397.977 696.837 397.75C697.507 397.523 698.081 397.182 698.558 396.727C699.036 396.273 699.399 395.716 699.649 395.057L706.365 395.5C706.024 397.114 705.325 398.523 704.268 399.727C703.223 400.92 701.871 401.852 700.212 402.523C698.564 403.182 696.661 403.511 694.501 403.511Z" fill="black"/>
<path d="M783.786 566.545C783.786 570.352 783.064 573.591 781.621 576.261C780.189 578.932 778.234 580.972 775.757 582.381C773.291 583.778 770.518 584.477 767.439 584.477C764.337 584.477 761.553 583.773 759.087 582.364C756.621 580.955 754.672 578.915 753.24 576.244C751.808 573.574 751.092 570.341 751.092 566.545C751.092 562.739 751.808 559.5 753.24 556.83C754.672 554.159 756.621 552.125 759.087 550.727C761.553 549.318 764.337 548.614 767.439 548.614C770.518 548.614 773.291 549.318 775.757 550.727C778.234 552.125 780.189 554.159 781.621 556.83C783.064 559.5 783.786 562.739 783.786 566.545ZM776.303 566.545C776.303 564.08 775.933 562 775.195 560.307C774.467 558.614 773.439 557.33 772.109 556.455C770.78 555.58 769.223 555.142 767.439 555.142C765.655 555.142 764.098 555.58 762.768 556.455C761.439 557.33 760.405 558.614 759.666 560.307C758.939 562 758.575 564.08 758.575 566.545C758.575 569.011 758.939 571.091 759.666 572.784C760.405 574.477 761.439 575.761 762.768 576.636C764.098 577.511 765.655 577.949 767.439 577.949C769.223 577.949 770.78 577.511 772.109 576.636C773.439 575.761 774.467 574.477 775.195 572.784C775.933 571.091 776.303 569.011 776.303 566.545ZM789.253 584V549.091H796.514V562.216H796.736C797.054 561.511 797.514 560.795 798.116 560.068C798.73 559.33 799.526 558.716 800.503 558.227C801.491 557.727 802.719 557.477 804.185 557.477C806.094 557.477 807.855 557.977 809.469 558.977C811.082 559.966 812.372 561.46 813.338 563.46C814.304 565.449 814.787 567.943 814.787 570.943C814.787 573.864 814.315 576.33 813.372 578.341C812.44 580.341 811.168 581.858 809.554 582.892C807.952 583.915 806.156 584.426 804.168 584.426C802.759 584.426 801.56 584.193 800.571 583.727C799.594 583.261 798.793 582.676 798.168 581.972C797.543 581.256 797.065 580.534 796.736 579.807H796.412V584H789.253ZM796.361 570.909C796.361 572.466 796.577 573.824 797.009 574.983C797.44 576.142 798.065 577.045 798.884 577.693C799.702 578.33 800.696 578.648 801.866 578.648C803.048 578.648 804.048 578.324 804.866 577.676C805.685 577.017 806.304 576.108 806.724 574.949C807.156 573.778 807.372 572.432 807.372 570.909C807.372 569.398 807.162 568.068 806.741 566.92C806.321 565.773 805.702 564.875 804.884 564.227C804.065 563.58 803.06 563.256 801.866 563.256C800.685 563.256 799.685 563.568 798.866 564.193C798.06 564.818 797.44 565.705 797.009 566.852C796.577 568 796.361 569.352 796.361 570.909ZM819.632 557.818H826.893V585.295C826.893 587.318 826.496 588.955 825.7 590.205C824.905 591.455 823.763 592.369 822.274 592.949C820.797 593.528 819.03 593.818 816.973 593.818C816.723 593.818 816.484 593.813 816.257 593.801C816.018 593.801 815.768 593.795 815.507 593.784V588.108C815.7 588.119 815.871 588.125 816.018 588.125C816.155 588.136 816.303 588.142 816.462 588.142C817.632 588.142 818.45 587.892 818.916 587.392C819.393 586.903 819.632 586.165 819.632 585.176V557.818ZM823.246 554.443C822.178 554.443 821.257 554.085 820.484 553.369C819.712 552.642 819.325 551.773 819.325 550.761C819.325 549.761 819.712 548.903 820.484 548.188C821.257 547.46 822.178 547.097 823.246 547.097C824.337 547.097 825.263 547.46 826.024 548.188C826.797 548.903 827.183 549.761 827.183 550.761C827.183 551.773 826.797 552.642 826.024 553.369C825.263 554.085 824.337 554.443 823.246 554.443ZM844.642 584.511C841.949 584.511 839.631 583.966 837.688 582.875C835.756 581.773 834.267 580.216 833.222 578.205C832.176 576.182 831.653 573.79 831.653 571.028C831.653 568.335 832.176 565.972 833.222 563.938C834.267 561.903 835.739 560.318 837.636 559.182C839.545 558.045 841.784 557.477 844.352 557.477C846.08 557.477 847.688 557.756 849.176 558.312C850.676 558.858 851.983 559.682 853.097 560.784C854.222 561.886 855.097 563.273 855.722 564.943C856.347 566.602 856.659 568.545 856.659 570.773V572.767H834.551V568.267H849.824C849.824 567.222 849.597 566.295 849.142 565.489C848.688 564.682 848.057 564.051 847.25 563.597C846.455 563.131 845.528 562.898 844.472 562.898C843.369 562.898 842.392 563.153 841.54 563.665C840.699 564.165 840.04 564.841 839.562 565.693C839.085 566.534 838.841 567.472 838.83 568.506V572.784C838.83 574.08 839.068 575.199 839.545 576.142C840.034 577.085 840.722 577.812 841.608 578.324C842.494 578.835 843.545 579.091 844.761 579.091C845.568 579.091 846.307 578.977 846.977 578.75C847.648 578.523 848.222 578.182 848.699 577.727C849.176 577.273 849.54 576.716 849.79 576.057L856.506 576.5C856.165 578.114 855.466 579.523 854.409 580.727C853.364 581.92 852.011 582.852 850.352 583.523C848.705 584.182 846.801 584.511 844.642 584.511ZM873.227 584.511C870.545 584.511 868.239 583.943 866.307 582.807C864.386 581.659 862.909 580.068 861.875 578.034C860.852 576 860.341 573.659 860.341 571.011C860.341 568.33 860.858 565.977 861.892 563.955C862.938 561.92 864.42 560.335 866.341 559.199C868.261 558.051 870.545 557.477 873.193 557.477C875.477 557.477 877.477 557.892 879.193 558.722C880.909 559.551 882.267 560.716 883.267 562.216C884.267 563.716 884.818 565.477 884.92 567.5H878.068C877.875 566.193 877.364 565.142 876.534 564.347C875.716 563.54 874.642 563.136 873.312 563.136C872.188 563.136 871.205 563.443 870.364 564.057C869.534 564.659 868.886 565.54 868.42 566.699C867.955 567.858 867.722 569.261 867.722 570.909C867.722 572.58 867.949 574 868.403 575.17C868.869 576.341 869.523 577.233 870.364 577.847C871.205 578.46 872.188 578.767 873.312 578.767C874.142 578.767 874.886 578.597 875.545 578.256C876.216 577.915 876.767 577.42 877.199 576.773C877.642 576.114 877.932 575.324 878.068 574.403H884.92C884.807 576.403 884.261 578.165 883.284 579.688C882.318 581.199 880.983 582.381 879.278 583.233C877.574 584.085 875.557 584.511 873.227 584.511ZM903.496 557.818V563.273H887.729V557.818H903.496ZM891.308 551.545H898.57V575.955C898.57 576.625 898.672 577.148 898.876 577.523C899.081 577.886 899.365 578.142 899.729 578.29C900.104 578.437 900.536 578.511 901.024 578.511C901.365 578.511 901.706 578.483 902.047 578.426C902.388 578.358 902.649 578.307 902.831 578.273L903.973 583.676C903.609 583.79 903.098 583.92 902.439 584.068C901.78 584.227 900.979 584.324 900.036 584.358C898.286 584.426 896.751 584.193 895.433 583.659C894.126 583.125 893.109 582.295 892.382 581.17C891.655 580.045 891.297 578.625 891.308 576.909V551.545ZM734.198 642H721.823V607.091H734.3C737.812 607.091 740.835 607.79 743.369 609.188C745.903 610.574 747.852 612.568 749.215 615.17C750.59 617.773 751.278 620.886 751.278 624.511C751.278 628.148 750.59 631.273 749.215 633.886C747.852 636.5 745.891 638.506 743.335 639.903C740.789 641.301 737.744 642 734.198 642ZM729.204 635.676H733.891C736.073 635.676 737.908 635.29 739.397 634.517C740.897 633.733 742.022 632.523 742.772 630.886C743.533 629.239 743.914 627.114 743.914 624.511C743.914 621.932 743.533 619.824 742.772 618.188C742.022 616.551 740.903 615.347 739.414 614.574C737.925 613.801 736.09 613.415 733.908 613.415H729.204V635.676ZM768.54 642.511C765.847 642.511 763.529 641.966 761.586 640.875C759.654 639.773 758.165 638.216 757.12 636.205C756.075 634.182 755.552 631.79 755.552 629.028C755.552 626.335 756.075 623.972 757.12 621.938C758.165 619.903 759.637 618.318 761.535 617.182C763.444 616.045 765.683 615.477 768.251 615.477C769.978 615.477 771.586 615.756 773.075 616.312C774.575 616.858 775.881 617.682 776.995 618.784C778.12 619.886 778.995 621.273 779.62 622.943C780.245 624.602 780.558 626.545 780.558 628.773V630.767H758.45V626.267H773.722C773.722 625.222 773.495 624.295 773.04 623.489C772.586 622.682 771.955 622.051 771.148 621.597C770.353 621.131 769.427 620.898 768.37 620.898C767.268 620.898 766.29 621.153 765.438 621.665C764.597 622.165 763.938 622.841 763.461 623.693C762.984 624.534 762.739 625.472 762.728 626.506V630.784C762.728 632.08 762.967 633.199 763.444 634.142C763.933 635.085 764.62 635.812 765.506 636.324C766.393 636.835 767.444 637.091 768.66 637.091C769.467 637.091 770.205 636.977 770.876 636.75C771.546 636.523 772.12 636.182 772.597 635.727C773.075 635.273 773.438 634.716 773.688 634.057L780.404 634.5C780.063 636.114 779.364 637.523 778.308 638.727C777.262 639.92 775.91 640.852 774.251 641.523C772.603 642.182 770.7 642.511 768.54 642.511ZM799.222 615.818V621.273H783.455V615.818H799.222ZM787.035 609.545H794.296V633.955C794.296 634.625 794.398 635.148 794.603 635.523C794.808 635.886 795.092 636.142 795.455 636.29C795.83 636.437 796.262 636.511 796.751 636.511C797.092 636.511 797.433 636.483 797.773 636.426C798.114 636.358 798.376 636.307 798.558 636.273L799.7 641.676C799.336 641.79 798.825 641.92 798.165 642.068C797.506 642.227 796.705 642.324 795.762 642.358C794.012 642.426 792.478 642.193 791.16 641.659C789.853 641.125 788.836 640.295 788.109 639.17C787.381 638.045 787.023 636.625 787.035 634.909V609.545ZM815.603 642.511C812.91 642.511 810.592 641.966 808.648 640.875C806.717 639.773 805.228 638.216 804.183 636.205C803.137 634.182 802.614 631.79 802.614 629.028C802.614 626.335 803.137 623.972 804.183 621.938C805.228 619.903 806.7 618.318 808.597 617.182C810.506 616.045 812.745 615.477 815.313 615.477C817.04 615.477 818.648 615.756 820.137 616.312C821.637 616.858 822.944 617.682 824.058 618.784C825.183 619.886 826.058 621.273 826.683 622.943C827.308 624.602 827.62 626.545 827.62 628.773V630.767H805.512V626.267H820.785C820.785 625.222 820.558 624.295 820.103 623.489C819.648 622.682 819.018 622.051 818.211 621.597C817.415 621.131 816.489 620.898 815.433 620.898C814.33 620.898 813.353 621.153 812.501 621.665C811.66 622.165 811.001 622.841 810.523 623.693C810.046 624.534 809.802 625.472 809.79 626.506V630.784C809.79 632.08 810.029 633.199 810.506 634.142C810.995 635.085 811.683 635.812 812.569 636.324C813.455 636.835 814.506 637.091 815.722 637.091C816.529 637.091 817.268 636.977 817.938 636.75C818.609 636.523 819.183 636.182 819.66 635.727C820.137 635.273 820.501 634.716 820.751 634.057L827.467 634.5C827.126 636.114 826.427 637.523 825.37 638.727C824.325 639.92 822.972 640.852 821.313 641.523C819.665 642.182 817.762 642.511 815.603 642.511ZM844.188 642.511C841.506 642.511 839.2 641.943 837.268 640.807C835.347 639.659 833.87 638.068 832.836 636.034C831.813 634 831.302 631.659 831.302 629.011C831.302 626.33 831.819 623.977 832.853 621.955C833.898 619.92 835.381 618.335 837.302 617.199C839.222 616.051 841.506 615.477 844.154 615.477C846.438 615.477 848.438 615.892 850.154 616.722C851.87 617.551 853.228 618.716 854.228 620.216C855.228 621.716 855.779 623.477 855.881 625.5H849.029C848.836 624.193 848.325 623.142 847.495 622.347C846.677 621.54 845.603 621.136 844.273 621.136C843.148 621.136 842.165 621.443 841.325 622.057C840.495 622.659 839.847 623.54 839.381 624.699C838.915 625.858 838.683 627.261 838.683 628.909C838.683 630.58 838.91 632 839.364 633.17C839.83 634.341 840.484 635.233 841.325 635.847C842.165 636.46 843.148 636.767 844.273 636.767C845.103 636.767 845.847 636.597 846.506 636.256C847.177 635.915 847.728 635.42 848.16 634.773C848.603 634.114 848.893 633.324 849.029 632.403H855.881C855.768 634.403 855.222 636.165 854.245 637.688C853.279 639.199 851.944 640.381 850.239 641.233C848.535 642.085 846.518 642.511 844.188 642.511ZM874.457 615.818V621.273H858.69V615.818H874.457ZM862.269 609.545H869.531V633.955C869.531 634.625 869.633 635.148 869.837 635.523C870.042 635.886 870.326 636.142 870.69 636.29C871.065 636.437 871.496 636.511 871.985 636.511C872.326 636.511 872.667 636.483 873.008 636.426C873.349 636.358 873.61 636.307 873.792 636.273L874.934 641.676C874.57 641.79 874.059 641.92 873.4 642.068C872.741 642.227 871.94 642.324 870.996 642.358C869.246 642.426 867.712 642.193 866.394 641.659C865.087 641.125 864.07 640.295 863.343 639.17C862.616 638.045 862.258 636.625 862.269 634.909V609.545ZM890.837 642.511C888.144 642.511 885.826 641.966 883.883 640.875C881.951 639.773 880.462 638.216 879.417 636.205C878.371 634.182 877.849 631.79 877.849 629.028C877.849 626.335 878.371 623.972 879.417 621.938C880.462 619.903 881.934 618.318 883.832 617.182C885.741 616.045 887.979 615.477 890.548 615.477C892.275 615.477 893.883 615.756 895.371 616.312C896.871 616.858 898.178 617.682 899.292 618.784C900.417 619.886 901.292 621.273 901.917 622.943C902.542 624.602 902.854 626.545 902.854 628.773V630.767H880.746V626.267H896.019C896.019 625.222 895.792 624.295 895.337 623.489C894.883 622.682 894.252 622.051 893.445 621.597C892.65 621.131 891.724 620.898 890.667 620.898C889.565 620.898 888.587 621.153 887.735 621.665C886.894 622.165 886.235 622.841 885.758 623.693C885.281 624.534 885.036 625.472 885.025 626.506V630.784C885.025 632.08 885.263 633.199 885.741 634.142C886.229 635.085 886.917 635.812 887.803 636.324C888.69 636.835 889.741 637.091 890.957 637.091C891.763 637.091 892.502 636.977 893.173 636.75C893.843 636.523 894.417 636.182 894.894 635.727C895.371 635.273 895.735 634.716 895.985 634.057L902.701 634.5C902.36 636.114 901.661 637.523 900.604 638.727C899.559 639.92 898.207 640.852 896.548 641.523C894.9 642.182 892.996 642.511 890.837 642.511ZM917.241 642.426C915.252 642.426 913.451 641.915 911.837 640.892C910.235 639.858 908.962 638.341 908.019 636.341C907.087 634.33 906.621 631.864 906.621 628.943C906.621 625.943 907.104 623.449 908.07 621.46C909.036 619.46 910.32 617.966 911.923 616.977C913.536 615.977 915.303 615.477 917.224 615.477C918.69 615.477 919.911 615.727 920.888 616.227C921.877 616.716 922.673 617.33 923.275 618.068C923.888 618.795 924.354 619.511 924.673 620.216H924.894V607.091H932.138V642H924.979V637.807H924.673C924.332 638.534 923.849 639.256 923.224 639.972C922.61 640.676 921.809 641.261 920.82 641.727C919.843 642.193 918.65 642.426 917.241 642.426ZM919.542 636.648C920.712 636.648 921.701 636.33 922.508 635.693C923.326 635.045 923.951 634.142 924.383 632.983C924.826 631.824 925.048 630.466 925.048 628.909C925.048 627.352 924.832 626 924.4 624.852C923.968 623.705 923.343 622.818 922.525 622.193C921.707 621.568 920.712 621.256 919.542 621.256C918.349 621.256 917.343 621.58 916.525 622.227C915.707 622.875 915.087 623.773 914.667 624.92C914.246 626.068 914.036 627.398 914.036 628.909C914.036 630.432 914.246 631.778 914.667 632.949C915.099 634.108 915.718 635.017 916.525 635.676C917.343 636.324 918.349 636.648 919.542 636.648Z" fill="black"/>
<path d="M204.983 561.091V596H198.608L183.42 574.028H183.165V596H175.784V561.091H182.261L197.33 583.045H197.636V561.091H204.983ZM222.774 596.511C220.126 596.511 217.837 595.949 215.905 594.824C213.984 593.687 212.501 592.108 211.456 590.085C210.411 588.051 209.888 585.693 209.888 583.011C209.888 580.307 210.411 577.943 211.456 575.92C212.501 573.886 213.984 572.307 215.905 571.182C217.837 570.045 220.126 569.477 222.774 569.477C225.422 569.477 227.706 570.045 229.626 571.182C231.558 572.307 233.047 573.886 234.092 575.92C235.138 577.943 235.661 580.307 235.661 583.011C235.661 585.693 235.138 588.051 234.092 590.085C233.047 592.108 231.558 593.687 229.626 594.824C227.706 595.949 225.422 596.511 222.774 596.511ZM222.808 590.886C224.013 590.886 225.018 590.545 225.825 589.864C226.632 589.17 227.24 588.227 227.649 587.034C228.07 585.841 228.28 584.483 228.28 582.96C228.28 581.438 228.07 580.08 227.649 578.886C227.24 577.693 226.632 576.75 225.825 576.057C225.018 575.364 224.013 575.017 222.808 575.017C221.592 575.017 220.57 575.364 219.74 576.057C218.922 576.75 218.303 577.693 217.882 578.886C217.473 580.08 217.268 581.438 217.268 582.96C217.268 584.483 217.473 585.841 217.882 587.034C218.303 588.227 218.922 589.17 219.74 589.864C220.57 590.545 221.592 590.886 222.808 590.886ZM283.707 578.545C283.707 582.352 282.986 585.591 281.543 588.261C280.111 590.932 278.156 592.972 275.679 594.381C273.213 595.778 270.44 596.477 267.361 596.477C264.259 596.477 261.474 595.773 259.009 594.364C256.543 592.955 254.594 590.915 253.162 588.244C251.73 585.574 251.014 582.341 251.014 578.545C251.014 574.739 251.73 571.5 253.162 568.83C254.594 566.159 256.543 564.125 259.009 562.727C261.474 561.318 264.259 560.614 267.361 560.614C270.44 560.614 273.213 561.318 275.679 562.727C278.156 564.125 280.111 566.159 281.543 568.83C282.986 571.5 283.707 574.739 283.707 578.545ZM276.224 578.545C276.224 576.08 275.855 574 275.116 572.307C274.389 570.614 273.361 569.33 272.031 568.455C270.702 567.58 269.145 567.142 267.361 567.142C265.577 567.142 264.02 567.58 262.69 568.455C261.361 569.33 260.327 570.614 259.588 572.307C258.861 574 258.497 576.08 258.497 578.545C258.497 581.011 258.861 583.091 259.588 584.784C260.327 586.477 261.361 587.761 262.69 588.636C264.02 589.511 265.577 589.949 267.361 589.949C269.145 589.949 270.702 589.511 272.031 588.636C273.361 587.761 274.389 586.477 275.116 584.784C275.855 583.091 276.224 581.011 276.224 578.545ZM289.175 596V561.091H296.436V574.216H296.658C296.976 573.511 297.436 572.795 298.038 572.068C298.652 571.33 299.447 570.716 300.425 570.227C301.413 569.727 302.641 569.477 304.107 569.477C306.016 569.477 307.777 569.977 309.391 570.977C311.004 571.966 312.294 573.46 313.26 575.46C314.226 577.449 314.709 579.943 314.709 582.943C314.709 585.864 314.237 588.33 313.294 590.341C312.362 592.341 311.089 593.858 309.476 594.892C307.874 595.915 306.078 596.426 304.089 596.426C302.68 596.426 301.482 596.193 300.493 595.727C299.516 595.261 298.714 594.676 298.089 593.972C297.464 593.256 296.987 592.534 296.658 591.807H296.334V596H289.175ZM296.283 582.909C296.283 584.466 296.499 585.824 296.93 586.983C297.362 588.142 297.987 589.045 298.805 589.693C299.624 590.33 300.618 590.648 301.788 590.648C302.97 590.648 303.97 590.324 304.788 589.676C305.607 589.017 306.226 588.108 306.646 586.949C307.078 585.778 307.294 584.432 307.294 582.909C307.294 581.398 307.084 580.068 306.663 578.92C306.243 577.773 305.624 576.875 304.805 576.227C303.987 575.58 302.982 575.256 301.788 575.256C300.607 575.256 299.607 575.568 298.788 576.193C297.982 576.818 297.362 577.705 296.93 578.852C296.499 580 296.283 581.352 296.283 582.909ZM319.554 569.818H326.815V597.295C326.815 599.318 326.418 600.955 325.622 602.205C324.827 603.455 323.685 604.369 322.196 604.949C320.719 605.528 318.952 605.818 316.895 605.818C316.645 605.818 316.406 605.813 316.179 605.801C315.94 605.801 315.69 605.795 315.429 605.784V600.108C315.622 600.119 315.793 600.125 315.94 600.125C316.077 600.136 316.224 600.142 316.384 600.142C317.554 600.142 318.372 599.892 318.838 599.392C319.315 598.903 319.554 598.165 319.554 597.176V569.818ZM323.168 566.443C322.099 566.443 321.179 566.085 320.406 565.369C319.634 564.642 319.247 563.773 319.247 562.761C319.247 561.761 319.634 560.903 320.406 560.188C321.179 559.46 322.099 559.097 323.168 559.097C324.259 559.097 325.185 559.46 325.946 560.188C326.719 560.903 327.105 561.761 327.105 562.761C327.105 563.773 326.719 564.642 325.946 565.369C325.185 566.085 324.259 566.443 323.168 566.443ZM344.564 596.511C341.871 596.511 339.553 595.966 337.609 594.875C335.678 593.773 334.189 592.216 333.143 590.205C332.098 588.182 331.575 585.79 331.575 583.028C331.575 580.335 332.098 577.972 333.143 575.938C334.189 573.903 335.661 572.318 337.558 571.182C339.467 570.045 341.706 569.477 344.274 569.477C346.001 569.477 347.609 569.756 349.098 570.312C350.598 570.858 351.905 571.682 353.018 572.784C354.143 573.886 355.018 575.273 355.643 576.943C356.268 578.602 356.581 580.545 356.581 582.773V584.767H334.473V580.267H349.746C349.746 579.222 349.518 578.295 349.064 577.489C348.609 576.682 347.979 576.051 347.172 575.597C346.376 575.131 345.45 574.898 344.393 574.898C343.291 574.898 342.314 575.153 341.462 575.665C340.621 576.165 339.962 576.841 339.484 577.693C339.007 578.534 338.763 579.472 338.751 580.506V584.784C338.751 586.08 338.99 587.199 339.467 588.142C339.956 589.085 340.643 589.812 341.53 590.324C342.416 590.835 343.467 591.091 344.683 591.091C345.49 591.091 346.229 590.977 346.899 590.75C347.57 590.523 348.143 590.182 348.621 589.727C349.098 589.273 349.462 588.716 349.712 588.057L356.428 588.5C356.087 590.114 355.388 591.523 354.331 592.727C353.286 593.92 351.933 594.852 350.274 595.523C348.626 596.182 346.723 596.511 344.564 596.511ZM373.149 596.511C370.467 596.511 368.161 595.943 366.229 594.807C364.308 593.659 362.831 592.068 361.797 590.034C360.774 588 360.263 585.659 360.263 583.011C360.263 580.33 360.78 577.977 361.814 575.955C362.859 573.92 364.342 572.335 366.263 571.199C368.183 570.051 370.467 569.477 373.115 569.477C375.399 569.477 377.399 569.892 379.115 570.722C380.831 571.551 382.189 572.716 383.189 574.216C384.189 575.716 384.74 577.477 384.842 579.5H377.99C377.797 578.193 377.286 577.142 376.456 576.347C375.638 575.54 374.564 575.136 373.234 575.136C372.109 575.136 371.126 575.443 370.286 576.057C369.456 576.659 368.808 577.54 368.342 578.699C367.876 579.858 367.643 581.261 367.643 582.909C367.643 584.58 367.871 586 368.325 587.17C368.791 588.341 369.445 589.233 370.286 589.847C371.126 590.46 372.109 590.767 373.234 590.767C374.064 590.767 374.808 590.597 375.467 590.256C376.138 589.915 376.689 589.42 377.121 588.773C377.564 588.114 377.854 587.324 377.99 586.403H384.842C384.729 588.403 384.183 590.165 383.206 591.688C382.24 593.199 380.905 594.381 379.2 595.233C377.496 596.085 375.479 596.511 373.149 596.511ZM403.418 569.818V575.273H387.651V569.818H403.418ZM391.23 563.545H398.491V587.955C398.491 588.625 398.594 589.148 398.798 589.523C399.003 589.886 399.287 590.142 399.651 590.29C400.026 590.437 400.457 590.511 400.946 590.511C401.287 590.511 401.628 590.483 401.969 590.426C402.31 590.358 402.571 590.307 402.753 590.273L403.895 595.676C403.531 595.79 403.02 595.92 402.361 596.068C401.702 596.227 400.901 596.324 399.957 596.358C398.207 596.426 396.673 596.193 395.355 595.659C394.048 595.125 393.031 594.295 392.304 593.17C391.577 592.045 391.219 590.625 391.23 588.909V563.545ZM196.198 654H183.823V619.091H196.3C199.812 619.091 202.835 619.79 205.369 621.188C207.903 622.574 209.852 624.568 211.215 627.17C212.59 629.773 213.278 632.886 213.278 636.511C213.278 640.148 212.59 643.273 211.215 645.886C209.852 648.5 207.891 650.506 205.335 651.903C202.789 653.301 199.744 654 196.198 654ZM191.204 647.676H195.891C198.073 647.676 199.908 647.29 201.397 646.517C202.897 645.733 204.022 644.523 204.772 642.886C205.533 641.239 205.914 639.114 205.914 636.511C205.914 633.932 205.533 631.824 204.772 630.188C204.022 628.551 202.903 627.347 201.414 626.574C199.925 625.801 198.09 625.415 195.908 625.415H191.204V647.676ZM230.54 654.511C227.847 654.511 225.529 653.966 223.586 652.875C221.654 651.773 220.165 650.216 219.12 648.205C218.075 646.182 217.552 643.79 217.552 641.028C217.552 638.335 218.075 635.972 219.12 633.938C220.165 631.903 221.637 630.318 223.535 629.182C225.444 628.045 227.683 627.477 230.251 627.477C231.978 627.477 233.586 627.756 235.075 628.312C236.575 628.858 237.881 629.682 238.995 630.784C240.12 631.886 240.995 633.273 241.62 634.943C242.245 636.602 242.558 638.545 242.558 640.773V642.767H220.45V638.267H235.722C235.722 637.222 235.495 636.295 235.04 635.489C234.586 634.682 233.955 634.051 233.148 633.597C232.353 633.131 231.427 632.898 230.37 632.898C229.268 632.898 228.29 633.153 227.438 633.665C226.597 634.165 225.938 634.841 225.461 635.693C224.984 636.534 224.739 637.472 224.728 638.506V642.784C224.728 644.08 224.967 645.199 225.444 646.142C225.933 647.085 226.62 647.812 227.506 648.324C228.393 648.835 229.444 649.091 230.66 649.091C231.467 649.091 232.205 648.977 232.876 648.75C233.546 648.523 234.12 648.182 234.597 647.727C235.075 647.273 235.438 646.716 235.688 646.057L242.404 646.5C242.063 648.114 241.364 649.523 240.308 650.727C239.262 651.92 237.91 652.852 236.251 653.523C234.603 654.182 232.7 654.511 230.54 654.511ZM261.222 627.818V633.273H245.455V627.818H261.222ZM249.035 621.545H256.296V645.955C256.296 646.625 256.398 647.148 256.603 647.523C256.808 647.886 257.092 648.142 257.455 648.29C257.83 648.437 258.262 648.511 258.751 648.511C259.092 648.511 259.433 648.483 259.773 648.426C260.114 648.358 260.376 648.307 260.558 648.273L261.7 653.676C261.336 653.79 260.825 653.92 260.165 654.068C259.506 654.227 258.705 654.324 257.762 654.358C256.012 654.426 254.478 654.193 253.16 653.659C251.853 653.125 250.836 652.295 250.109 651.17C249.381 650.045 249.023 648.625 249.035 646.909V621.545ZM277.603 654.511C274.91 654.511 272.592 653.966 270.648 652.875C268.717 651.773 267.228 650.216 266.183 648.205C265.137 646.182 264.614 643.79 264.614 641.028C264.614 638.335 265.137 635.972 266.183 633.938C267.228 631.903 268.7 630.318 270.597 629.182C272.506 628.045 274.745 627.477 277.313 627.477C279.04 627.477 280.648 627.756 282.137 628.312C283.637 628.858 284.944 629.682 286.058 630.784C287.183 631.886 288.058 633.273 288.683 634.943C289.308 636.602 289.62 638.545 289.62 640.773V642.767H267.512V638.267H282.785C282.785 637.222 282.558 636.295 282.103 635.489C281.648 634.682 281.018 634.051 280.211 633.597C279.415 633.131 278.489 632.898 277.433 632.898C276.33 632.898 275.353 633.153 274.501 633.665C273.66 634.165 273.001 634.841 272.523 635.693C272.046 636.534 271.802 637.472 271.79 638.506V642.784C271.79 644.08 272.029 645.199 272.506 646.142C272.995 647.085 273.683 647.812 274.569 648.324C275.455 648.835 276.506 649.091 277.722 649.091C278.529 649.091 279.268 648.977 279.938 648.75C280.609 648.523 281.183 648.182 281.66 647.727C282.137 647.273 282.501 646.716 282.751 646.057L289.467 646.5C289.126 648.114 288.427 649.523 287.37 650.727C286.325 651.92 284.972 652.852 283.313 653.523C281.665 654.182 279.762 654.511 277.603 654.511ZM306.188 654.511C303.506 654.511 301.2 653.943 299.268 652.807C297.347 651.659 295.87 650.068 294.836 648.034C293.813 646 293.302 643.659 293.302 641.011C293.302 638.33 293.819 635.977 294.853 633.955C295.898 631.92 297.381 630.335 299.302 629.199C301.222 628.051 303.506 627.477 306.154 627.477C308.438 627.477 310.438 627.892 312.154 628.722C313.87 629.551 315.228 630.716 316.228 632.216C317.228 633.716 317.779 635.477 317.881 637.5H311.029C310.836 636.193 310.325 635.142 309.495 634.347C308.677 633.54 307.603 633.136 306.273 633.136C305.148 633.136 304.165 633.443 303.325 634.057C302.495 634.659 301.847 635.54 301.381 636.699C300.915 637.858 300.683 639.261 300.683 640.909C300.683 642.58 300.91 644 301.364 645.17C301.83 646.341 302.484 647.233 303.325 647.847C304.165 648.46 305.148 648.767 306.273 648.767C307.103 648.767 307.847 648.597 308.506 648.256C309.177 647.915 309.728 647.42 310.16 646.773C310.603 646.114 310.893 645.324 311.029 644.403H317.881C317.768 646.403 317.222 648.165 316.245 649.688C315.279 651.199 313.944 652.381 312.239 653.233C310.535 654.085 308.518 654.511 306.188 654.511ZM336.457 627.818V633.273H320.69V627.818H336.457ZM324.269 621.545H331.531V645.955C331.531 646.625 331.633 647.148 331.837 647.523C332.042 647.886 332.326 648.142 332.69 648.29C333.065 648.437 333.496 648.511 333.985 648.511C334.326 648.511 334.667 648.483 335.008 648.426C335.349 648.358 335.61 648.307 335.792 648.273L336.934 653.676C336.57 653.79 336.059 653.92 335.4 654.068C334.741 654.227 333.94 654.324 332.996 654.358C331.246 654.426 329.712 654.193 328.394 653.659C327.087 653.125 326.07 652.295 325.343 651.17C324.616 650.045 324.258 648.625 324.269 646.909V621.545ZM352.837 654.511C350.144 654.511 347.826 653.966 345.883 652.875C343.951 651.773 342.462 650.216 341.417 648.205C340.371 646.182 339.849 643.79 339.849 641.028C339.849 638.335 340.371 635.972 341.417 633.938C342.462 631.903 343.934 630.318 345.832 629.182C347.741 628.045 349.979 627.477 352.548 627.477C354.275 627.477 355.883 627.756 357.371 628.312C358.871 628.858 360.178 629.682 361.292 630.784C362.417 631.886 363.292 633.273 363.917 634.943C364.542 636.602 364.854 638.545 364.854 640.773V642.767H342.746V638.267H358.019C358.019 637.222 357.792 636.295 357.337 635.489C356.883 634.682 356.252 634.051 355.445 633.597C354.65 633.131 353.724 632.898 352.667 632.898C351.565 632.898 350.587 633.153 349.735 633.665C348.894 634.165 348.235 634.841 347.758 635.693C347.281 636.534 347.036 637.472 347.025 638.506V642.784C347.025 644.08 347.263 645.199 347.741 646.142C348.229 647.085 348.917 647.812 349.803 648.324C350.69 648.835 351.741 649.091 352.957 649.091C353.763 649.091 354.502 648.977 355.173 648.75C355.843 648.523 356.417 648.182 356.894 647.727C357.371 647.273 357.735 646.716 357.985 646.057L364.701 646.5C364.36 648.114 363.661 649.523 362.604 650.727C361.559 651.92 360.207 652.852 358.548 653.523C356.9 654.182 354.996 654.511 352.837 654.511ZM379.241 654.426C377.252 654.426 375.451 653.915 373.837 652.892C372.235 651.858 370.962 650.341 370.019 648.341C369.087 646.33 368.621 643.864 368.621 640.943C368.621 637.943 369.104 635.449 370.07 633.46C371.036 631.46 372.32 629.966 373.923 628.977C375.536 627.977 377.303 627.477 379.224 627.477C380.69 627.477 381.911 627.727 382.888 628.227C383.877 628.716 384.673 629.33 385.275 630.068C385.888 630.795 386.354 631.511 386.673 632.216H386.894V619.091H394.138V654H386.979V649.807H386.673C386.332 650.534 385.849 651.256 385.224 651.972C384.61 652.676 383.809 653.261 382.82 653.727C381.843 654.193 380.65 654.426 379.241 654.426ZM381.542 648.648C382.712 648.648 383.701 648.33 384.508 647.693C385.326 647.045 385.951 646.142 386.383 644.983C386.826 643.824 387.048 642.466 387.048 640.909C387.048 639.352 386.832 638 386.4 636.852C385.968 635.705 385.343 634.818 384.525 634.193C383.707 633.568 382.712 633.256 381.542 633.256C380.349 633.256 379.343 633.58 378.525 634.227C377.707 634.875 377.087 635.773 376.667 636.92C376.246 638.068 376.036 639.398 376.036 640.909C376.036 642.432 376.246 643.778 376.667 644.949C377.099 646.108 377.718 647.017 378.525 647.676C379.343 648.324 380.349 648.648 381.542 648.648Z" fill="black"/>
<path d="M339.034 87V52.0909H362.557V58.1761H346.415V66.4943H361.347V72.5795H346.415V80.9148H362.625V87H339.034ZM375.55 71.8636V87H368.288V60.8182H375.209V65.4375H375.516C376.095 63.9148 377.067 62.7102 378.43 61.8239C379.794 60.9261 381.447 60.4773 383.391 60.4773C385.209 60.4773 386.794 60.875 388.146 61.6705C389.499 62.4659 390.55 63.6023 391.3 65.0795C392.05 66.5455 392.425 68.2955 392.425 70.3295V87H385.163V71.625C385.175 70.0227 384.766 68.7727 383.936 67.875C383.107 66.9659 381.964 66.5114 380.51 66.5114C379.533 66.5114 378.669 66.7216 377.919 67.142C377.18 67.5625 376.601 68.1761 376.18 68.983C375.771 69.7784 375.561 70.7386 375.55 71.8636ZM412.074 60.8182V66.2727H396.307V60.8182H412.074ZM399.886 54.5455H407.148V78.9545C407.148 79.625 407.25 80.1477 407.455 80.5227C407.659 80.8864 407.943 81.142 408.307 81.2898C408.682 81.4375 409.114 81.5114 409.602 81.5114C409.943 81.5114 410.284 81.483 410.625 81.4261C410.966 81.358 411.227 81.3068 411.409 81.2727L412.551 86.6761C412.188 86.7898 411.676 86.9205 411.017 87.0682C410.358 87.2273 409.557 87.3239 408.614 87.358C406.864 87.4261 405.33 87.1932 404.011 86.6591C402.705 86.125 401.688 85.2955 400.96 84.1705C400.233 83.0455 399.875 81.625 399.886 79.9091V54.5455ZM416.804 87V60.8182H423.844V65.3864H424.116C424.594 63.7614 425.395 62.5341 426.52 61.7045C427.645 60.8636 428.94 60.4432 430.406 60.4432C430.77 60.4432 431.162 60.4659 431.582 60.5114C432.003 60.5568 432.372 60.6193 432.69 60.6989V67.142C432.349 67.0398 431.878 66.9489 431.276 66.8693C430.673 66.7898 430.122 66.75 429.622 66.75C428.554 66.75 427.599 66.983 426.759 67.4489C425.929 67.9034 425.27 68.5398 424.781 69.358C424.304 70.1761 424.065 71.1193 424.065 72.1875V87H416.804ZM441.724 96.8182C440.804 96.8182 439.94 96.7443 439.134 96.5966C438.338 96.4602 437.679 96.2841 437.156 96.0682L438.793 90.6477C439.645 90.9091 440.412 91.0511 441.094 91.0739C441.787 91.0966 442.384 90.9375 442.884 90.5966C443.395 90.2557 443.81 89.6761 444.128 88.858L444.554 87.75L435.162 60.8182H442.798L448.219 80.0455H448.491L453.963 60.8182H461.651L451.474 89.8295C450.986 91.2386 450.321 92.4659 449.48 93.5114C448.651 94.5682 447.599 95.3807 446.327 95.9489C445.054 96.5284 443.52 96.8182 441.724 96.8182Z" fill="black"/>
<circle cx="553.5" cy="385.5" r="172.5" stroke="black" stroke-width="8"/>
<path d="M478.417 844V809.091H492.19C494.837 809.091 497.093 809.597 498.957 810.608C500.82 811.608 502.241 813 503.218 814.784C504.207 816.557 504.701 818.602 504.701 820.92C504.701 823.239 504.201 825.284 503.201 827.057C502.201 828.83 500.752 830.21 498.854 831.199C496.968 832.187 494.684 832.682 492.002 832.682H483.224V826.767H490.809C492.229 826.767 493.4 826.523 494.32 826.034C495.252 825.534 495.945 824.847 496.4 823.972C496.866 823.085 497.099 822.068 497.099 820.92C497.099 819.761 496.866 818.75 496.4 817.886C495.945 817.011 495.252 816.335 494.32 815.858C493.388 815.369 492.207 815.125 490.775 815.125H485.798V844H478.417ZM520.869 844.511C518.175 844.511 515.857 843.966 513.914 842.875C511.982 841.773 510.494 840.216 509.448 838.205C508.403 836.182 507.88 833.79 507.88 831.028C507.88 828.335 508.403 825.972 509.448 823.938C510.494 821.903 511.965 820.318 513.863 819.182C515.772 818.045 518.011 817.477 520.579 817.477C522.306 817.477 523.914 817.756 525.403 818.312C526.903 818.858 528.21 819.682 529.323 820.784C530.448 821.886 531.323 823.273 531.948 824.943C532.573 826.602 532.886 828.545 532.886 830.773V832.767H510.778V828.267H526.05C526.05 827.222 525.823 826.295 525.369 825.489C524.914 824.682 524.283 824.051 523.477 823.597C522.681 823.131 521.755 822.898 520.698 822.898C519.596 822.898 518.619 823.153 517.766 823.665C516.925 824.165 516.266 824.841 515.789 825.693C515.312 826.534 515.067 827.472 515.056 828.506V832.784C515.056 834.08 515.295 835.199 515.772 836.142C516.261 837.085 516.948 837.812 517.835 838.324C518.721 838.835 519.772 839.091 520.988 839.091C521.795 839.091 522.533 838.977 523.204 838.75C523.874 838.523 524.448 838.182 524.925 837.727C525.403 837.273 525.766 836.716 526.016 836.057L532.732 836.5C532.391 838.114 531.692 839.523 530.636 840.727C529.59 841.92 528.238 842.852 526.579 843.523C524.931 844.182 523.028 844.511 520.869 844.511ZM537.624 844V817.818H544.664V822.386H544.937C545.414 820.761 546.215 819.534 547.34 818.705C548.465 817.864 549.761 817.443 551.227 817.443C551.59 817.443 551.982 817.466 552.403 817.511C552.823 817.557 553.192 817.619 553.511 817.699V824.142C553.17 824.04 552.698 823.949 552.096 823.869C551.494 823.79 550.942 823.75 550.442 823.75C549.374 823.75 548.42 823.983 547.579 824.449C546.749 824.903 546.09 825.54 545.602 826.358C545.124 827.176 544.886 828.119 544.886 829.188V844H537.624ZM579.049 825.284L572.401 825.693C572.288 825.125 572.043 824.614 571.668 824.159C571.293 823.693 570.799 823.324 570.185 823.051C569.583 822.767 568.862 822.625 568.021 822.625C566.896 822.625 565.947 822.864 565.174 823.341C564.401 823.807 564.015 824.432 564.015 825.216C564.015 825.841 564.265 826.369 564.765 826.801C565.265 827.233 566.123 827.58 567.339 827.841L572.077 828.795C574.623 829.318 576.521 830.159 577.771 831.318C579.021 832.477 579.646 834 579.646 835.886C579.646 837.602 579.14 839.108 578.129 840.403C577.129 841.699 575.754 842.71 574.004 843.438C572.265 844.153 570.259 844.511 567.987 844.511C564.521 844.511 561.759 843.79 559.702 842.347C557.657 840.892 556.458 838.915 556.106 836.415L563.248 836.04C563.464 837.097 563.987 837.903 564.816 838.46C565.646 839.006 566.708 839.278 568.004 839.278C569.276 839.278 570.299 839.034 571.072 838.545C571.856 838.045 572.254 837.403 572.265 836.619C572.254 835.96 571.975 835.42 571.43 835C570.884 834.568 570.043 834.239 568.907 834.011L564.373 833.108C561.816 832.597 559.913 831.71 558.663 830.449C557.424 829.187 556.805 827.58 556.805 825.625C556.805 823.943 557.259 822.494 558.168 821.278C559.089 820.062 560.379 819.125 562.038 818.466C563.708 817.807 565.663 817.477 567.901 817.477C571.208 817.477 573.81 818.176 575.708 819.574C577.617 820.972 578.731 822.875 579.049 825.284ZM596.048 844.511C593.4 844.511 591.11 843.949 589.178 842.824C587.258 841.687 585.775 840.108 584.729 838.085C583.684 836.051 583.161 833.693 583.161 831.011C583.161 828.307 583.684 825.943 584.729 823.92C585.775 821.886 587.258 820.307 589.178 819.182C591.11 818.045 593.4 817.477 596.048 817.477C598.695 817.477 600.979 818.045 602.9 819.182C604.832 820.307 606.32 821.886 607.366 823.92C608.411 825.943 608.934 828.307 608.934 831.011C608.934 833.693 608.411 836.051 607.366 838.085C606.32 840.108 604.832 841.687 602.9 842.824C600.979 843.949 598.695 844.511 596.048 844.511ZM596.082 838.886C597.286 838.886 598.292 838.545 599.099 837.864C599.906 837.17 600.513 836.227 600.923 835.034C601.343 833.841 601.553 832.483 601.553 830.96C601.553 829.438 601.343 828.08 600.923 826.886C600.513 825.693 599.906 824.75 599.099 824.057C598.292 823.364 597.286 823.017 596.082 823.017C594.866 823.017 593.843 823.364 593.013 824.057C592.195 824.75 591.576 825.693 591.156 826.886C590.746 828.08 590.542 829.438 590.542 830.96C590.542 832.483 590.746 833.841 591.156 835.034C591.576 836.227 592.195 837.17 593.013 837.864C593.843 838.545 594.866 838.886 596.082 838.886ZM620.917 828.864V844H613.656V817.818H620.576V822.438H620.883C621.462 820.915 622.434 819.71 623.798 818.824C625.161 817.926 626.815 817.477 628.758 817.477C630.576 817.477 632.161 817.875 633.513 818.67C634.866 819.466 635.917 820.602 636.667 822.08C637.417 823.545 637.792 825.295 637.792 827.33V844H630.531V828.625C630.542 827.023 630.133 825.773 629.303 824.875C628.474 823.966 627.332 823.511 625.877 823.511C624.9 823.511 624.036 823.722 623.286 824.142C622.548 824.562 621.968 825.176 621.548 825.983C621.138 826.778 620.928 827.739 620.917 828.864ZM485.354 902V867.091H508.468V873.176H492.735V881.494H506.934V887.58H492.735V902H485.354ZM523.204 902.511C520.556 902.511 518.266 901.949 516.335 900.824C514.414 899.687 512.931 898.108 511.886 896.085C510.84 894.051 510.317 891.693 510.317 889.011C510.317 886.307 510.84 883.943 511.886 881.92C512.931 879.886 514.414 878.307 516.335 877.182C518.266 876.045 520.556 875.477 523.204 875.477C525.852 875.477 528.136 876.045 530.056 877.182C531.988 878.307 533.477 879.886 534.522 881.92C535.567 883.943 536.09 886.307 536.09 889.011C536.09 891.693 535.567 894.051 534.522 896.085C533.477 898.108 531.988 899.687 530.056 900.824C528.136 901.949 525.852 902.511 523.204 902.511ZM523.238 896.886C524.442 896.886 525.448 896.545 526.255 895.864C527.062 895.17 527.67 894.227 528.079 893.034C528.499 891.841 528.71 890.483 528.71 888.96C528.71 887.438 528.499 886.08 528.079 884.886C527.67 883.693 527.062 882.75 526.255 882.057C525.448 881.364 524.442 881.017 523.238 881.017C522.022 881.017 520.999 881.364 520.17 882.057C519.352 882.75 518.732 883.693 518.312 884.886C517.903 886.08 517.698 887.438 517.698 888.96C517.698 890.483 517.903 891.841 518.312 893.034C518.732 894.227 519.352 895.17 520.17 895.864C520.999 896.545 522.022 896.886 523.238 896.886ZM548.073 867.091V902H540.812V867.091H548.073ZM561.151 867.091V902H553.89V867.091H561.151ZM578.798 902.511C576.15 902.511 573.86 901.949 571.928 900.824C570.008 899.687 568.525 898.108 567.479 896.085C566.434 894.051 565.911 891.693 565.911 889.011C565.911 886.307 566.434 883.943 567.479 881.92C568.525 879.886 570.008 878.307 571.928 877.182C573.86 876.045 576.15 875.477 578.798 875.477C581.445 875.477 583.729 876.045 585.65 877.182C587.582 878.307 589.07 879.886 590.116 881.92C591.161 883.943 591.684 886.307 591.684 889.011C591.684 891.693 591.161 894.051 590.116 896.085C589.07 898.108 587.582 899.687 585.65 900.824C583.729 901.949 581.445 902.511 578.798 902.511ZM578.832 896.886C580.036 896.886 581.042 896.545 581.849 895.864C582.656 895.17 583.263 894.227 583.673 893.034C584.093 891.841 584.303 890.483 584.303 888.96C584.303 887.438 584.093 886.08 583.673 884.886C583.263 883.693 582.656 882.75 581.849 882.057C581.042 881.364 580.036 881.017 578.832 881.017C577.616 881.017 576.593 881.364 575.763 882.057C574.945 882.75 574.326 883.693 573.906 884.886C573.496 886.08 573.292 887.438 573.292 888.96C573.292 890.483 573.496 891.841 573.906 893.034C574.326 894.227 574.945 895.17 575.763 895.864C576.593 896.545 577.616 896.886 578.832 896.886ZM600.914 902L593.789 875.818H601.136L605.192 893.409H605.431L609.658 875.818H616.869L621.164 893.307H621.386L625.374 875.818H632.704L625.596 902H617.908L613.408 885.534H613.085L608.585 902H600.914Z" fill="black"/>
<circle cx="553.5" cy="855.5" r="172.5" stroke="black" stroke-width="8"/>
<path d="M768.5 395C766.291 395 764.5 396.791 764.5 399C764.5 401.209 766.291 403 768.5 403V395ZM765.672 824.672C764.109 826.234 764.109 828.766 765.672 830.328L791.127 855.784C792.69 857.346 795.222 857.346 796.784 855.784C798.346 854.222 798.346 851.69 796.784 850.127L774.157 827.5L796.784 804.873C798.346 803.31 798.346 800.778 796.784 799.216C795.222 797.654 792.69 797.654 791.127 799.216L765.672 824.672ZM768.5 403C827.417 403 872.414 429.131 903.016 468.411C933.695 507.789 949.951 560.473 950.876 613.32C951.801 666.17 937.388 718.796 907.217 758.112C877.138 797.308 831.242 823.5 768.5 823.5V831.5C833.758 831.5 881.987 804.129 913.564 762.982C945.049 721.954 959.824 667.455 958.874 613.18C957.924 558.902 941.243 504.461 909.327 463.495C877.336 422.432 830.083 395 768.5 395V403Z" fill="black"/>
<path d="M328.417 835.5C330.627 835.5 332.417 833.709 332.417 831.5C332.417 829.291 330.627 827.5 328.417 827.5V835.5ZM331.246 405.828C332.808 404.266 332.808 401.734 331.246 400.172L305.79 374.716C304.228 373.154 301.695 373.154 300.133 374.716C298.571 376.278 298.571 378.81 300.133 380.373L322.761 403L300.133 425.627C298.571 427.19 298.571 429.722 300.133 431.284C301.695 432.846 304.228 432.846 305.79 431.284L331.246 405.828ZM328.417 827.5C269.501 827.5 224.504 801.369 193.901 762.089C163.223 722.711 146.967 670.027 146.042 617.18C145.117 564.33 159.529 511.704 189.7 472.388C219.78 433.192 265.675 407 328.417 407V399C263.16 399 214.93 426.371 183.354 467.518C151.868 508.546 137.093 563.045 138.043 617.32C138.993 671.598 155.675 726.039 187.59 767.005C219.581 808.068 266.834 835.5 328.417 835.5V827.5Z" fill="black"/>
</svg>
