<svg width="610" height="634" viewBox="0 0 610 634" fill="none" xmlns="http://www.w3.org/2000/svg">
<path d="M219 329H393V242C393 233.716 386.284 227 378 227H234C225.716 227 219 233.716 219 242V329Z" fill="#747474"/>
<circle cx="87" cy="87" r="87" transform="matrix(1 0 0 -1 219 411)" fill="#747474"/>
<rect width="124" height="77" rx="15" transform="matrix(1 0 0 -1 244 329)" fill="#585858"/>
<path d="M302 184C302 186.209 303.791 188 306 188C308.209 188 310 186.209 310 184H302ZM308.828 79.1716C307.266 77.6095 304.734 77.6095 303.172 79.1716L277.716 104.627C276.154 106.19 276.154 108.722 277.716 110.284C279.278 111.846 281.81 111.846 283.373 110.284L306 87.6569L328.627 110.284C330.19 111.846 332.722 111.846 334.284 110.284C335.846 108.722 335.846 106.19 334.284 104.627L308.828 79.1716ZM310 184V82H302V184H310Z" fill="white"/>
<path d="M310 450C310 447.791 308.209 446 306 446C303.791 446 302 447.791 302 450H310ZM303.172 554.828C304.734 556.391 307.266 556.391 308.828 554.828L334.284 529.373C335.846 527.81 335.846 525.278 334.284 523.716C332.722 522.154 330.19 522.154 328.627 523.716L306 546.343L283.373 523.716C281.81 522.154 279.278 522.154 277.716 523.716C276.154 525.278 276.154 527.81 277.716 529.373L303.172 554.828ZM302 450V552H310V450H302Z" fill="white"/>
<path d="M291.892 46L281.903 11.0909H289.966L295.744 35.3466H296.034L302.409 11.0909H309.312L315.67 35.3977H315.977L321.756 11.0909H329.818L319.83 46H312.636L305.989 23.1761H305.716L299.085 46H291.892Z" fill="white"/>
<path d="M9.05114 321H1.14205L13.1932 286.091H22.7045L34.7386 321H26.8295L18.0852 294.068H17.8125L9.05114 321ZM8.55682 307.278H27.2386V313.04H8.55682V307.278Z" fill="white"/>
<path d="M311.972 597.131C311.835 595.756 311.25 594.687 310.216 593.926C309.182 593.165 307.778 592.784 306.006 592.784C304.801 592.784 303.784 592.955 302.955 593.295C302.125 593.625 301.489 594.085 301.045 594.676C300.614 595.267 300.398 595.938 300.398 596.688C300.375 597.312 300.506 597.858 300.79 598.324C301.085 598.79 301.489 599.193 302 599.534C302.511 599.864 303.102 600.153 303.773 600.403C304.443 600.642 305.159 600.847 305.92 601.017L309.057 601.767C310.58 602.108 311.977 602.562 313.25 603.131C314.523 603.699 315.625 604.398 316.557 605.227C317.489 606.057 318.21 607.034 318.722 608.159C319.244 609.284 319.511 610.574 319.523 612.028C319.511 614.165 318.966 616.017 317.886 617.585C316.818 619.142 315.273 620.352 313.25 621.216C311.239 622.068 308.813 622.494 305.972 622.494C303.153 622.494 300.699 622.062 298.608 621.199C296.528 620.335 294.903 619.057 293.733 617.364C292.574 615.659 291.966 613.551 291.909 611.04H299.051C299.131 612.21 299.466 613.187 300.057 613.972C300.659 614.744 301.46 615.33 302.46 615.727C303.472 616.114 304.614 616.307 305.886 616.307C307.136 616.307 308.222 616.125 309.142 615.761C310.074 615.398 310.795 614.892 311.307 614.244C311.818 613.597 312.074 612.852 312.074 612.011C312.074 611.227 311.841 610.568 311.375 610.034C310.92 609.5 310.25 609.045 309.364 608.67C308.489 608.295 307.415 607.955 306.142 607.648L302.341 606.693C299.398 605.977 297.074 604.858 295.369 603.335C293.665 601.812 292.818 599.761 292.83 597.182C292.818 595.068 293.381 593.222 294.517 591.642C295.665 590.062 297.239 588.83 299.239 587.943C301.239 587.057 303.511 586.614 306.057 586.614C308.648 586.614 310.909 587.057 312.841 587.943C314.784 588.83 316.295 590.062 317.375 591.642C318.455 593.222 319.011 595.051 319.045 597.131H311.972Z" fill="white"/>
<path d="M590.409 321H578.034V286.091H590.511C594.023 286.091 597.045 286.79 599.58 288.188C602.114 289.574 604.063 291.568 605.426 294.17C606.801 296.773 607.489 299.886 607.489 303.511C607.489 307.148 606.801 310.273 605.426 312.886C604.063 315.5 602.102 317.506 599.545 318.903C597 320.301 593.955 321 590.409 321ZM585.415 314.676H590.102C592.284 314.676 594.119 314.29 595.608 313.517C597.108 312.733 598.233 311.523 598.983 309.886C599.744 308.239 600.125 306.114 600.125 303.511C600.125 300.932 599.744 298.824 598.983 297.188C598.233 295.551 597.114 294.347 595.625 293.574C594.136 292.801 592.301 292.415 590.119 292.415H585.415V314.676Z" fill="white"/>
<path d="M78.9873 340.726C80.494 342.342 83.0251 342.431 84.6407 340.924L110.969 316.372C112.585 314.865 112.674 312.334 111.167 310.719C109.66 309.103 107.129 309.014 105.513 310.521L82.1102 332.345L60.2862 308.942C58.7796 307.326 56.2485 307.238 54.6328 308.744C53.0171 310.251 52.9288 312.782 54.4354 314.398L78.9873 340.726ZM78.0897 332.862L77.9152 337.859L85.9103 338.138L86.0848 333.141L78.0897 332.862Z" fill="white"/>
<path d="M192 333C192 335.209 193.791 337 196 337C198.209 337 200 335.209 200 333H192ZM86 333C86 313.191 92.765 298.743 102.591 289.255C112.464 279.721 125.683 274.949 138.985 275C152.287 275.051 165.519 279.926 175.405 289.497C185.243 299.021 192 313.422 192 333H200C200 311.463 192.507 294.919 180.97 283.749C169.481 272.627 154.213 267.059 139.015 267C123.817 266.942 108.536 272.394 97.034 283.5C85.485 294.651 78 311.257 78 333H86Z" fill="white"/>
<path d="M532.013 340.726C530.506 342.342 527.975 342.431 526.359 340.924L500.031 316.372C498.415 314.865 498.326 312.334 499.833 310.719C501.34 309.103 503.871 309.014 505.486 310.521L528.89 332.345L550.714 308.942C552.22 307.326 554.751 307.238 556.367 308.744C557.983 310.251 558.071 312.782 556.565 314.398L532.013 340.726ZM532.91 332.862L533.085 337.859L525.09 338.138L524.915 333.141L532.91 332.862Z" fill="white"/>
<path d="M419 333C419 335.209 417.209 337 415 337C412.791 337 411 335.209 411 333H419ZM525 333C525 313.191 518.235 298.743 508.409 289.255C498.536 279.721 485.317 274.949 472.015 275C458.713 275.051 445.481 279.926 435.595 289.497C425.757 299.021 419 313.422 419 333H411C411 311.463 418.493 294.919 430.03 283.749C441.519 272.627 456.787 267.059 471.985 267C487.183 266.942 502.464 272.394 513.966 283.5C525.515 294.651 533 311.257 533 333H525Z" fill="white"/>
</svg>
