<svg width="639" height="624" viewBox="0 0 639 624" fill="none" xmlns="http://www.w3.org/2000/svg">
<path d="M588.33 320.426C586.33 320.426 584.608 319.915 583.165 318.892C581.733 317.858 580.71 316.341 580.097 314.341C579.494 312.33 579.438 309.864 579.926 306.943C580.426 303.943 581.324 301.449 582.619 299.46C583.915 297.46 585.449 295.966 587.222 294.977C588.994 293.977 590.841 293.477 592.761 293.477C594.216 293.477 595.392 293.727 596.29 294.227C597.199 294.716 597.898 295.33 598.386 296.068C598.875 296.795 599.216 297.511 599.409 298.216H599.631L601.83 285.091H609.074L603.278 320H596.119L596.818 315.807H596.511C596.057 316.534 595.455 317.256 594.705 317.972C593.966 318.676 593.068 319.261 592.011 319.727C590.966 320.193 589.739 320.426 588.33 320.426ZM591.534 314.648C592.693 314.648 593.739 314.33 594.67 313.693C595.602 313.045 596.386 312.142 597.023 310.983C597.659 309.824 598.102 308.466 598.352 306.909C598.614 305.352 598.619 304 598.369 302.852C598.119 301.705 597.631 300.818 596.903 300.193C596.188 299.568 595.239 299.256 594.057 299.256C592.864 299.256 591.807 299.58 590.886 300.227C589.977 300.875 589.222 301.773 588.619 302.92C588.028 304.068 587.608 305.398 587.358 306.909C587.108 308.432 587.091 309.778 587.307 310.949C587.523 312.108 587.983 313.017 588.688 313.676C589.392 314.324 590.341 314.648 591.534 314.648Z" fill="white"/>
<path d="M540.852 10.6136C542.693 10.6136 544.415 10.9261 546.017 11.5511C547.631 12.1648 549 13.1534 550.125 14.517C551.25 15.8807 552.017 17.6705 552.426 19.8864C552.847 22.1023 552.784 24.8182 552.239 28.0341C551.739 30.9545 550.977 33.5568 549.955 35.8409C548.943 38.125 547.699 40.0568 546.222 41.6364C544.756 43.2159 543.102 44.4205 541.261 45.25C539.42 46.0682 537.438 46.4773 535.312 46.4773C532.983 46.4773 530.983 46.0284 529.312 45.1307C527.642 44.233 526.369 43.0114 525.494 41.4659C524.631 39.9091 524.239 38.1477 524.318 36.1818H531.443C531.466 37.4886 531.858 38.4773 532.619 39.1477C533.381 39.8182 534.42 40.1534 535.739 40.1534C538.057 40.1534 540.017 39.142 541.619 37.1193C543.222 35.0966 544.33 32.3239 544.943 28.8011L544.67 29.1932C543.977 30.2159 543.136 31.0795 542.148 31.7841C541.17 32.4886 540.102 33.0284 538.943 33.4034C537.784 33.767 536.58 33.9489 535.33 33.9489C533.216 33.9489 531.409 33.4432 529.909 32.4318C528.409 31.4205 527.324 30.0398 526.653 28.2898C525.983 26.5398 525.835 24.5511 526.21 22.3239C526.608 20.0398 527.483 18.017 528.835 16.2557C530.188 14.483 531.898 13.0966 533.966 12.0966C536.034 11.0966 538.33 10.6023 540.852 10.6136ZM540.597 16.4091C539.415 16.4091 538.295 16.6989 537.239 17.2784C536.193 17.8466 535.313 18.625 534.597 19.6136C533.892 20.5909 533.449 21.6932 533.267 22.9205C533.108 23.9886 533.193 24.9545 533.523 25.8182C533.852 26.6818 534.386 27.3636 535.125 27.8636C535.875 28.3523 536.795 28.5966 537.886 28.5966C538.784 28.5966 539.642 28.4261 540.46 28.0852C541.29 27.7443 542.04 27.2784 542.71 26.6875C543.392 26.0852 543.955 25.392 544.398 24.608C544.852 23.8125 545.148 22.9773 545.284 22.1023C545.455 21.0341 545.369 20.0739 545.028 19.2216C544.699 18.358 544.153 17.6761 543.392 17.1761C542.631 16.6648 541.699 16.4091 540.597 16.4091ZM567.903 46.767C564.972 46.767 562.568 46.0511 560.693 44.6193C558.818 43.1761 557.54 41.0966 556.858 38.3807C556.188 35.6648 556.17 32.3977 556.807 28.5795C557.455 24.7727 558.562 21.5284 560.131 18.8466C561.71 16.1648 563.665 14.125 565.994 12.7273C568.335 11.3182 570.966 10.6136 573.886 10.6136C576.795 10.6136 579.188 11.3182 581.062 12.7273C582.938 14.1364 584.222 16.1761 584.915 18.8466C585.619 21.517 585.653 24.7614 585.017 28.5795C584.381 32.4091 583.273 35.6818 581.693 38.3977C580.114 41.1023 578.153 43.1761 575.812 44.6193C573.472 46.0511 570.835 46.767 567.903 46.767ZM568.926 40.6477C570.938 40.6477 572.699 39.642 574.21 37.6307C575.722 35.6193 576.813 32.6023 577.483 28.5795C577.926 25.9432 578.023 23.7443 577.773 21.983C577.534 20.2102 576.994 18.8807 576.153 17.9943C575.313 17.108 574.227 16.6648 572.898 16.6648C570.909 16.6648 569.148 17.6648 567.614 19.6648C566.091 21.6534 565 24.625 564.341 28.5795C563.898 31.2614 563.801 33.5 564.051 35.2955C564.301 37.0795 564.847 38.4205 565.688 39.3182C566.528 40.2045 567.608 40.6477 568.926 40.6477ZM600.013 27.608C598.479 27.608 597.075 27.233 595.803 26.483C594.53 25.7216 593.518 24.7102 592.768 23.4489C592.018 22.1761 591.643 20.767 591.643 19.2216C591.643 17.6875 592.018 16.2898 592.768 15.0284C593.518 13.7557 594.53 12.7443 595.803 11.9943C597.075 11.233 598.479 10.8523 600.013 10.8523C601.558 10.8523 602.962 11.233 604.223 11.9943C605.496 12.7443 606.507 13.7557 607.257 15.0284C608.007 16.2898 608.382 17.6875 608.382 19.2216C608.382 20.767 608.007 22.1761 607.257 23.4489C606.507 24.7102 605.496 25.7216 604.223 26.483C602.962 27.233 601.558 27.608 600.013 27.608ZM600.013 22.767C600.672 22.767 601.268 22.608 601.803 22.2898C602.337 21.9716 602.757 21.5455 603.064 21.0114C603.382 20.4773 603.541 19.8807 603.541 19.2216C603.541 18.5739 603.382 17.983 603.064 17.4489C602.757 16.9148 602.337 16.4886 601.803 16.1705C601.268 15.8523 600.672 15.6932 600.013 15.6932C599.365 15.6932 598.774 15.8523 598.24 16.1705C597.706 16.4886 597.28 16.9148 596.962 17.4489C596.643 17.983 596.484 18.5739 596.484 19.2216C596.484 19.8807 596.643 20.4773 596.962 21.0114C597.28 21.5455 597.706 21.9716 598.24 22.2898C598.774 22.608 599.365 22.767 600.013 22.767Z" fill="white"/>
<path d="M465 542H639V455C639 446.716 632.284 440 624 440H480C471.716 440 465 446.716 465 455V542Z" fill="#747474"/>
<circle cx="87" cy="87" r="87" transform="matrix(1 0 0 -1 465 624)" fill="#747474"/>
<rect width="124" height="77" rx="15" transform="matrix(1 0 0 -1 490 542)" fill="#585858"/>
<path d="M497.075 144.726C498.581 146.342 501.112 146.43 502.728 144.924L529.057 120.372C530.672 118.865 530.761 116.334 529.254 114.718C527.748 113.103 525.216 113.014 523.601 114.521L500.197 136.345L478.373 112.942C476.867 111.326 474.336 111.238 472.72 112.744C471.104 114.251 471.016 116.782 472.523 118.398L497.075 144.726ZM496.177 136.862L496.002 141.859L503.998 142.138L504.172 137.141L496.177 136.862Z" fill="white"/>
<path d="M610.087 137C610.087 139.209 611.878 141 614.087 141C616.296 141 618.087 139.209 618.087 137H610.087ZM504.087 137C504.087 117.191 510.852 102.743 520.678 93.2549C530.552 83.7213 543.771 78.9494 557.072 79.0004C570.374 79.0514 583.607 83.9262 593.493 93.4971C603.33 103.021 610.087 117.422 610.087 137H618.087C618.087 115.463 610.594 98.9191 599.057 87.7495C587.568 76.6266 572.3 71.0588 557.103 71.0005C541.904 70.9422 526.623 76.3942 515.121 87.4998C503.572 98.6513 496.087 115.257 496.087 137H504.087Z" fill="white"/>
<path d="M540.852 10.6136C542.693 10.6136 544.415 10.9261 546.017 11.5511C547.631 12.1648 549 13.1534 550.125 14.517C551.25 15.8807 552.017 17.6705 552.426 19.8864C552.847 22.1023 552.784 24.8182 552.239 28.0341C551.739 30.9545 550.977 33.5568 549.955 35.8409C548.943 38.125 547.699 40.0568 546.222 41.6364C544.756 43.2159 543.102 44.4205 541.261 45.25C539.42 46.0682 537.438 46.4773 535.312 46.4773C532.983 46.4773 530.983 46.0284 529.312 45.1307C527.642 44.233 526.369 43.0114 525.494 41.4659C524.631 39.9091 524.239 38.1477 524.318 36.1818H531.443C531.466 37.4886 531.858 38.4773 532.619 39.1477C533.381 39.8182 534.42 40.1534 535.739 40.1534C538.057 40.1534 540.017 39.142 541.619 37.1193C543.222 35.0966 544.33 32.3239 544.943 28.8011L544.67 29.1932C543.977 30.2159 543.136 31.0795 542.148 31.7841C541.17 32.4886 540.102 33.0284 538.943 33.4034C537.784 33.767 536.58 33.9489 535.33 33.9489C533.216 33.9489 531.409 33.4432 529.909 32.4318C528.409 31.4205 527.324 30.0398 526.653 28.2898C525.983 26.5398 525.835 24.5511 526.21 22.3239C526.608 20.0398 527.483 18.017 528.835 16.2557C530.188 14.483 531.898 13.0966 533.966 12.0966C536.034 11.0966 538.33 10.6023 540.852 10.6136ZM540.597 16.4091C539.415 16.4091 538.295 16.6989 537.239 17.2784C536.193 17.8466 535.313 18.625 534.597 19.6136C533.892 20.5909 533.449 21.6932 533.267 22.9205C533.108 23.9886 533.193 24.9545 533.523 25.8182C533.852 26.6818 534.386 27.3636 535.125 27.8636C535.875 28.3523 536.795 28.5966 537.886 28.5966C538.784 28.5966 539.642 28.4261 540.46 28.0852C541.29 27.7443 542.04 27.2784 542.71 26.6875C543.392 26.0852 543.955 25.392 544.398 24.608C544.852 23.8125 545.148 22.9773 545.284 22.1023C545.455 21.0341 545.369 20.0739 545.028 19.2216C544.699 18.358 544.153 17.6761 543.392 17.1761C542.631 16.6648 541.699 16.4091 540.597 16.4091ZM567.903 46.767C564.972 46.767 562.568 46.0511 560.693 44.6193C558.818 43.1761 557.54 41.0966 556.858 38.3807C556.188 35.6648 556.17 32.3977 556.807 28.5795C557.455 24.7727 558.562 21.5284 560.131 18.8466C561.71 16.1648 563.665 14.125 565.994 12.7273C568.335 11.3182 570.966 10.6136 573.886 10.6136C576.795 10.6136 579.188 11.3182 581.062 12.7273C582.938 14.1364 584.222 16.1761 584.915 18.8466C585.619 21.517 585.653 24.7614 585.017 28.5795C584.381 32.4091 583.273 35.6818 581.693 38.3977C580.114 41.1023 578.153 43.1761 575.812 44.6193C573.472 46.0511 570.835 46.767 567.903 46.767ZM568.926 40.6477C570.938 40.6477 572.699 39.642 574.21 37.6307C575.722 35.6193 576.813 32.6023 577.483 28.5795C577.926 25.9432 578.023 23.7443 577.773 21.983C577.534 20.2102 576.994 18.8807 576.153 17.9943C575.313 17.108 574.227 16.6648 572.898 16.6648C570.909 16.6648 569.148 17.6648 567.614 19.6648C566.091 21.6534 565 24.625 564.341 28.5795C563.898 31.2614 563.801 33.5 564.051 35.2955C564.301 37.0795 564.847 38.4205 565.688 39.3182C566.528 40.2045 567.608 40.6477 568.926 40.6477ZM600.013 27.608C598.479 27.608 597.075 27.233 595.803 26.483C594.53 25.7216 593.518 24.7102 592.768 23.4489C592.018 22.1761 591.643 20.767 591.643 19.2216C591.643 17.6875 592.018 16.2898 592.768 15.0284C593.518 13.7557 594.53 12.7443 595.803 11.9943C597.075 11.233 598.479 10.8523 600.013 10.8523C601.558 10.8523 602.962 11.233 604.223 11.9943C605.496 12.7443 606.507 13.7557 607.257 15.0284C608.007 16.2898 608.382 17.6875 608.382 19.2216C608.382 20.767 608.007 22.1761 607.257 23.4489C606.507 24.7102 605.496 25.7216 604.223 26.483C602.962 27.233 601.558 27.608 600.013 27.608ZM600.013 22.767C600.672 22.767 601.268 22.608 601.803 22.2898C602.337 21.9716 602.757 21.5455 603.064 21.0114C603.382 20.4773 603.541 19.8807 603.541 19.2216C603.541 18.5739 603.382 17.983 603.064 17.4489C602.757 16.9148 602.337 16.4886 601.803 16.1705C601.268 15.8523 600.672 15.6932 600.013 15.6932C599.365 15.6932 598.774 15.8523 598.24 16.1705C597.706 16.4886 597.28 16.9148 596.962 17.4489C596.643 17.983 596.484 18.5739 596.484 19.2216C596.484 19.8807 596.643 20.4773 596.962 21.0114C597.28 21.5455 597.706 21.9716 598.24 22.2898C598.774 22.608 599.365 22.767 600.013 22.767Z" fill="white"/>
<path d="M610.087 137C610.087 139.209 611.878 141 614.087 141C616.296 141 618.087 139.209 618.087 137H610.087ZM504.087 137C504.087 117.191 510.852 102.743 520.678 93.2549C530.552 83.7213 543.771 78.9494 557.072 79.0004C570.374 79.0514 583.607 83.9262 593.493 93.4971C603.33 103.021 610.087 117.422 610.087 137H618.087C618.087 115.463 610.594 98.9191 599.057 87.7495C587.568 76.6266 572.3 71.0588 557.103 71.0005C541.904 70.9422 526.623 76.3942 515.121 87.4998C503.572 98.6513 496.087 115.257 496.087 137H504.087Z" fill="white"/>
<path d="M540.852 10.6136C542.693 10.6136 544.415 10.9261 546.017 11.5511C547.631 12.1648 549 13.1534 550.125 14.517C551.25 15.8807 552.017 17.6705 552.426 19.8864C552.847 22.1023 552.784 24.8182 552.239 28.0341C551.739 30.9545 550.977 33.5568 549.955 35.8409C548.943 38.125 547.699 40.0568 546.222 41.6364C544.756 43.2159 543.102 44.4205 541.261 45.25C539.42 46.0682 537.438 46.4773 535.312 46.4773C532.983 46.4773 530.983 46.0284 529.312 45.1307C527.642 44.233 526.369 43.0114 525.494 41.4659C524.631 39.9091 524.239 38.1477 524.318 36.1818H531.443C531.466 37.4886 531.858 38.4773 532.619 39.1477C533.381 39.8182 534.42 40.1534 535.739 40.1534C538.057 40.1534 540.017 39.142 541.619 37.1193C543.222 35.0966 544.33 32.3239 544.943 28.8011L544.67 29.1932C543.977 30.2159 543.136 31.0795 542.148 31.7841C541.17 32.4886 540.102 33.0284 538.943 33.4034C537.784 33.767 536.58 33.9489 535.33 33.9489C533.216 33.9489 531.409 33.4432 529.909 32.4318C528.409 31.4205 527.324 30.0398 526.653 28.2898C525.983 26.5398 525.835 24.5511 526.21 22.3239C526.608 20.0398 527.483 18.017 528.835 16.2557C530.188 14.483 531.898 13.0966 533.966 12.0966C536.034 11.0966 538.33 10.6023 540.852 10.6136ZM540.597 16.4091C539.415 16.4091 538.295 16.6989 537.239 17.2784C536.193 17.8466 535.313 18.625 534.597 19.6136C533.892 20.5909 533.449 21.6932 533.267 22.9205C533.108 23.9886 533.193 24.9545 533.523 25.8182C533.852 26.6818 534.386 27.3636 535.125 27.8636C535.875 28.3523 536.795 28.5966 537.886 28.5966C538.784 28.5966 539.642 28.4261 540.46 28.0852C541.29 27.7443 542.04 27.2784 542.71 26.6875C543.392 26.0852 543.955 25.392 544.398 24.608C544.852 23.8125 545.148 22.9773 545.284 22.1023C545.455 21.0341 545.369 20.0739 545.028 19.2216C544.699 18.358 544.153 17.6761 543.392 17.1761C542.631 16.6648 541.699 16.4091 540.597 16.4091ZM567.903 46.767C564.972 46.767 562.568 46.0511 560.693 44.6193C558.818 43.1761 557.54 41.0966 556.858 38.3807C556.188 35.6648 556.17 32.3977 556.807 28.5795C557.455 24.7727 558.562 21.5284 560.131 18.8466C561.71 16.1648 563.665 14.125 565.994 12.7273C568.335 11.3182 570.966 10.6136 573.886 10.6136C576.795 10.6136 579.188 11.3182 581.062 12.7273C582.938 14.1364 584.222 16.1761 584.915 18.8466C585.619 21.517 585.653 24.7614 585.017 28.5795C584.381 32.4091 583.273 35.6818 581.693 38.3977C580.114 41.1023 578.153 43.1761 575.812 44.6193C573.472 46.0511 570.835 46.767 567.903 46.767ZM568.926 40.6477C570.938 40.6477 572.699 39.642 574.21 37.6307C575.722 35.6193 576.813 32.6023 577.483 28.5795C577.926 25.9432 578.023 23.7443 577.773 21.983C577.534 20.2102 576.994 18.8807 576.153 17.9943C575.313 17.108 574.227 16.6648 572.898 16.6648C570.909 16.6648 569.148 17.6648 567.614 19.6648C566.091 21.6534 565 24.625 564.341 28.5795C563.898 31.2614 563.801 33.5 564.051 35.2955C564.301 37.0795 564.847 38.4205 565.688 39.3182C566.528 40.2045 567.608 40.6477 568.926 40.6477ZM600.013 27.608C598.479 27.608 597.075 27.233 595.803 26.483C594.53 25.7216 593.518 24.7102 592.768 23.4489C592.018 22.1761 591.643 20.767 591.643 19.2216C591.643 17.6875 592.018 16.2898 592.768 15.0284C593.518 13.7557 594.53 12.7443 595.803 11.9943C597.075 11.233 598.479 10.8523 600.013 10.8523C601.558 10.8523 602.962 11.233 604.223 11.9943C605.496 12.7443 606.507 13.7557 607.257 15.0284C608.007 16.2898 608.382 17.6875 608.382 19.2216C608.382 20.767 608.007 22.1761 607.257 23.4489C606.507 24.7102 605.496 25.7216 604.223 26.483C602.962 27.233 601.558 27.608 600.013 27.608ZM600.013 22.767C600.672 22.767 601.268 22.608 601.803 22.2898C602.337 21.9716 602.757 21.5455 603.064 21.0114C603.382 20.4773 603.541 19.8807 603.541 19.2216C603.541 18.5739 603.382 17.983 603.064 17.4489C602.757 16.9148 602.337 16.4886 601.803 16.1705C601.268 15.8523 600.672 15.6932 600.013 15.6932C599.365 15.6932 598.774 15.8523 598.24 16.1705C597.706 16.4886 597.28 16.9148 596.962 17.4489C596.643 17.983 596.484 18.5739 596.484 19.2216C596.484 19.8807 596.643 20.4773 596.962 21.0114C597.28 21.5455 597.706 21.9716 598.24 22.2898C598.774 22.608 599.365 22.767 600.013 22.767Z" fill="white"/>
<path d="M497.075 144.726C498.581 146.342 501.112 146.43 502.728 144.924L529.057 120.372C530.672 118.865 530.761 116.334 529.254 114.718C527.748 113.103 525.216 113.014 523.601 114.521L500.197 136.345L478.373 112.942C476.867 111.326 474.336 111.238 472.72 112.744C471.104 114.251 471.016 116.782 472.523 118.398L497.075 144.726ZM496.177 136.862L496.002 141.859L503.998 142.138L504.172 137.141L496.177 136.862Z" fill="white"/>
<path d="M610.087 137C610.087 139.209 611.878 141 614.087 141C616.296 141 618.087 139.209 618.087 137H610.087ZM504.087 137C504.087 117.191 510.852 102.743 520.678 93.2549C530.552 83.7213 543.771 78.9494 557.072 79.0004C570.374 79.0514 583.607 83.9262 593.493 93.4971C603.33 103.021 610.087 117.422 610.087 137H618.087C618.087 115.463 610.594 98.9191 599.057 87.7495C587.568 76.6266 572.3 71.0588 557.103 71.0005C541.904 70.9422 526.623 76.3942 515.121 87.4998C503.572 98.6513 496.087 115.257 496.087 137H504.087Z" fill="white"/>
<path d="M540.852 10.6136C542.693 10.6136 544.415 10.9261 546.017 11.5511C547.631 12.1648 549 13.1534 550.125 14.517C551.25 15.8807 552.017 17.6705 552.426 19.8864C552.847 22.1023 552.784 24.8182 552.239 28.0341C551.739 30.9545 550.977 33.5568 549.955 35.8409C548.943 38.125 547.699 40.0568 546.222 41.6364C544.756 43.2159 543.102 44.4205 541.261 45.25C539.42 46.0682 537.438 46.4773 535.312 46.4773C532.983 46.4773 530.983 46.0284 529.312 45.1307C527.642 44.233 526.369 43.0114 525.494 41.4659C524.631 39.9091 524.239 38.1477 524.318 36.1818H531.443C531.466 37.4886 531.858 38.4773 532.619 39.1477C533.381 39.8182 534.42 40.1534 535.739 40.1534C538.057 40.1534 540.017 39.142 541.619 37.1193C543.222 35.0966 544.33 32.3239 544.943 28.8011L544.67 29.1932C543.977 30.2159 543.136 31.0795 542.148 31.7841C541.17 32.4886 540.102 33.0284 538.943 33.4034C537.784 33.767 536.58 33.9489 535.33 33.9489C533.216 33.9489 531.409 33.4432 529.909 32.4318C528.409 31.4205 527.324 30.0398 526.653 28.2898C525.983 26.5398 525.835 24.5511 526.21 22.3239C526.608 20.0398 527.483 18.017 528.835 16.2557C530.188 14.483 531.898 13.0966 533.966 12.0966C536.034 11.0966 538.33 10.6023 540.852 10.6136ZM540.597 16.4091C539.415 16.4091 538.295 16.6989 537.239 17.2784C536.193 17.8466 535.313 18.625 534.597 19.6136C533.892 20.5909 533.449 21.6932 533.267 22.9205C533.108 23.9886 533.193 24.9545 533.523 25.8182C533.852 26.6818 534.386 27.3636 535.125 27.8636C535.875 28.3523 536.795 28.5966 537.886 28.5966C538.784 28.5966 539.642 28.4261 540.46 28.0852C541.29 27.7443 542.04 27.2784 542.71 26.6875C543.392 26.0852 543.955 25.392 544.398 24.608C544.852 23.8125 545.148 22.9773 545.284 22.1023C545.455 21.0341 545.369 20.0739 545.028 19.2216C544.699 18.358 544.153 17.6761 543.392 17.1761C542.631 16.6648 541.699 16.4091 540.597 16.4091ZM567.903 46.767C564.972 46.767 562.568 46.0511 560.693 44.6193C558.818 43.1761 557.54 41.0966 556.858 38.3807C556.188 35.6648 556.17 32.3977 556.807 28.5795C557.455 24.7727 558.562 21.5284 560.131 18.8466C561.71 16.1648 563.665 14.125 565.994 12.7273C568.335 11.3182 570.966 10.6136 573.886 10.6136C576.795 10.6136 579.188 11.3182 581.062 12.7273C582.938 14.1364 584.222 16.1761 584.915 18.8466C585.619 21.517 585.653 24.7614 585.017 28.5795C584.381 32.4091 583.273 35.6818 581.693 38.3977C580.114 41.1023 578.153 43.1761 575.812 44.6193C573.472 46.0511 570.835 46.767 567.903 46.767ZM568.926 40.6477C570.938 40.6477 572.699 39.642 574.21 37.6307C575.722 35.6193 576.813 32.6023 577.483 28.5795C577.926 25.9432 578.023 23.7443 577.773 21.983C577.534 20.2102 576.994 18.8807 576.153 17.9943C575.313 17.108 574.227 16.6648 572.898 16.6648C570.909 16.6648 569.148 17.6648 567.614 19.6648C566.091 21.6534 565 24.625 564.341 28.5795C563.898 31.2614 563.801 33.5 564.051 35.2955C564.301 37.0795 564.847 38.4205 565.688 39.3182C566.528 40.2045 567.608 40.6477 568.926 40.6477ZM600.013 27.608C598.479 27.608 597.075 27.233 595.803 26.483C594.53 25.7216 593.518 24.7102 592.768 23.4489C592.018 22.1761 591.643 20.767 591.643 19.2216C591.643 17.6875 592.018 16.2898 592.768 15.0284C593.518 13.7557 594.53 12.7443 595.803 11.9943C597.075 11.233 598.479 10.8523 600.013 10.8523C601.558 10.8523 602.962 11.233 604.223 11.9943C605.496 12.7443 606.507 13.7557 607.257 15.0284C608.007 16.2898 608.382 17.6875 608.382 19.2216C608.382 20.767 608.007 22.1761 607.257 23.4489C606.507 24.7102 605.496 25.7216 604.223 26.483C602.962 27.233 601.558 27.608 600.013 27.608ZM600.013 22.767C600.672 22.767 601.268 22.608 601.803 22.2898C602.337 21.9716 602.757 21.5455 603.064 21.0114C603.382 20.4773 603.541 19.8807 603.541 19.2216C603.541 18.5739 603.382 17.983 603.064 17.4489C602.757 16.9148 602.337 16.4886 601.803 16.1705C601.268 15.8523 600.672 15.6932 600.013 15.6932C599.365 15.6932 598.774 15.8523 598.24 16.1705C597.706 16.4886 597.28 16.9148 596.962 17.4489C596.643 17.983 596.484 18.5739 596.484 19.2216C596.484 19.8807 596.643 20.4773 596.962 21.0114C597.28 21.5455 597.706 21.9716 598.24 22.2898C598.774 22.608 599.365 22.767 600.013 22.767Z" fill="white"/>
<path d="M610.087 137C610.087 139.209 611.878 141 614.087 141C616.296 141 618.087 139.209 618.087 137H610.087ZM504.087 137C504.087 117.191 510.852 102.743 520.678 93.2549C530.552 83.7213 543.771 78.9494 557.072 79.0004C570.374 79.0514 583.607 83.9262 593.493 93.4971C603.33 103.021 610.087 117.422 610.087 137H618.087C618.087 115.463 610.594 98.9191 599.057 87.7495C587.568 76.6266 572.3 71.0588 557.103 71.0005C541.904 70.9422 526.623 76.3942 515.121 87.4998C503.572 98.6513 496.087 115.257 496.087 137H504.087Z" fill="white"/>
<path d="M69.8523 10.6136C71.6932 10.6136 73.4148 10.9261 75.017 11.5511C76.6307 12.1648 78 13.1534 79.125 14.517C80.25 15.8807 81.017 17.6705 81.4261 19.8864C81.8466 22.1023 81.7841 24.8182 81.2386 28.0341C80.7386 30.9545 79.9773 33.5568 78.9545 35.8409C77.9432 38.125 76.6989 40.0568 75.2216 41.6364C73.7557 43.2159 72.1023 44.4205 70.2614 45.25C68.4205 46.0682 66.4375 46.4773 64.3125 46.4773C61.983 46.4773 59.983 46.0284 58.3125 45.1307C56.642 44.233 55.3693 43.0114 54.4943 41.4659C53.6307 39.9091 53.2386 38.1477 53.3182 36.1818H60.4432C60.4659 37.4886 60.858 38.4773 61.6193 39.1477C62.3807 39.8182 63.4205 40.1534 64.7386 40.1534C67.0568 40.1534 69.017 39.142 70.6193 37.1193C72.2216 35.0966 73.3295 32.3239 73.9432 28.8011L73.6705 29.1932C72.9773 30.2159 72.1364 31.0795 71.1477 31.7841C70.1705 32.4886 69.1023 33.0284 67.9432 33.4034C66.7841 33.767 65.5795 33.9489 64.3295 33.9489C62.2159 33.9489 60.4091 33.4432 58.9091 32.4318C57.4091 31.4205 56.3239 30.0398 55.6534 28.2898C54.983 26.5398 54.8352 24.5511 55.2102 22.3239C55.608 20.0398 56.483 18.017 57.8352 16.2557C59.1875 14.483 60.8977 13.0966 62.9659 12.0966C65.0341 11.0966 67.3295 10.6023 69.8523 10.6136ZM69.5966 16.4091C68.4148 16.4091 67.2955 16.6989 66.2386 17.2784C65.1932 17.8466 64.3125 18.625 63.5966 19.6136C62.892 20.5909 62.4489 21.6932 62.267 22.9205C62.108 23.9886 62.1932 24.9545 62.5227 25.8182C62.8523 26.6818 63.3864 27.3636 64.125 27.8636C64.875 28.3523 65.7955 28.5966 66.8864 28.5966C67.7841 28.5966 68.642 28.4261 69.4602 28.0852C70.2898 27.7443 71.0398 27.2784 71.7102 26.6875C72.392 26.0852 72.9545 25.392 73.3977 24.608C73.8523 23.8125 74.1477 22.9773 74.2841 22.1023C74.4545 21.0341 74.3693 20.0739 74.0284 19.2216C73.6989 18.358 73.1534 17.6761 72.392 17.1761C71.6307 16.6648 70.6989 16.4091 69.5966 16.4091ZM96.9034 46.767C93.9716 46.767 91.5682 46.0511 89.6932 44.6193C87.8182 43.1761 86.5398 41.0966 85.858 38.3807C85.1875 35.6648 85.1705 32.3977 85.8068 28.5795C86.4545 24.7727 87.5625 21.5284 89.1307 18.8466C90.7102 16.1648 92.6648 14.125 94.9943 12.7273C97.3352 11.3182 99.9659 10.6136 102.886 10.6136C105.795 10.6136 108.188 11.3182 110.062 12.7273C111.938 14.1364 113.222 16.1761 113.915 18.8466C114.619 21.517 114.653 24.7614 114.017 28.5795C113.381 32.4091 112.273 35.6818 110.693 38.3977C109.114 41.1023 107.153 43.1761 104.812 44.6193C102.472 46.0511 99.8352 46.767 96.9034 46.767ZM97.9261 40.6477C99.9375 40.6477 101.699 39.642 103.21 37.6307C104.722 35.6193 105.813 32.6023 106.483 28.5795C106.926 25.9432 107.023 23.7443 106.773 21.983C106.534 20.2102 105.994 18.8807 105.153 17.9943C104.313 17.108 103.227 16.6648 101.898 16.6648C99.9091 16.6648 98.1477 17.6648 96.6136 19.6648C95.0909 21.6534 94 24.625 93.3409 28.5795C92.8977 31.2614 92.8011 33.5 93.0511 35.2955C93.3011 37.0795 93.8466 38.4205 94.6875 39.3182C95.5284 40.2045 96.608 40.6477 97.9261 40.6477ZM129.013 27.608C127.479 27.608 126.075 27.233 124.803 26.483C123.53 25.7216 122.518 24.7102 121.768 23.4489C121.018 22.1761 120.643 20.767 120.643 19.2216C120.643 17.6875 121.018 16.2898 121.768 15.0284C122.518 13.7557 123.53 12.7443 124.803 11.9943C126.075 11.233 127.479 10.8523 129.013 10.8523C130.558 10.8523 131.962 11.233 133.223 11.9943C134.496 12.7443 135.507 13.7557 136.257 15.0284C137.007 16.2898 137.382 17.6875 137.382 19.2216C137.382 20.767 137.007 22.1761 136.257 23.4489C135.507 24.7102 134.496 25.7216 133.223 26.483C131.962 27.233 130.558 27.608 129.013 27.608ZM129.013 22.767C129.672 22.767 130.268 22.608 130.803 22.2898C131.337 21.9716 131.757 21.5455 132.064 21.0114C132.382 20.4773 132.541 19.8807 132.541 19.2216C132.541 18.5739 132.382 17.983 132.064 17.4489C131.757 16.9148 131.337 16.4886 130.803 16.1705C130.268 15.8523 129.672 15.6932 129.013 15.6932C128.365 15.6932 127.774 15.8523 127.24 16.1705C126.706 16.4886 126.28 16.9148 125.962 17.4489C125.643 17.983 125.484 18.5739 125.484 19.2216C125.484 19.8807 125.643 20.4773 125.962 21.0114C126.28 21.5455 126.706 21.9716 127.24 22.2898C127.774 22.608 128.365 22.767 129.013 22.767Z" fill="white"/>
<path d="M26.0746 144.726C27.5812 146.342 30.1123 146.43 31.728 144.924L58.0567 120.372C59.6724 118.865 59.7608 116.334 58.2541 114.718C56.7475 113.103 54.2164 113.014 52.6007 114.521L29.1974 136.345L7.37347 112.942C5.86684 111.326 3.33572 111.238 1.72006 112.744C0.104395 114.251 0.0160069 116.782 1.52264 118.398L26.0746 144.726ZM25.1769 136.862L25.0024 141.859L32.9976 142.138L33.1721 137.141L25.1769 136.862Z" fill="white"/>
<path d="M139.087 137C139.087 139.209 140.878 141 143.087 141C145.296 141 147.087 139.209 147.087 137H139.087ZM33.0873 137C33.0873 117.191 39.8523 102.743 49.6782 93.2549C59.5517 83.7213 72.7706 78.9494 86.0719 79.0004C99.3743 79.0514 112.607 83.9262 122.493 93.4971C132.33 103.021 139.087 117.422 139.087 137H147.087C147.087 115.463 139.594 98.9191 128.057 87.7495C116.568 76.6266 101.3 71.0588 86.1026 71.0005C70.904 70.9422 55.6229 76.3942 44.1213 87.4998C32.5723 98.6513 25.0873 115.257 25.0873 137H33.0873Z" fill="white"/>
<path d="M69.8523 10.6136C71.6932 10.6136 73.4148 10.9261 75.017 11.5511C76.6307 12.1648 78 13.1534 79.125 14.517C80.25 15.8807 81.017 17.6705 81.4261 19.8864C81.8466 22.1023 81.7841 24.8182 81.2386 28.0341C80.7386 30.9545 79.9773 33.5568 78.9545 35.8409C77.9432 38.125 76.6989 40.0568 75.2216 41.6364C73.7557 43.2159 72.1023 44.4205 70.2614 45.25C68.4205 46.0682 66.4375 46.4773 64.3125 46.4773C61.983 46.4773 59.983 46.0284 58.3125 45.1307C56.642 44.233 55.3693 43.0114 54.4943 41.4659C53.6307 39.9091 53.2386 38.1477 53.3182 36.1818H60.4432C60.4659 37.4886 60.858 38.4773 61.6193 39.1477C62.3807 39.8182 63.4205 40.1534 64.7386 40.1534C67.0568 40.1534 69.017 39.142 70.6193 37.1193C72.2216 35.0966 73.3295 32.3239 73.9432 28.8011L73.6705 29.1932C72.9773 30.2159 72.1364 31.0795 71.1477 31.7841C70.1705 32.4886 69.1023 33.0284 67.9432 33.4034C66.7841 33.767 65.5795 33.9489 64.3295 33.9489C62.2159 33.9489 60.4091 33.4432 58.9091 32.4318C57.4091 31.4205 56.3239 30.0398 55.6534 28.2898C54.983 26.5398 54.8352 24.5511 55.2102 22.3239C55.608 20.0398 56.483 18.017 57.8352 16.2557C59.1875 14.483 60.8977 13.0966 62.9659 12.0966C65.0341 11.0966 67.3295 10.6023 69.8523 10.6136ZM69.5966 16.4091C68.4148 16.4091 67.2955 16.6989 66.2386 17.2784C65.1932 17.8466 64.3125 18.625 63.5966 19.6136C62.892 20.5909 62.4489 21.6932 62.267 22.9205C62.108 23.9886 62.1932 24.9545 62.5227 25.8182C62.8523 26.6818 63.3864 27.3636 64.125 27.8636C64.875 28.3523 65.7955 28.5966 66.8864 28.5966C67.7841 28.5966 68.642 28.4261 69.4602 28.0852C70.2898 27.7443 71.0398 27.2784 71.7102 26.6875C72.392 26.0852 72.9545 25.392 73.3977 24.608C73.8523 23.8125 74.1477 22.9773 74.2841 22.1023C74.4545 21.0341 74.3693 20.0739 74.0284 19.2216C73.6989 18.358 73.1534 17.6761 72.392 17.1761C71.6307 16.6648 70.6989 16.4091 69.5966 16.4091ZM96.9034 46.767C93.9716 46.767 91.5682 46.0511 89.6932 44.6193C87.8182 43.1761 86.5398 41.0966 85.858 38.3807C85.1875 35.6648 85.1705 32.3977 85.8068 28.5795C86.4545 24.7727 87.5625 21.5284 89.1307 18.8466C90.7102 16.1648 92.6648 14.125 94.9943 12.7273C97.3352 11.3182 99.9659 10.6136 102.886 10.6136C105.795 10.6136 108.188 11.3182 110.062 12.7273C111.938 14.1364 113.222 16.1761 113.915 18.8466C114.619 21.517 114.653 24.7614 114.017 28.5795C113.381 32.4091 112.273 35.6818 110.693 38.3977C109.114 41.1023 107.153 43.1761 104.812 44.6193C102.472 46.0511 99.8352 46.767 96.9034 46.767ZM97.9261 40.6477C99.9375 40.6477 101.699 39.642 103.21 37.6307C104.722 35.6193 105.813 32.6023 106.483 28.5795C106.926 25.9432 107.023 23.7443 106.773 21.983C106.534 20.2102 105.994 18.8807 105.153 17.9943C104.313 17.108 103.227 16.6648 101.898 16.6648C99.9091 16.6648 98.1477 17.6648 96.6136 19.6648C95.0909 21.6534 94 24.625 93.3409 28.5795C92.8977 31.2614 92.8011 33.5 93.0511 35.2955C93.3011 37.0795 93.8466 38.4205 94.6875 39.3182C95.5284 40.2045 96.608 40.6477 97.9261 40.6477ZM129.013 27.608C127.479 27.608 126.075 27.233 124.803 26.483C123.53 25.7216 122.518 24.7102 121.768 23.4489C121.018 22.1761 120.643 20.767 120.643 19.2216C120.643 17.6875 121.018 16.2898 121.768 15.0284C122.518 13.7557 123.53 12.7443 124.803 11.9943C126.075 11.233 127.479 10.8523 129.013 10.8523C130.558 10.8523 131.962 11.233 133.223 11.9943C134.496 12.7443 135.507 13.7557 136.257 15.0284C137.007 16.2898 137.382 17.6875 137.382 19.2216C137.382 20.767 137.007 22.1761 136.257 23.4489C135.507 24.7102 134.496 25.7216 133.223 26.483C131.962 27.233 130.558 27.608 129.013 27.608ZM129.013 22.767C129.672 22.767 130.268 22.608 130.803 22.2898C131.337 21.9716 131.757 21.5455 132.064 21.0114C132.382 20.4773 132.541 19.8807 132.541 19.2216C132.541 18.5739 132.382 17.983 132.064 17.4489C131.757 16.9148 131.337 16.4886 130.803 16.1705C130.268 15.8523 129.672 15.6932 129.013 15.6932C128.365 15.6932 127.774 15.8523 127.24 16.1705C126.706 16.4886 126.28 16.9148 125.962 17.4489C125.643 17.983 125.484 18.5739 125.484 19.2216C125.484 19.8807 125.643 20.4773 125.962 21.0114C126.28 21.5455 126.706 21.9716 127.24 22.2898C127.774 22.608 128.365 22.767 129.013 22.767Z" fill="white"/>
<path d="M139.087 137C139.087 139.209 140.878 141 143.087 141C145.296 141 147.087 139.209 147.087 137H139.087ZM33.0873 137C33.0873 117.191 39.8523 102.743 49.6782 93.2549C59.5517 83.7213 72.7706 78.9494 86.0719 79.0004C99.3743 79.0514 112.607 83.9262 122.493 93.4971C132.33 103.021 139.087 117.422 139.087 137H147.087C147.087 115.463 139.594 98.9191 128.057 87.7495C116.568 76.6266 101.3 71.0588 86.1026 71.0005C70.904 70.9422 55.6229 76.3942 44.1213 87.4998C32.5723 98.6513 25.0873 115.257 25.0873 137H33.0873Z" fill="white"/>
<path d="M69.8523 10.6136C71.6932 10.6136 73.4148 10.9261 75.017 11.5511C76.6307 12.1648 78 13.1534 79.125 14.517C80.25 15.8807 81.017 17.6705 81.4261 19.8864C81.8466 22.1023 81.7841 24.8182 81.2386 28.0341C80.7386 30.9545 79.9773 33.5568 78.9545 35.8409C77.9432 38.125 76.6989 40.0568 75.2216 41.6364C73.7557 43.2159 72.1023 44.4205 70.2614 45.25C68.4205 46.0682 66.4375 46.4773 64.3125 46.4773C61.983 46.4773 59.983 46.0284 58.3125 45.1307C56.642 44.233 55.3693 43.0114 54.4943 41.4659C53.6307 39.9091 53.2386 38.1477 53.3182 36.1818H60.4432C60.4659 37.4886 60.858 38.4773 61.6193 39.1477C62.3807 39.8182 63.4205 40.1534 64.7386 40.1534C67.0568 40.1534 69.017 39.142 70.6193 37.1193C72.2216 35.0966 73.3295 32.3239 73.9432 28.8011L73.6705 29.1932C72.9773 30.2159 72.1364 31.0795 71.1477 31.7841C70.1705 32.4886 69.1023 33.0284 67.9432 33.4034C66.7841 33.767 65.5795 33.9489 64.3295 33.9489C62.2159 33.9489 60.4091 33.4432 58.9091 32.4318C57.4091 31.4205 56.3239 30.0398 55.6534 28.2898C54.983 26.5398 54.8352 24.5511 55.2102 22.3239C55.608 20.0398 56.483 18.017 57.8352 16.2557C59.1875 14.483 60.8977 13.0966 62.9659 12.0966C65.0341 11.0966 67.3295 10.6023 69.8523 10.6136ZM69.5966 16.4091C68.4148 16.4091 67.2955 16.6989 66.2386 17.2784C65.1932 17.8466 64.3125 18.625 63.5966 19.6136C62.892 20.5909 62.4489 21.6932 62.267 22.9205C62.108 23.9886 62.1932 24.9545 62.5227 25.8182C62.8523 26.6818 63.3864 27.3636 64.125 27.8636C64.875 28.3523 65.7955 28.5966 66.8864 28.5966C67.7841 28.5966 68.642 28.4261 69.4602 28.0852C70.2898 27.7443 71.0398 27.2784 71.7102 26.6875C72.392 26.0852 72.9545 25.392 73.3977 24.608C73.8523 23.8125 74.1477 22.9773 74.2841 22.1023C74.4545 21.0341 74.3693 20.0739 74.0284 19.2216C73.6989 18.358 73.1534 17.6761 72.392 17.1761C71.6307 16.6648 70.6989 16.4091 69.5966 16.4091ZM96.9034 46.767C93.9716 46.767 91.5682 46.0511 89.6932 44.6193C87.8182 43.1761 86.5398 41.0966 85.858 38.3807C85.1875 35.6648 85.1705 32.3977 85.8068 28.5795C86.4545 24.7727 87.5625 21.5284 89.1307 18.8466C90.7102 16.1648 92.6648 14.125 94.9943 12.7273C97.3352 11.3182 99.9659 10.6136 102.886 10.6136C105.795 10.6136 108.188 11.3182 110.062 12.7273C111.938 14.1364 113.222 16.1761 113.915 18.8466C114.619 21.517 114.653 24.7614 114.017 28.5795C113.381 32.4091 112.273 35.6818 110.693 38.3977C109.114 41.1023 107.153 43.1761 104.812 44.6193C102.472 46.0511 99.8352 46.767 96.9034 46.767ZM97.9261 40.6477C99.9375 40.6477 101.699 39.642 103.21 37.6307C104.722 35.6193 105.813 32.6023 106.483 28.5795C106.926 25.9432 107.023 23.7443 106.773 21.983C106.534 20.2102 105.994 18.8807 105.153 17.9943C104.313 17.108 103.227 16.6648 101.898 16.6648C99.9091 16.6648 98.1477 17.6648 96.6136 19.6648C95.0909 21.6534 94 24.625 93.3409 28.5795C92.8977 31.2614 92.8011 33.5 93.0511 35.2955C93.3011 37.0795 93.8466 38.4205 94.6875 39.3182C95.5284 40.2045 96.608 40.6477 97.9261 40.6477ZM129.013 27.608C127.479 27.608 126.075 27.233 124.803 26.483C123.53 25.7216 122.518 24.7102 121.768 23.4489C121.018 22.1761 120.643 20.767 120.643 19.2216C120.643 17.6875 121.018 16.2898 121.768 15.0284C122.518 13.7557 123.53 12.7443 124.803 11.9943C126.075 11.233 127.479 10.8523 129.013 10.8523C130.558 10.8523 131.962 11.233 133.223 11.9943C134.496 12.7443 135.507 13.7557 136.257 15.0284C137.007 16.2898 137.382 17.6875 137.382 19.2216C137.382 20.767 137.007 22.1761 136.257 23.4489C135.507 24.7102 134.496 25.7216 133.223 26.483C131.962 27.233 130.558 27.608 129.013 27.608ZM129.013 22.767C129.672 22.767 130.268 22.608 130.803 22.2898C131.337 21.9716 131.757 21.5455 132.064 21.0114C132.382 20.4773 132.541 19.8807 132.541 19.2216C132.541 18.5739 132.382 17.983 132.064 17.4489C131.757 16.9148 131.337 16.4886 130.803 16.1705C130.268 15.8523 129.672 15.6932 129.013 15.6932C128.365 15.6932 127.774 15.8523 127.24 16.1705C126.706 16.4886 126.28 16.9148 125.962 17.4489C125.643 17.983 125.484 18.5739 125.484 19.2216C125.484 19.8807 125.643 20.4773 125.962 21.0114C126.28 21.5455 126.706 21.9716 127.24 22.2898C127.774 22.608 128.365 22.767 129.013 22.767Z" fill="white"/>
<path d="M139.087 137C139.087 139.209 140.878 141 143.087 141C145.296 141 147.087 139.209 147.087 137H139.087ZM33.0873 137C33.0873 117.191 39.8523 102.743 49.6782 93.2549C59.5517 83.7213 72.7706 78.9494 86.0719 79.0004C99.3743 79.0514 112.607 83.9262 122.493 93.4971C132.33 103.021 139.087 117.422 139.087 137H147.087C147.087 115.463 139.594 98.9191 128.057 87.7495C116.568 76.6266 101.3 71.0588 86.1026 71.0005C70.904 70.9422 55.6229 76.3942 44.1213 87.4998C32.5723 98.6513 25.0873 115.257 25.0873 137H33.0873Z" fill="white"/>
<path d="M69.8523 10.6136C71.6932 10.6136 73.4148 10.9261 75.017 11.5511C76.6307 12.1648 78 13.1534 79.125 14.517C80.25 15.8807 81.017 17.6705 81.4261 19.8864C81.8466 22.1023 81.7841 24.8182 81.2386 28.0341C80.7386 30.9545 79.9773 33.5568 78.9545 35.8409C77.9432 38.125 76.6989 40.0568 75.2216 41.6364C73.7557 43.2159 72.1023 44.4205 70.2614 45.25C68.4205 46.0682 66.4375 46.4773 64.3125 46.4773C61.983 46.4773 59.983 46.0284 58.3125 45.1307C56.642 44.233 55.3693 43.0114 54.4943 41.4659C53.6307 39.9091 53.2386 38.1477 53.3182 36.1818H60.4432C60.4659 37.4886 60.858 38.4773 61.6193 39.1477C62.3807 39.8182 63.4205 40.1534 64.7386 40.1534C67.0568 40.1534 69.017 39.142 70.6193 37.1193C72.2216 35.0966 73.3295 32.3239 73.9432 28.8011L73.6705 29.1932C72.9773 30.2159 72.1364 31.0795 71.1477 31.7841C70.1705 32.4886 69.1023 33.0284 67.9432 33.4034C66.7841 33.767 65.5795 33.9489 64.3295 33.9489C62.2159 33.9489 60.4091 33.4432 58.9091 32.4318C57.4091 31.4205 56.3239 30.0398 55.6534 28.2898C54.983 26.5398 54.8352 24.5511 55.2102 22.3239C55.608 20.0398 56.483 18.017 57.8352 16.2557C59.1875 14.483 60.8977 13.0966 62.9659 12.0966C65.0341 11.0966 67.3295 10.6023 69.8523 10.6136ZM69.5966 16.4091C68.4148 16.4091 67.2955 16.6989 66.2386 17.2784C65.1932 17.8466 64.3125 18.625 63.5966 19.6136C62.892 20.5909 62.4489 21.6932 62.267 22.9205C62.108 23.9886 62.1932 24.9545 62.5227 25.8182C62.8523 26.6818 63.3864 27.3636 64.125 27.8636C64.875 28.3523 65.7955 28.5966 66.8864 28.5966C67.7841 28.5966 68.642 28.4261 69.4602 28.0852C70.2898 27.7443 71.0398 27.2784 71.7102 26.6875C72.392 26.0852 72.9545 25.392 73.3977 24.608C73.8523 23.8125 74.1477 22.9773 74.2841 22.1023C74.4545 21.0341 74.3693 20.0739 74.0284 19.2216C73.6989 18.358 73.1534 17.6761 72.392 17.1761C71.6307 16.6648 70.6989 16.4091 69.5966 16.4091ZM96.9034 46.767C93.9716 46.767 91.5682 46.0511 89.6932 44.6193C87.8182 43.1761 86.5398 41.0966 85.858 38.3807C85.1875 35.6648 85.1705 32.3977 85.8068 28.5795C86.4545 24.7727 87.5625 21.5284 89.1307 18.8466C90.7102 16.1648 92.6648 14.125 94.9943 12.7273C97.3352 11.3182 99.9659 10.6136 102.886 10.6136C105.795 10.6136 108.188 11.3182 110.062 12.7273C111.938 14.1364 113.222 16.1761 113.915 18.8466C114.619 21.517 114.653 24.7614 114.017 28.5795C113.381 32.4091 112.273 35.6818 110.693 38.3977C109.114 41.1023 107.153 43.1761 104.812 44.6193C102.472 46.0511 99.8352 46.767 96.9034 46.767ZM97.9261 40.6477C99.9375 40.6477 101.699 39.642 103.21 37.6307C104.722 35.6193 105.813 32.6023 106.483 28.5795C106.926 25.9432 107.023 23.7443 106.773 21.983C106.534 20.2102 105.994 18.8807 105.153 17.9943C104.313 17.108 103.227 16.6648 101.898 16.6648C99.9091 16.6648 98.1477 17.6648 96.6136 19.6648C95.0909 21.6534 94 24.625 93.3409 28.5795C92.8977 31.2614 92.8011 33.5 93.0511 35.2955C93.3011 37.0795 93.8466 38.4205 94.6875 39.3182C95.5284 40.2045 96.608 40.6477 97.9261 40.6477ZM129.013 27.608C127.479 27.608 126.075 27.233 124.803 26.483C123.53 25.7216 122.518 24.7102 121.768 23.4489C121.018 22.1761 120.643 20.767 120.643 19.2216C120.643 17.6875 121.018 16.2898 121.768 15.0284C122.518 13.7557 123.53 12.7443 124.803 11.9943C126.075 11.233 127.479 10.8523 129.013 10.8523C130.558 10.8523 131.962 11.233 133.223 11.9943C134.496 12.7443 135.507 13.7557 136.257 15.0284C137.007 16.2898 137.382 17.6875 137.382 19.2216C137.382 20.767 137.007 22.1761 136.257 23.4489C135.507 24.7102 134.496 25.7216 133.223 26.483C131.962 27.233 130.558 27.608 129.013 27.608ZM129.013 22.767C129.672 22.767 130.268 22.608 130.803 22.2898C131.337 21.9716 131.757 21.5455 132.064 21.0114C132.382 20.4773 132.541 19.8807 132.541 19.2216C132.541 18.5739 132.382 17.983 132.064 17.4489C131.757 16.9148 131.337 16.4886 130.803 16.1705C130.268 15.8523 129.672 15.6932 129.013 15.6932C128.365 15.6932 127.774 15.8523 127.24 16.1705C126.706 16.4886 126.28 16.9148 125.962 17.4489C125.643 17.983 125.484 18.5739 125.484 19.2216C125.484 19.8807 125.643 20.4773 125.962 21.0114C126.28 21.5455 126.706 21.9716 127.24 22.2898C127.774 22.608 128.365 22.767 129.013 22.767Z" fill="white"/>
<path d="M139.087 137C139.087 139.209 140.878 141 143.087 141C145.296 141 147.087 139.209 147.087 137H139.087ZM33.0873 137C33.0873 117.191 39.8523 102.743 49.6782 93.2549C59.5517 83.7213 72.7706 78.9494 86.0719 79.0004C99.3743 79.0514 112.607 83.9262 122.493 93.4971C132.33 103.021 139.087 117.422 139.087 137H147.087C147.087 115.463 139.594 98.9191 128.057 87.7495C116.568 76.6266 101.3 71.0588 86.1026 71.0005C70.904 70.9422 55.6229 76.3942 44.1213 87.4998C32.5723 98.6513 25.0873 115.257 25.0873 137H33.0873Z" fill="white"/>
<path d="M69.8523 424.614C71.6932 424.614 73.4148 424.926 75.017 425.551C76.6307 426.165 78 427.153 79.125 428.517C80.25 429.881 81.017 431.67 81.4261 433.886C81.8466 436.102 81.7841 438.818 81.2386 442.034C80.7386 444.955 79.9773 447.557 78.9545 449.841C77.9432 452.125 76.6989 454.057 75.2216 455.636C73.7557 457.216 72.1023 458.42 70.2614 459.25C68.4205 460.068 66.4375 460.477 64.3125 460.477C61.983 460.477 59.983 460.028 58.3125 459.131C56.642 458.233 55.3693 457.011 54.4943 455.466C53.6307 453.909 53.2386 452.148 53.3182 450.182H60.4432C60.4659 451.489 60.858 452.477 61.6193 453.148C62.3807 453.818 63.4205 454.153 64.7386 454.153C67.0568 454.153 69.017 453.142 70.6193 451.119C72.2216 449.097 73.3295 446.324 73.9432 442.801L73.6705 443.193C72.9773 444.216 72.1364 445.08 71.1477 445.784C70.1705 446.489 69.1023 447.028 67.9432 447.403C66.7841 447.767 65.5795 447.949 64.3295 447.949C62.2159 447.949 60.4091 447.443 58.9091 446.432C57.4091 445.42 56.3239 444.04 55.6534 442.29C54.983 440.54 54.8352 438.551 55.2102 436.324C55.608 434.04 56.483 432.017 57.8352 430.256C59.1875 428.483 60.8977 427.097 62.9659 426.097C65.0341 425.097 67.3295 424.602 69.8523 424.614ZM69.5966 430.409C68.4148 430.409 67.2955 430.699 66.2386 431.278C65.1932 431.847 64.3125 432.625 63.5966 433.614C62.892 434.591 62.4489 435.693 62.267 436.92C62.108 437.989 62.1932 438.955 62.5227 439.818C62.8523 440.682 63.3864 441.364 64.125 441.864C64.875 442.352 65.7955 442.597 66.8864 442.597C67.7841 442.597 68.642 442.426 69.4602 442.085C70.2898 441.744 71.0398 441.278 71.7102 440.688C72.392 440.085 72.9545 439.392 73.3977 438.608C73.8523 437.812 74.1477 436.977 74.2841 436.102C74.4545 435.034 74.3693 434.074 74.0284 433.222C73.6989 432.358 73.1534 431.676 72.392 431.176C71.6307 430.665 70.6989 430.409 69.5966 430.409ZM96.9034 460.767C93.9716 460.767 91.5682 460.051 89.6932 458.619C87.8182 457.176 86.5398 455.097 85.858 452.381C85.1875 449.665 85.1705 446.398 85.8068 442.58C86.4545 438.773 87.5625 435.528 89.1307 432.847C90.7102 430.165 92.6648 428.125 94.9943 426.727C97.3352 425.318 99.9659 424.614 102.886 424.614C105.795 424.614 108.188 425.318 110.062 426.727C111.938 428.136 113.222 430.176 113.915 432.847C114.619 435.517 114.653 438.761 114.017 442.58C113.381 446.409 112.273 449.682 110.693 452.398C109.114 455.102 107.153 457.176 104.812 458.619C102.472 460.051 99.8352 460.767 96.9034 460.767ZM97.9261 454.648C99.9375 454.648 101.699 453.642 103.21 451.631C104.722 449.619 105.813 446.602 106.483 442.58C106.926 439.943 107.023 437.744 106.773 435.983C106.534 434.21 105.994 432.881 105.153 431.994C104.313 431.108 103.227 430.665 101.898 430.665C99.9091 430.665 98.1477 431.665 96.6136 433.665C95.0909 435.653 94 438.625 93.3409 442.58C92.8977 445.261 92.8011 447.5 93.0511 449.295C93.3011 451.08 93.8466 452.42 94.6875 453.318C95.5284 454.205 96.608 454.648 97.9261 454.648ZM129.013 441.608C127.479 441.608 126.075 441.233 124.803 440.483C123.53 439.722 122.518 438.71 121.768 437.449C121.018 436.176 120.643 434.767 120.643 433.222C120.643 431.687 121.018 430.29 121.768 429.028C122.518 427.756 123.53 426.744 124.803 425.994C126.075 425.233 127.479 424.852 129.013 424.852C130.558 424.852 131.962 425.233 133.223 425.994C134.496 426.744 135.507 427.756 136.257 429.028C137.007 430.29 137.382 431.687 137.382 433.222C137.382 434.767 137.007 436.176 136.257 437.449C135.507 438.71 134.496 439.722 133.223 440.483C131.962 441.233 130.558 441.608 129.013 441.608ZM129.013 436.767C129.672 436.767 130.268 436.608 130.803 436.29C131.337 435.972 131.757 435.545 132.064 435.011C132.382 434.477 132.541 433.881 132.541 433.222C132.541 432.574 132.382 431.983 132.064 431.449C131.757 430.915 131.337 430.489 130.803 430.17C130.268 429.852 129.672 429.693 129.013 429.693C128.365 429.693 127.774 429.852 127.24 430.17C126.706 430.489 126.28 430.915 125.962 431.449C125.643 431.983 125.484 432.574 125.484 433.222C125.484 433.881 125.643 434.477 125.962 435.011C126.28 435.545 126.706 435.972 127.24 436.29C127.774 436.608 128.365 436.767 129.013 436.767Z" fill="white"/>
<path d="M26.0746 558.726C27.5812 560.342 30.1123 560.43 31.728 558.924L58.0567 534.372C59.6724 532.865 59.7608 530.334 58.2541 528.718C56.7475 527.103 54.2164 527.014 52.6007 528.521L29.1974 550.345L7.37347 526.942C5.86684 525.326 3.33572 525.238 1.72006 526.744C0.104395 528.251 0.0160069 530.782 1.52264 532.398L26.0746 558.726ZM25.1769 550.862L25.0024 555.859L32.9976 556.138L33.1721 551.141L25.1769 550.862Z" fill="white"/>
<path d="M139.087 551C139.087 553.209 140.878 555 143.087 555C145.296 555 147.087 553.209 147.087 551H139.087ZM33.0873 551C33.0873 531.191 39.8523 516.743 49.6782 507.255C59.5517 497.721 72.7706 492.949 86.0719 493C99.3743 493.051 112.607 497.926 122.493 507.497C132.33 517.021 139.087 531.422 139.087 551H147.087C147.087 529.463 139.594 512.919 128.057 501.749C116.568 490.627 101.3 485.059 86.1026 485C70.904 484.942 55.6229 490.394 44.1213 501.5C32.5723 512.651 25.0873 529.257 25.0873 551H33.0873Z" fill="white"/>
<path d="M69.8523 424.614C71.6932 424.614 73.4148 424.926 75.017 425.551C76.6307 426.165 78 427.153 79.125 428.517C80.25 429.881 81.017 431.67 81.4261 433.886C81.8466 436.102 81.7841 438.818 81.2386 442.034C80.7386 444.955 79.9773 447.557 78.9545 449.841C77.9432 452.125 76.6989 454.057 75.2216 455.636C73.7557 457.216 72.1023 458.42 70.2614 459.25C68.4205 460.068 66.4375 460.477 64.3125 460.477C61.983 460.477 59.983 460.028 58.3125 459.131C56.642 458.233 55.3693 457.011 54.4943 455.466C53.6307 453.909 53.2386 452.148 53.3182 450.182H60.4432C60.4659 451.489 60.858 452.477 61.6193 453.148C62.3807 453.818 63.4205 454.153 64.7386 454.153C67.0568 454.153 69.017 453.142 70.6193 451.119C72.2216 449.097 73.3295 446.324 73.9432 442.801L73.6705 443.193C72.9773 444.216 72.1364 445.08 71.1477 445.784C70.1705 446.489 69.1023 447.028 67.9432 447.403C66.7841 447.767 65.5795 447.949 64.3295 447.949C62.2159 447.949 60.4091 447.443 58.9091 446.432C57.4091 445.42 56.3239 444.04 55.6534 442.29C54.983 440.54 54.8352 438.551 55.2102 436.324C55.608 434.04 56.483 432.017 57.8352 430.256C59.1875 428.483 60.8977 427.097 62.9659 426.097C65.0341 425.097 67.3295 424.602 69.8523 424.614ZM69.5966 430.409C68.4148 430.409 67.2955 430.699 66.2386 431.278C65.1932 431.847 64.3125 432.625 63.5966 433.614C62.892 434.591 62.4489 435.693 62.267 436.92C62.108 437.989 62.1932 438.955 62.5227 439.818C62.8523 440.682 63.3864 441.364 64.125 441.864C64.875 442.352 65.7955 442.597 66.8864 442.597C67.7841 442.597 68.642 442.426 69.4602 442.085C70.2898 441.744 71.0398 441.278 71.7102 440.688C72.392 440.085 72.9545 439.392 73.3977 438.608C73.8523 437.812 74.1477 436.977 74.2841 436.102C74.4545 435.034 74.3693 434.074 74.0284 433.222C73.6989 432.358 73.1534 431.676 72.392 431.176C71.6307 430.665 70.6989 430.409 69.5966 430.409ZM96.9034 460.767C93.9716 460.767 91.5682 460.051 89.6932 458.619C87.8182 457.176 86.5398 455.097 85.858 452.381C85.1875 449.665 85.1705 446.398 85.8068 442.58C86.4545 438.773 87.5625 435.528 89.1307 432.847C90.7102 430.165 92.6648 428.125 94.9943 426.727C97.3352 425.318 99.9659 424.614 102.886 424.614C105.795 424.614 108.188 425.318 110.062 426.727C111.938 428.136 113.222 430.176 113.915 432.847C114.619 435.517 114.653 438.761 114.017 442.58C113.381 446.409 112.273 449.682 110.693 452.398C109.114 455.102 107.153 457.176 104.812 458.619C102.472 460.051 99.8352 460.767 96.9034 460.767ZM97.9261 454.648C99.9375 454.648 101.699 453.642 103.21 451.631C104.722 449.619 105.813 446.602 106.483 442.58C106.926 439.943 107.023 437.744 106.773 435.983C106.534 434.21 105.994 432.881 105.153 431.994C104.313 431.108 103.227 430.665 101.898 430.665C99.9091 430.665 98.1477 431.665 96.6136 433.665C95.0909 435.653 94 438.625 93.3409 442.58C92.8977 445.261 92.8011 447.5 93.0511 449.295C93.3011 451.08 93.8466 452.42 94.6875 453.318C95.5284 454.205 96.608 454.648 97.9261 454.648ZM129.013 441.608C127.479 441.608 126.075 441.233 124.803 440.483C123.53 439.722 122.518 438.71 121.768 437.449C121.018 436.176 120.643 434.767 120.643 433.222C120.643 431.687 121.018 430.29 121.768 429.028C122.518 427.756 123.53 426.744 124.803 425.994C126.075 425.233 127.479 424.852 129.013 424.852C130.558 424.852 131.962 425.233 133.223 425.994C134.496 426.744 135.507 427.756 136.257 429.028C137.007 430.29 137.382 431.687 137.382 433.222C137.382 434.767 137.007 436.176 136.257 437.449C135.507 438.71 134.496 439.722 133.223 440.483C131.962 441.233 130.558 441.608 129.013 441.608ZM129.013 436.767C129.672 436.767 130.268 436.608 130.803 436.29C131.337 435.972 131.757 435.545 132.064 435.011C132.382 434.477 132.541 433.881 132.541 433.222C132.541 432.574 132.382 431.983 132.064 431.449C131.757 430.915 131.337 430.489 130.803 430.17C130.268 429.852 129.672 429.693 129.013 429.693C128.365 429.693 127.774 429.852 127.24 430.17C126.706 430.489 126.28 430.915 125.962 431.449C125.643 431.983 125.484 432.574 125.484 433.222C125.484 433.881 125.643 434.477 125.962 435.011C126.28 435.545 126.706 435.972 127.24 436.29C127.774 436.608 128.365 436.767 129.013 436.767Z" fill="white"/>
<path d="M139.087 551C139.087 553.209 140.878 555 143.087 555C145.296 555 147.087 553.209 147.087 551H139.087ZM33.0873 551C33.0873 531.191 39.8523 516.743 49.6782 507.255C59.5517 497.721 72.7706 492.949 86.0719 493C99.3743 493.051 112.607 497.926 122.493 507.497C132.33 517.021 139.087 531.422 139.087 551H147.087C147.087 529.463 139.594 512.919 128.057 501.749C116.568 490.627 101.3 485.059 86.1026 485C70.904 484.942 55.6229 490.394 44.1213 501.5C32.5723 512.651 25.0873 529.257 25.0873 551H33.0873Z" fill="white"/>
<path d="M69.8523 424.614C71.6932 424.614 73.4148 424.926 75.017 425.551C76.6307 426.165 78 427.153 79.125 428.517C80.25 429.881 81.017 431.67 81.4261 433.886C81.8466 436.102 81.7841 438.818 81.2386 442.034C80.7386 444.955 79.9773 447.557 78.9545 449.841C77.9432 452.125 76.6989 454.057 75.2216 455.636C73.7557 457.216 72.1023 458.42 70.2614 459.25C68.4205 460.068 66.4375 460.477 64.3125 460.477C61.983 460.477 59.983 460.028 58.3125 459.131C56.642 458.233 55.3693 457.011 54.4943 455.466C53.6307 453.909 53.2386 452.148 53.3182 450.182H60.4432C60.4659 451.489 60.858 452.477 61.6193 453.148C62.3807 453.818 63.4205 454.153 64.7386 454.153C67.0568 454.153 69.017 453.142 70.6193 451.119C72.2216 449.097 73.3295 446.324 73.9432 442.801L73.6705 443.193C72.9773 444.216 72.1364 445.08 71.1477 445.784C70.1705 446.489 69.1023 447.028 67.9432 447.403C66.7841 447.767 65.5795 447.949 64.3295 447.949C62.2159 447.949 60.4091 447.443 58.9091 446.432C57.4091 445.42 56.3239 444.04 55.6534 442.29C54.983 440.54 54.8352 438.551 55.2102 436.324C55.608 434.04 56.483 432.017 57.8352 430.256C59.1875 428.483 60.8977 427.097 62.9659 426.097C65.0341 425.097 67.3295 424.602 69.8523 424.614ZM69.5966 430.409C68.4148 430.409 67.2955 430.699 66.2386 431.278C65.1932 431.847 64.3125 432.625 63.5966 433.614C62.892 434.591 62.4489 435.693 62.267 436.92C62.108 437.989 62.1932 438.955 62.5227 439.818C62.8523 440.682 63.3864 441.364 64.125 441.864C64.875 442.352 65.7955 442.597 66.8864 442.597C67.7841 442.597 68.642 442.426 69.4602 442.085C70.2898 441.744 71.0398 441.278 71.7102 440.688C72.392 440.085 72.9545 439.392 73.3977 438.608C73.8523 437.812 74.1477 436.977 74.2841 436.102C74.4545 435.034 74.3693 434.074 74.0284 433.222C73.6989 432.358 73.1534 431.676 72.392 431.176C71.6307 430.665 70.6989 430.409 69.5966 430.409ZM96.9034 460.767C93.9716 460.767 91.5682 460.051 89.6932 458.619C87.8182 457.176 86.5398 455.097 85.858 452.381C85.1875 449.665 85.1705 446.398 85.8068 442.58C86.4545 438.773 87.5625 435.528 89.1307 432.847C90.7102 430.165 92.6648 428.125 94.9943 426.727C97.3352 425.318 99.9659 424.614 102.886 424.614C105.795 424.614 108.188 425.318 110.062 426.727C111.938 428.136 113.222 430.176 113.915 432.847C114.619 435.517 114.653 438.761 114.017 442.58C113.381 446.409 112.273 449.682 110.693 452.398C109.114 455.102 107.153 457.176 104.812 458.619C102.472 460.051 99.8352 460.767 96.9034 460.767ZM97.9261 454.648C99.9375 454.648 101.699 453.642 103.21 451.631C104.722 449.619 105.813 446.602 106.483 442.58C106.926 439.943 107.023 437.744 106.773 435.983C106.534 434.21 105.994 432.881 105.153 431.994C104.313 431.108 103.227 430.665 101.898 430.665C99.9091 430.665 98.1477 431.665 96.6136 433.665C95.0909 435.653 94 438.625 93.3409 442.58C92.8977 445.261 92.8011 447.5 93.0511 449.295C93.3011 451.08 93.8466 452.42 94.6875 453.318C95.5284 454.205 96.608 454.648 97.9261 454.648ZM129.013 441.608C127.479 441.608 126.075 441.233 124.803 440.483C123.53 439.722 122.518 438.71 121.768 437.449C121.018 436.176 120.643 434.767 120.643 433.222C120.643 431.687 121.018 430.29 121.768 429.028C122.518 427.756 123.53 426.744 124.803 425.994C126.075 425.233 127.479 424.852 129.013 424.852C130.558 424.852 131.962 425.233 133.223 425.994C134.496 426.744 135.507 427.756 136.257 429.028C137.007 430.29 137.382 431.687 137.382 433.222C137.382 434.767 137.007 436.176 136.257 437.449C135.507 438.71 134.496 439.722 133.223 440.483C131.962 441.233 130.558 441.608 129.013 441.608ZM129.013 436.767C129.672 436.767 130.268 436.608 130.803 436.29C131.337 435.972 131.757 435.545 132.064 435.011C132.382 434.477 132.541 433.881 132.541 433.222C132.541 432.574 132.382 431.983 132.064 431.449C131.757 430.915 131.337 430.489 130.803 430.17C130.268 429.852 129.672 429.693 129.013 429.693C128.365 429.693 127.774 429.852 127.24 430.17C126.706 430.489 126.28 430.915 125.962 431.449C125.643 431.983 125.484 432.574 125.484 433.222C125.484 433.881 125.643 434.477 125.962 435.011C126.28 435.545 126.706 435.972 127.24 436.29C127.774 436.608 128.365 436.767 129.013 436.767Z" fill="white"/>
<path d="M139.087 551C139.087 553.209 140.878 555 143.087 555C145.296 555 147.087 553.209 147.087 551H139.087ZM33.0873 551C33.0873 531.191 39.8523 516.743 49.6782 507.255C59.5517 497.721 72.7706 492.949 86.0719 493C99.3743 493.051 112.607 497.926 122.493 507.497C132.33 517.021 139.087 531.422 139.087 551H147.087C147.087 529.463 139.594 512.919 128.057 501.749C116.568 490.627 101.3 485.059 86.1026 485C70.904 484.942 55.6229 490.394 44.1213 501.5C32.5723 512.651 25.0873 529.257 25.0873 551H33.0873Z" fill="white"/>
<path d="M69.8523 424.614C71.6932 424.614 73.4148 424.926 75.017 425.551C76.6307 426.165 78 427.153 79.125 428.517C80.25 429.881 81.017 431.67 81.4261 433.886C81.8466 436.102 81.7841 438.818 81.2386 442.034C80.7386 444.955 79.9773 447.557 78.9545 449.841C77.9432 452.125 76.6989 454.057 75.2216 455.636C73.7557 457.216 72.1023 458.42 70.2614 459.25C68.4205 460.068 66.4375 460.477 64.3125 460.477C61.983 460.477 59.983 460.028 58.3125 459.131C56.642 458.233 55.3693 457.011 54.4943 455.466C53.6307 453.909 53.2386 452.148 53.3182 450.182H60.4432C60.4659 451.489 60.858 452.477 61.6193 453.148C62.3807 453.818 63.4205 454.153 64.7386 454.153C67.0568 454.153 69.017 453.142 70.6193 451.119C72.2216 449.097 73.3295 446.324 73.9432 442.801L73.6705 443.193C72.9773 444.216 72.1364 445.08 71.1477 445.784C70.1705 446.489 69.1023 447.028 67.9432 447.403C66.7841 447.767 65.5795 447.949 64.3295 447.949C62.2159 447.949 60.4091 447.443 58.9091 446.432C57.4091 445.42 56.3239 444.04 55.6534 442.29C54.983 440.54 54.8352 438.551 55.2102 436.324C55.608 434.04 56.483 432.017 57.8352 430.256C59.1875 428.483 60.8977 427.097 62.9659 426.097C65.0341 425.097 67.3295 424.602 69.8523 424.614ZM69.5966 430.409C68.4148 430.409 67.2955 430.699 66.2386 431.278C65.1932 431.847 64.3125 432.625 63.5966 433.614C62.892 434.591 62.4489 435.693 62.267 436.92C62.108 437.989 62.1932 438.955 62.5227 439.818C62.8523 440.682 63.3864 441.364 64.125 441.864C64.875 442.352 65.7955 442.597 66.8864 442.597C67.7841 442.597 68.642 442.426 69.4602 442.085C70.2898 441.744 71.0398 441.278 71.7102 440.688C72.392 440.085 72.9545 439.392 73.3977 438.608C73.8523 437.812 74.1477 436.977 74.2841 436.102C74.4545 435.034 74.3693 434.074 74.0284 433.222C73.6989 432.358 73.1534 431.676 72.392 431.176C71.6307 430.665 70.6989 430.409 69.5966 430.409ZM96.9034 460.767C93.9716 460.767 91.5682 460.051 89.6932 458.619C87.8182 457.176 86.5398 455.097 85.858 452.381C85.1875 449.665 85.1705 446.398 85.8068 442.58C86.4545 438.773 87.5625 435.528 89.1307 432.847C90.7102 430.165 92.6648 428.125 94.9943 426.727C97.3352 425.318 99.9659 424.614 102.886 424.614C105.795 424.614 108.188 425.318 110.062 426.727C111.938 428.136 113.222 430.176 113.915 432.847C114.619 435.517 114.653 438.761 114.017 442.58C113.381 446.409 112.273 449.682 110.693 452.398C109.114 455.102 107.153 457.176 104.812 458.619C102.472 460.051 99.8352 460.767 96.9034 460.767ZM97.9261 454.648C99.9375 454.648 101.699 453.642 103.21 451.631C104.722 449.619 105.813 446.602 106.483 442.58C106.926 439.943 107.023 437.744 106.773 435.983C106.534 434.21 105.994 432.881 105.153 431.994C104.313 431.108 103.227 430.665 101.898 430.665C99.9091 430.665 98.1477 431.665 96.6136 433.665C95.0909 435.653 94 438.625 93.3409 442.58C92.8977 445.261 92.8011 447.5 93.0511 449.295C93.3011 451.08 93.8466 452.42 94.6875 453.318C95.5284 454.205 96.608 454.648 97.9261 454.648ZM129.013 441.608C127.479 441.608 126.075 441.233 124.803 440.483C123.53 439.722 122.518 438.71 121.768 437.449C121.018 436.176 120.643 434.767 120.643 433.222C120.643 431.687 121.018 430.29 121.768 429.028C122.518 427.756 123.53 426.744 124.803 425.994C126.075 425.233 127.479 424.852 129.013 424.852C130.558 424.852 131.962 425.233 133.223 425.994C134.496 426.744 135.507 427.756 136.257 429.028C137.007 430.29 137.382 431.687 137.382 433.222C137.382 434.767 137.007 436.176 136.257 437.449C135.507 438.71 134.496 439.722 133.223 440.483C131.962 441.233 130.558 441.608 129.013 441.608ZM129.013 436.767C129.672 436.767 130.268 436.608 130.803 436.29C131.337 435.972 131.757 435.545 132.064 435.011C132.382 434.477 132.541 433.881 132.541 433.222C132.541 432.574 132.382 431.983 132.064 431.449C131.757 430.915 131.337 430.489 130.803 430.17C130.268 429.852 129.672 429.693 129.013 429.693C128.365 429.693 127.774 429.852 127.24 430.17C126.706 430.489 126.28 430.915 125.962 431.449C125.643 431.983 125.484 432.574 125.484 433.222C125.484 433.881 125.643 434.477 125.962 435.011C126.28 435.545 126.706 435.972 127.24 436.29C127.774 436.608 128.365 436.767 129.013 436.767Z" fill="white"/>
<path d="M139.087 551C139.087 553.209 140.878 555 143.087 555C145.296 555 147.087 553.209 147.087 551H139.087ZM33.0873 551C33.0873 531.191 39.8523 516.743 49.6782 507.255C59.5517 497.721 72.7706 492.949 86.0719 493C99.3743 493.051 112.607 497.926 122.493 507.497C132.33 517.021 139.087 531.422 139.087 551H147.087C147.087 529.463 139.594 512.919 128.057 501.749C116.568 490.627 101.3 485.059 86.1026 485C70.904 484.942 55.6229 490.394 44.1213 501.5C32.5723 512.651 25.0873 529.257 25.0873 551H33.0873Z" fill="white"/>
<path d="M548 401C548 403.209 549.791 405 552 405C554.209 405 556 403.209 556 401H548ZM554.828 178.172C553.266 176.609 550.734 176.609 549.172 178.172L523.716 203.627C522.154 205.19 522.154 207.722 523.716 209.284C525.278 210.846 527.81 210.846 529.373 209.284L552 186.657L574.627 209.284C576.19 210.846 578.722 210.846 580.284 209.284C581.846 207.722 581.846 205.19 580.284 203.627L554.828 178.172ZM556 401V181H548V401H556Z" fill="white"/>
<path d="M588.33 320.426C586.33 320.426 584.608 319.915 583.165 318.892C581.733 317.858 580.71 316.341 580.097 314.341C579.494 312.33 579.438 309.864 579.926 306.943C580.426 303.943 581.324 301.449 582.619 299.46C583.915 297.46 585.449 295.966 587.222 294.977C588.994 293.977 590.841 293.477 592.761 293.477C594.216 293.477 595.392 293.727 596.29 294.227C597.199 294.716 597.898 295.33 598.386 296.068C598.875 296.795 599.216 297.511 599.409 298.216H599.631L601.83 285.091H609.074L603.278 320H596.119L596.818 315.807H596.511C596.057 316.534 595.455 317.256 594.705 317.972C593.966 318.676 593.068 319.261 592.011 319.727C590.966 320.193 589.739 320.426 588.33 320.426ZM591.534 314.648C592.693 314.648 593.739 314.33 594.67 313.693C595.602 313.045 596.386 312.142 597.023 310.983C597.659 309.824 598.102 308.466 598.352 306.909C598.614 305.352 598.619 304 598.369 302.852C598.119 301.705 597.631 300.818 596.903 300.193C596.188 299.568 595.239 299.256 594.057 299.256C592.864 299.256 591.807 299.58 590.886 300.227C589.977 300.875 589.222 301.773 588.619 302.92C588.028 304.068 587.608 305.398 587.358 306.909C587.108 308.432 587.091 309.778 587.307 310.949C587.523 312.108 587.983 313.017 588.688 313.676C589.392 314.324 590.341 314.648 591.534 314.648Z" fill="white"/>
<path d="M548 401C548 403.209 549.791 405 552 405C554.209 405 556 403.209 556 401H548ZM554.828 178.172C553.266 176.609 550.734 176.609 549.172 178.172L523.716 203.627C522.154 205.19 522.154 207.722 523.716 209.284C525.278 210.846 527.81 210.846 529.373 209.284L552 186.657L574.627 209.284C576.19 210.846 578.722 210.846 580.284 209.284C581.846 207.722 581.846 205.19 580.284 203.627L554.828 178.172ZM556 401V181H548V401H556Z" fill="white"/>
<path d="M122.33 279.426C120.33 279.426 118.608 278.915 117.165 277.892C115.733 276.858 114.71 275.341 114.097 273.341C113.494 271.33 113.438 268.864 113.926 265.943C114.426 262.943 115.324 260.449 116.619 258.46C117.915 256.46 119.449 254.966 121.222 253.977C122.994 252.977 124.841 252.477 126.761 252.477C128.216 252.477 129.392 252.727 130.29 253.227C131.199 253.716 131.898 254.33 132.386 255.068C132.875 255.795 133.216 256.511 133.409 257.216H133.631L135.83 244.091H143.074L137.278 279H130.119L130.818 274.807H130.511C130.057 275.534 129.455 276.256 128.705 276.972C127.966 277.676 127.068 278.261 126.011 278.727C124.966 279.193 123.739 279.426 122.33 279.426ZM125.534 273.648C126.693 273.648 127.739 273.33 128.67 272.693C129.602 272.045 130.386 271.142 131.023 269.983C131.659 268.824 132.102 267.466 132.352 265.909C132.614 264.352 132.619 263 132.369 261.852C132.119 260.705 131.631 259.818 130.903 259.193C130.188 258.568 129.239 258.256 128.057 258.256C126.864 258.256 125.807 258.58 124.886 259.227C123.977 259.875 123.222 260.773 122.619 261.92C122.028 263.068 121.608 264.398 121.358 265.909C121.108 267.432 121.091 268.778 121.307 269.949C121.523 271.108 121.983 272.017 122.688 272.676C123.392 273.324 124.341 273.648 125.534 273.648Z" fill="white"/>
<path d="M90 181C90 178.791 88.2091 177 86 177C83.7909 177 82 178.791 82 181H90ZM83.1716 403.828C84.7337 405.391 87.2663 405.391 88.8284 403.828L114.284 378.373C115.846 376.81 115.846 374.278 114.284 372.716C112.722 371.154 110.19 371.154 108.627 372.716L86 395.343L63.3726 372.716C61.8105 371.154 59.2778 371.154 57.7157 372.716C56.1536 374.278 56.1536 376.81 57.7157 378.373L83.1716 403.828ZM82 181L82 401H90L90 181H82Z" fill="white"/>
<path d="M313.33 72.4261C311.33 72.4261 309.608 71.9148 308.165 70.892C306.733 69.858 305.71 68.3409 305.097 66.3409C304.494 64.3295 304.438 61.8636 304.926 58.9432C305.426 55.9432 306.324 53.4489 307.619 51.4602C308.915 49.4602 310.449 47.9659 312.222 46.9773C313.994 45.9773 315.841 45.4773 317.761 45.4773C319.216 45.4773 320.392 45.7273 321.29 46.2273C322.199 46.7159 322.898 47.3295 323.386 48.0682C323.875 48.7955 324.216 49.5114 324.409 50.2159H324.631L326.83 37.0909H334.074L328.278 72H321.119L321.818 67.8068H321.511C321.057 68.5341 320.455 69.2557 319.705 69.9716C318.966 70.6761 318.068 71.2614 317.011 71.7273C315.966 72.1932 314.739 72.4261 313.33 72.4261ZM316.534 66.6477C317.693 66.6477 318.739 66.3295 319.67 65.6932C320.602 65.0455 321.386 64.142 322.023 62.983C322.659 61.8239 323.102 60.4659 323.352 58.9091C323.614 57.3523 323.619 56 323.369 54.8523C323.119 53.7045 322.631 52.8182 321.903 52.1932C321.188 51.5682 320.239 51.2557 319.057 51.2557C317.864 51.2557 316.807 51.5795 315.886 52.2273C314.977 52.875 314.222 53.7727 313.619 54.9205C313.028 56.0682 312.608 57.3977 312.358 58.9091C312.108 60.4318 312.091 61.7784 312.307 62.9489C312.523 64.108 312.983 65.017 313.688 65.6761C314.392 66.3239 315.341 66.6477 316.534 66.6477Z" fill="white"/>
<path d="M313.33 72.4261C311.33 72.4261 309.608 71.9148 308.165 70.892C306.733 69.858 305.71 68.3409 305.097 66.3409C304.494 64.3295 304.438 61.8636 304.926 58.9432C305.426 55.9432 306.324 53.4489 307.619 51.4602C308.915 49.4602 310.449 47.9659 312.222 46.9773C313.994 45.9773 315.841 45.4773 317.761 45.4773C319.216 45.4773 320.392 45.7273 321.29 46.2273C322.199 46.7159 322.898 47.3295 323.386 48.0682C323.875 48.7955 324.216 49.5114 324.409 50.2159H324.631L326.83 37.0909H334.074L328.278 72H321.119L321.818 67.8068H321.511C321.057 68.5341 320.455 69.2557 319.705 69.9716C318.966 70.6761 318.068 71.2614 317.011 71.7273C315.966 72.1932 314.739 72.4261 313.33 72.4261ZM316.534 66.6477C317.693 66.6477 318.739 66.3295 319.67 65.6932C320.602 65.0455 321.386 64.142 322.023 62.983C322.659 61.8239 323.102 60.4659 323.352 58.9091C323.614 57.3523 323.619 56 323.369 54.8523C323.119 53.7045 322.631 52.8182 321.903 52.1932C321.188 51.5682 320.239 51.2557 319.057 51.2557C317.864 51.2557 316.807 51.5795 315.886 52.2273C314.977 52.875 314.222 53.7727 313.619 54.9205C313.028 56.0682 312.608 57.3977 312.358 58.9091C312.108 60.4318 312.091 61.7784 312.307 62.9489C312.523 64.108 312.983 65.017 313.688 65.6761C314.392 66.3239 315.341 66.6477 316.534 66.6477Z" fill="white"/>
<path d="M421 113C423.209 113 425 111.209 425 109C425 106.791 423.209 105 421 105V113ZM198.172 106.172C196.609 107.734 196.609 110.266 198.172 111.828L223.627 137.284C225.19 138.846 227.722 138.846 229.284 137.284C230.846 135.722 230.846 133.19 229.284 131.627L206.657 109L229.284 86.3726C230.846 84.8105 230.846 82.2778 229.284 80.7157C227.722 79.1536 225.19 79.1536 223.627 80.7157L198.172 106.172ZM421 105L201 105V113L421 113V105Z" fill="white"/>
<path d="M313.33 486.426C311.33 486.426 309.608 485.915 308.165 484.892C306.733 483.858 305.71 482.341 305.097 480.341C304.494 478.33 304.438 475.864 304.926 472.943C305.426 469.943 306.324 467.449 307.619 465.46C308.915 463.46 310.449 461.966 312.222 460.977C313.994 459.977 315.841 459.477 317.761 459.477C319.216 459.477 320.392 459.727 321.29 460.227C322.199 460.716 322.898 461.33 323.386 462.068C323.875 462.795 324.216 463.511 324.409 464.216H324.631L326.83 451.091H334.074L328.278 486H321.119L321.818 481.807H321.511C321.057 482.534 320.455 483.256 319.705 483.972C318.966 484.676 318.068 485.261 317.011 485.727C315.966 486.193 314.739 486.426 313.33 486.426ZM316.534 480.648C317.693 480.648 318.739 480.33 319.67 479.693C320.602 479.045 321.386 478.142 322.023 476.983C322.659 475.824 323.102 474.466 323.352 472.909C323.614 471.352 323.619 470 323.369 468.852C323.119 467.705 322.631 466.818 321.903 466.193C321.188 465.568 320.239 465.256 319.057 465.256C317.864 465.256 316.807 465.58 315.886 466.227C314.977 466.875 314.222 467.773 313.619 468.92C313.028 470.068 312.608 471.398 312.358 472.909C312.108 474.432 312.091 475.778 312.307 476.949C312.523 478.108 312.983 479.017 313.688 479.676C314.392 480.324 315.341 480.648 316.534 480.648Z" fill="white"/>
<path d="M313.33 486.426C311.33 486.426 309.608 485.915 308.165 484.892C306.733 483.858 305.71 482.341 305.097 480.341C304.494 478.33 304.438 475.864 304.926 472.943C305.426 469.943 306.324 467.449 307.619 465.46C308.915 463.46 310.449 461.966 312.222 460.977C313.994 459.977 315.841 459.477 317.761 459.477C319.216 459.477 320.392 459.727 321.29 460.227C322.199 460.716 322.898 461.33 323.386 462.068C323.875 462.795 324.216 463.511 324.409 464.216H324.631L326.83 451.091H334.074L328.278 486H321.119L321.818 481.807H321.511C321.057 482.534 320.455 483.256 319.705 483.972C318.966 484.676 318.068 485.261 317.011 485.727C315.966 486.193 314.739 486.426 313.33 486.426ZM316.534 480.648C317.693 480.648 318.739 480.33 319.67 479.693C320.602 479.045 321.386 478.142 322.023 476.983C322.659 475.824 323.102 474.466 323.352 472.909C323.614 471.352 323.619 470 323.369 468.852C323.119 467.705 322.631 466.818 321.903 466.193C321.188 465.568 320.239 465.256 319.057 465.256C317.864 465.256 316.807 465.58 315.886 466.227C314.977 466.875 314.222 467.773 313.619 468.92C313.028 470.068 312.608 471.398 312.358 472.909C312.108 474.432 312.091 475.778 312.307 476.949C312.523 478.108 312.983 479.017 313.688 479.676C314.392 480.324 315.341 480.648 316.534 480.648Z" fill="white"/>
<path d="M201 519C198.791 519 197 520.791 197 523C197 525.209 198.791 527 201 527V519ZM423.828 525.828C425.391 524.266 425.391 521.734 423.828 520.172L398.373 494.716C396.81 493.154 394.278 493.154 392.716 494.716C391.154 496.278 391.154 498.81 392.716 500.373L415.343 523L392.716 545.627C391.154 547.19 391.154 549.722 392.716 551.284C394.278 552.846 396.81 552.846 398.373 551.284L423.828 525.828ZM201 527H421V519H201V527Z" fill="white"/>
</svg>
