<svg width="510" height="530" viewBox="0 0 510 530" fill="none" xmlns="http://www.w3.org/2000/svg">
<path d="M300.33 259.426C298.33 259.426 296.608 258.915 295.165 257.892C293.733 256.858 292.71 255.341 292.097 253.341C291.494 251.33 291.438 248.864 291.926 245.943C292.426 242.943 293.324 240.449 294.619 238.46C295.915 236.46 297.449 234.966 299.222 233.977C300.994 232.977 302.841 232.477 304.761 232.477C306.216 232.477 307.392 232.727 308.29 233.227C309.199 233.716 309.898 234.33 310.386 235.068C310.875 235.795 311.216 236.511 311.409 237.216H311.631L313.83 224.091H321.074L315.278 259H308.119L308.818 254.807H308.511C308.057 255.534 307.455 256.256 306.705 256.972C305.966 257.676 305.068 258.261 304.011 258.727C302.966 259.193 301.739 259.426 300.33 259.426ZM303.534 253.648C304.693 253.648 305.739 253.33 306.67 252.693C307.602 252.045 308.386 251.142 309.023 249.983C309.659 248.824 310.102 247.466 310.352 245.909C310.614 244.352 310.619 243 310.369 241.852C310.119 240.705 309.631 239.818 308.903 239.193C308.188 238.568 307.239 238.256 306.057 238.256C304.864 238.256 303.807 238.58 302.886 239.227C301.977 239.875 301.222 240.773 300.619 241.92C300.028 243.068 299.608 244.398 299.358 245.909C299.108 247.432 299.091 248.778 299.307 249.949C299.523 251.108 299.983 252.017 300.688 252.676C301.392 253.324 302.341 253.648 303.534 253.648Z" fill="white"/>
<path d="M302.151 319.088C302.752 321.214 304.962 322.45 307.088 321.849L341.731 312.059C343.857 311.458 345.093 309.248 344.492 307.122C343.892 304.996 341.681 303.76 339.555 304.36L308.761 313.063L300.059 282.269C299.458 280.143 297.248 278.907 295.122 279.508C292.996 280.108 291.76 282.319 292.36 284.445L302.151 319.088ZM375.849 198.912C375.248 196.786 373.038 195.55 370.912 196.151L336.269 205.941C334.143 206.542 332.907 208.752 333.508 210.878C334.108 213.004 336.319 214.24 338.445 213.64L369.239 204.937L377.941 235.731C378.542 237.857 380.752 239.093 382.878 238.492C385.004 237.892 386.24 235.681 385.64 233.555L375.849 198.912ZM309.491 319.953L375.491 201.953L368.509 198.047L302.509 316.047L309.491 319.953Z" fill="white"/>
<path d="M170.542 372.661L321.788 458.688L364.801 383.065C368.897 375.864 366.38 366.707 359.179 362.611L234.01 291.416C226.809 287.32 217.651 289.837 213.555 297.038L170.542 372.661Z" fill="#747474"/>
<circle cx="87" cy="87" r="87" transform="matrix(0.86923 0.494408 0.494408 -0.86923 130 443.938)" fill="#747474"/>
<rect width="124" height="77" rx="15" transform="matrix(0.86923 0.494408 0.494408 -0.86923 192.272 385.022)" fill="#585858"/>
<circle cx="35" cy="44" r="31" stroke="white" stroke-width="8"/>
<circle cx="326" cy="35" r="31" stroke="white" stroke-width="8"/>
<circle cx="396" cy="152" r="31" stroke="#A6E475" stroke-width="8"/>
<path d="M483.925 454.726C482.418 456.342 479.887 456.431 478.272 454.924L451.944 430.373C450.329 428.867 450.241 426.336 451.747 424.72C453.254 423.104 455.785 423.016 457.401 424.522L480.803 446.345L502.628 422.94C504.135 421.325 506.666 421.236 508.281 422.743C509.897 424.249 509.985 426.78 508.478 428.396L483.925 454.726ZM484.823 446.862L484.997 451.859L477.002 452.138L476.828 447.141L484.823 446.862Z" fill="white"/>
<path d="M371 447C371 449.209 369.209 451 367 451C364.791 451 363 449.209 363 447H371ZM477 447C477 427.191 470.235 412.743 460.409 403.255C450.536 393.721 437.317 388.949 424.015 389C410.713 389.051 397.481 393.926 387.595 403.497C377.757 413.021 371 427.422 371 447H363C363 425.463 370.493 408.919 382.03 397.749C393.519 386.627 408.787 381.059 423.985 381C439.183 380.942 454.464 386.394 465.966 397.5C477.515 408.651 485 425.257 485 447H477Z" fill="white"/>
<path d="M419.807 337.852L418.92 343.307H401.534L402.438 337.852H419.807ZM422.909 337.597L421.903 343.597C421.335 346.994 420.369 349.79 419.006 351.983C417.642 354.176 415.977 355.807 414.011 356.875C412.057 357.943 409.903 358.477 407.551 358.477C405.176 358.477 403.17 357.943 401.534 356.875C399.909 355.807 398.773 354.176 398.125 351.983C397.477 349.79 397.438 346.994 398.006 343.597L399.011 337.597C399.557 334.244 400.511 331.472 401.875 329.278C403.25 327.074 404.92 325.437 406.886 324.369C408.864 323.29 411.034 322.75 413.398 322.75C415.75 322.75 417.733 323.29 419.347 324.369C420.96 325.437 422.091 327.068 422.739 329.261C423.398 331.455 423.455 334.233 422.909 337.597ZM414.727 344.517L416.057 336.557C416.352 334.648 416.392 333.108 416.176 331.938C415.972 330.756 415.545 329.903 414.898 329.381C414.261 328.847 413.443 328.58 412.443 328.58C410.852 328.58 409.528 329.227 408.472 330.523C407.415 331.818 406.67 333.83 406.239 336.557L404.926 344.517C404.438 347.335 404.511 349.392 405.148 350.688C405.795 351.972 406.926 352.614 408.54 352.614C409.517 352.614 410.409 352.352 411.216 351.83C412.034 351.307 412.739 350.455 413.33 349.273C413.92 348.091 414.386 346.506 414.727 344.517ZM438.732 339.608C437.197 339.608 435.794 339.233 434.521 338.483C433.249 337.722 432.237 336.71 431.487 335.449C430.737 334.176 430.362 332.767 430.362 331.222C430.362 329.687 430.737 328.29 431.487 327.028C432.237 325.756 433.249 324.744 434.521 323.994C435.794 323.233 437.197 322.852 438.732 322.852C440.277 322.852 441.68 323.233 442.942 323.994C444.214 324.744 445.226 325.756 445.976 327.028C446.726 328.29 447.101 329.687 447.101 331.222C447.101 332.767 446.726 334.176 445.976 335.449C445.226 336.71 444.214 337.722 442.942 338.483C441.68 339.233 440.277 339.608 438.732 339.608ZM438.732 334.767C439.391 334.767 439.987 334.608 440.521 334.29C441.055 333.972 441.476 333.545 441.783 333.011C442.101 332.477 442.26 331.881 442.26 331.222C442.26 330.574 442.101 329.983 441.783 329.449C441.476 328.915 441.055 328.489 440.521 328.17C439.987 327.852 439.391 327.693 438.732 327.693C438.084 327.693 437.493 327.852 436.959 328.17C436.425 328.489 435.999 328.915 435.68 329.449C435.362 329.983 435.203 330.574 435.203 331.222C435.203 331.881 435.362 332.477 435.68 333.011C435.999 333.545 436.425 333.972 436.959 334.29C437.493 334.608 438.084 334.767 438.732 334.767Z" fill="white"/>
</svg>
