<svg width="821" height="991" viewBox="0 0 821 991" fill="none" xmlns="http://www.w3.org/2000/svg">
<path d="M264.614 69.2861C263.668 67.29 261.282 66.4392 259.286 67.3858C257.29 68.3324 256.439 70.7179 257.386 72.7139L264.614 69.2861ZM305.656 171.768C307.737 172.51 310.025 171.424 310.768 169.344L322.861 135.436C323.603 133.355 322.518 131.066 320.437 130.324C318.356 129.582 316.068 130.667 315.326 132.748L304.576 162.889L274.436 152.139C272.355 151.397 270.066 152.482 269.324 154.563C268.582 156.644 269.667 158.932 271.748 159.674L305.656 171.768ZM257.386 72.7139L303.386 169.714L310.614 166.286L264.614 69.2861L257.386 72.7139Z" fill="white"/>
<path d="M284.409 362H272.034V327.091H284.511C288.023 327.091 291.045 327.79 293.58 329.188C296.114 330.574 298.063 332.568 299.426 335.17C300.801 337.773 301.489 340.886 301.489 344.511C301.489 348.148 300.801 351.273 299.426 353.886C298.063 356.5 296.102 358.506 293.545 359.903C291 361.301 287.955 362 284.409 362ZM279.415 355.676H284.102C286.284 355.676 288.119 355.29 289.608 354.517C291.108 353.733 292.233 352.523 292.983 350.886C293.744 349.239 294.125 347.114 294.125 344.511C294.125 341.932 293.744 339.824 292.983 338.188C292.233 336.551 291.114 335.347 289.625 334.574C288.136 333.801 286.301 333.415 284.119 333.415H279.415V355.676ZM306.82 362V335.818H313.859V340.386H314.132C314.609 338.761 315.411 337.534 316.536 336.705C317.661 335.864 318.956 335.443 320.422 335.443C320.786 335.443 321.178 335.466 321.598 335.511C322.018 335.557 322.388 335.619 322.706 335.699V342.142C322.365 342.04 321.893 341.949 321.291 341.869C320.689 341.79 320.138 341.75 319.638 341.75C318.57 341.75 317.615 341.983 316.774 342.449C315.945 342.903 315.286 343.54 314.797 344.358C314.32 345.176 314.081 346.119 314.081 347.188V362H306.82ZM326.46 362V335.818H333.722V362H326.46ZM330.108 332.443C329.028 332.443 328.102 332.085 327.33 331.369C326.568 330.642 326.188 329.773 326.188 328.761C326.188 327.761 326.568 326.903 327.33 326.188C328.102 325.46 329.028 325.097 330.108 325.097C331.188 325.097 332.108 325.46 332.869 326.188C333.642 326.903 334.028 327.761 334.028 328.761C334.028 329.773 333.642 330.642 332.869 331.369C332.108 332.085 331.188 332.443 330.108 332.443ZM363.947 335.818L354.794 362H346.612L337.459 335.818H345.129L350.567 354.551H350.839L356.26 335.818H363.947ZM378.751 362.511C376.058 362.511 373.74 361.966 371.797 360.875C369.865 359.773 368.376 358.216 367.331 356.205C366.286 354.182 365.763 351.79 365.763 349.028C365.763 346.335 366.286 343.972 367.331 341.938C368.376 339.903 369.848 338.318 371.746 337.182C373.655 336.045 375.893 335.477 378.462 335.477C380.189 335.477 381.797 335.756 383.286 336.312C384.786 336.858 386.092 337.682 387.206 338.784C388.331 339.886 389.206 341.273 389.831 342.943C390.456 344.602 390.768 346.545 390.768 348.773V350.767H368.661V346.267H383.933C383.933 345.222 383.706 344.295 383.251 343.489C382.797 342.682 382.166 342.051 381.359 341.597C380.564 341.131 379.638 340.898 378.581 340.898C377.479 340.898 376.501 341.153 375.649 341.665C374.808 342.165 374.149 342.841 373.672 343.693C373.195 344.534 372.95 345.472 372.939 346.506V350.784C372.939 352.08 373.178 353.199 373.655 354.142C374.143 355.085 374.831 355.812 375.717 356.324C376.604 356.835 377.655 357.091 378.871 357.091C379.678 357.091 380.416 356.977 381.087 356.75C381.757 356.523 382.331 356.182 382.808 355.727C383.286 355.273 383.649 354.716 383.899 354.057L390.615 354.5C390.274 356.114 389.575 357.523 388.518 358.727C387.473 359.92 386.121 360.852 384.462 361.523C382.814 362.182 380.911 362.511 378.751 362.511ZM425.69 337.131C425.554 335.756 424.969 334.687 423.935 333.926C422.901 333.165 421.497 332.784 419.724 332.784C418.52 332.784 417.503 332.955 416.673 333.295C415.844 333.625 415.207 334.085 414.764 334.676C414.332 335.267 414.116 335.938 414.116 336.688C414.094 337.312 414.224 337.858 414.509 338.324C414.804 338.79 415.207 339.193 415.719 339.534C416.23 339.864 416.821 340.153 417.491 340.403C418.162 340.642 418.878 340.847 419.639 341.017L422.776 341.767C424.298 342.108 425.696 342.562 426.969 343.131C428.241 343.699 429.344 344.398 430.276 345.227C431.207 346.057 431.929 347.034 432.44 348.159C432.963 349.284 433.23 350.574 433.241 352.028C433.23 354.165 432.685 356.017 431.605 357.585C430.537 359.142 428.991 360.352 426.969 361.216C424.957 362.068 422.531 362.494 419.69 362.494C416.872 362.494 414.418 362.062 412.327 361.199C410.247 360.335 408.622 359.057 407.452 357.364C406.293 355.659 405.685 353.551 405.628 351.04H412.77C412.849 352.21 413.185 353.187 413.776 353.972C414.378 354.744 415.179 355.33 416.179 355.727C417.19 356.114 418.332 356.307 419.605 356.307C420.855 356.307 421.94 356.125 422.861 355.761C423.793 355.398 424.514 354.892 425.026 354.244C425.537 353.597 425.793 352.852 425.793 352.011C425.793 351.227 425.56 350.568 425.094 350.034C424.639 349.5 423.969 349.045 423.082 348.67C422.207 348.295 421.134 347.955 419.861 347.648L416.06 346.693C413.116 345.977 410.793 344.858 409.088 343.335C407.384 341.812 406.537 339.761 406.548 337.182C406.537 335.068 407.099 333.222 408.236 331.642C409.384 330.062 410.957 328.83 412.957 327.943C414.957 327.057 417.23 326.614 419.776 326.614C422.366 326.614 424.628 327.057 426.56 327.943C428.503 328.83 430.014 330.062 431.094 331.642C432.173 333.222 432.73 335.051 432.764 337.131H425.69ZM455.371 371.818V357.807H455.149C454.808 358.534 454.325 359.256 453.7 359.972C453.087 360.676 452.286 361.261 451.297 361.727C450.32 362.193 449.126 362.426 447.717 362.426C445.729 362.426 443.928 361.915 442.314 360.892C440.712 359.858 439.439 358.341 438.496 356.341C437.564 354.33 437.098 351.864 437.098 348.943C437.098 345.943 437.581 343.449 438.547 341.46C439.513 339.46 440.797 337.966 442.399 336.977C444.013 335.977 445.78 335.477 447.7 335.477C449.166 335.477 450.388 335.727 451.365 336.227C452.354 336.716 453.149 337.33 453.751 338.068C454.365 338.795 454.831 339.511 455.149 340.216H455.456V335.818H462.615V371.818H455.371ZM450.018 356.648C451.189 356.648 452.178 356.33 452.984 355.693C453.803 355.045 454.428 354.142 454.859 352.983C455.303 351.824 455.524 350.466 455.524 348.909C455.524 347.352 455.308 346 454.876 344.852C454.445 343.705 453.82 342.818 453.001 342.193C452.183 341.568 451.189 341.256 450.018 341.256C448.825 341.256 447.82 341.58 447.001 342.227C446.183 342.875 445.564 343.773 445.143 344.92C444.723 346.068 444.513 347.398 444.513 348.909C444.513 350.432 444.723 351.778 445.143 352.949C445.575 354.108 446.195 355.017 447.001 355.676C447.82 356.324 448.825 356.648 450.018 356.648ZM485.234 350.852V335.818H492.496V362H485.524V357.244H485.251C484.661 358.778 483.678 360.011 482.303 360.943C480.939 361.875 479.274 362.341 477.308 362.341C475.558 362.341 474.018 361.943 472.689 361.148C471.359 360.352 470.32 359.222 469.57 357.756C468.831 356.29 468.456 354.534 468.445 352.489V335.818H475.706V351.193C475.717 352.739 476.132 353.96 476.95 354.858C477.768 355.756 478.865 356.205 480.24 356.205C481.115 356.205 481.933 356.006 482.695 355.608C483.456 355.199 484.07 354.597 484.536 353.801C485.013 353.006 485.246 352.023 485.234 350.852ZM505.77 362.494C504.099 362.494 502.611 362.205 501.304 361.625C499.997 361.034 498.963 360.165 498.202 359.017C497.452 357.858 497.077 356.415 497.077 354.688C497.077 353.233 497.344 352.011 497.878 351.023C498.412 350.034 499.139 349.239 500.06 348.636C500.98 348.034 502.026 347.58 503.196 347.273C504.378 346.966 505.616 346.75 506.912 346.625C508.435 346.466 509.662 346.318 510.594 346.182C511.526 346.034 512.202 345.818 512.622 345.534C513.043 345.25 513.253 344.83 513.253 344.273V344.17C513.253 343.091 512.912 342.256 512.23 341.665C511.56 341.074 510.605 340.778 509.366 340.778C508.06 340.778 507.02 341.068 506.247 341.648C505.474 342.216 504.963 342.932 504.713 343.795L497.997 343.25C498.338 341.659 499.009 340.284 500.009 339.125C501.009 337.955 502.298 337.057 503.878 336.432C505.469 335.795 507.31 335.477 509.401 335.477C510.855 335.477 512.247 335.648 513.577 335.989C514.918 336.33 516.105 336.858 517.139 337.574C518.185 338.29 519.009 339.21 519.611 340.335C520.213 341.449 520.514 342.784 520.514 344.341V362H513.628V358.369H513.423C513.003 359.188 512.44 359.909 511.736 360.534C511.031 361.148 510.185 361.631 509.196 361.983C508.207 362.324 507.065 362.494 505.77 362.494ZM507.849 357.483C508.918 357.483 509.861 357.273 510.679 356.852C511.497 356.42 512.139 355.841 512.605 355.114C513.071 354.386 513.304 353.562 513.304 352.642V349.864C513.077 350.011 512.764 350.148 512.366 350.273C511.98 350.386 511.543 350.494 511.054 350.597C510.565 350.687 510.077 350.773 509.588 350.852C509.099 350.92 508.656 350.983 508.259 351.04C507.406 351.165 506.662 351.364 506.026 351.636C505.389 351.909 504.895 352.278 504.543 352.744C504.19 353.199 504.014 353.767 504.014 354.449C504.014 355.438 504.372 356.193 505.088 356.716C505.815 357.227 506.736 357.483 507.849 357.483ZM526.148 362V335.818H533.188V340.386H533.46C533.938 338.761 534.739 337.534 535.864 336.705C536.989 335.864 538.284 335.443 539.75 335.443C540.114 335.443 540.506 335.466 540.926 335.511C541.347 335.557 541.716 335.619 542.034 335.699V342.142C541.693 342.04 541.222 341.949 540.619 341.869C540.017 341.79 539.466 341.75 538.966 341.75C537.898 341.75 536.943 341.983 536.102 342.449C535.273 342.903 534.614 343.54 534.125 344.358C533.648 345.176 533.409 346.119 533.409 347.188V362H526.148ZM556.501 362.511C553.808 362.511 551.49 361.966 549.547 360.875C547.615 359.773 546.126 358.216 545.081 356.205C544.036 354.182 543.513 351.79 543.513 349.028C543.513 346.335 544.036 343.972 545.081 341.938C546.126 339.903 547.598 338.318 549.496 337.182C551.405 336.045 553.643 335.477 556.212 335.477C557.939 335.477 559.547 335.756 561.036 336.312C562.536 336.858 563.842 337.682 564.956 338.784C566.081 339.886 566.956 341.273 567.581 342.943C568.206 344.602 568.518 346.545 568.518 348.773V350.767H546.411V346.267H561.683C561.683 345.222 561.456 344.295 561.001 343.489C560.547 342.682 559.916 342.051 559.109 341.597C558.314 341.131 557.388 340.898 556.331 340.898C555.229 340.898 554.251 341.153 553.399 341.665C552.558 342.165 551.899 342.841 551.422 343.693C550.945 344.534 550.7 345.472 550.689 346.506V350.784C550.689 352.08 550.928 353.199 551.405 354.142C551.893 355.085 552.581 355.812 553.467 356.324C554.354 356.835 555.405 357.091 556.621 357.091C557.428 357.091 558.166 356.977 558.837 356.75C559.507 356.523 560.081 356.182 560.558 355.727C561.036 355.273 561.399 354.716 561.649 354.057L568.365 354.5C568.024 356.114 567.325 357.523 566.268 358.727C565.223 359.92 563.871 360.852 562.212 361.523C560.564 362.182 558.661 362.511 556.501 362.511Z" fill="white"/>
<path d="M645.786 525.545C645.786 529.352 645.064 532.591 643.621 535.261C642.189 537.932 640.234 539.972 637.757 541.381C635.291 542.778 632.518 543.477 629.439 543.477C626.337 543.477 623.553 542.773 621.087 541.364C618.621 539.955 616.672 537.915 615.24 535.244C613.808 532.574 613.092 529.341 613.092 525.545C613.092 521.739 613.808 518.5 615.24 515.83C616.672 513.159 618.621 511.125 621.087 509.727C623.553 508.318 626.337 507.614 629.439 507.614C632.518 507.614 635.291 508.318 637.757 509.727C640.234 511.125 642.189 513.159 643.621 515.83C645.064 518.5 645.786 521.739 645.786 525.545ZM638.303 525.545C638.303 523.08 637.933 521 637.195 519.307C636.467 517.614 635.439 516.33 634.109 515.455C632.78 514.58 631.223 514.142 629.439 514.142C627.655 514.142 626.098 514.58 624.768 515.455C623.439 516.33 622.405 517.614 621.666 519.307C620.939 521 620.575 523.08 620.575 525.545C620.575 528.011 620.939 530.091 621.666 531.784C622.405 533.477 623.439 534.761 624.768 535.636C626.098 536.511 627.655 536.949 629.439 536.949C631.223 536.949 632.78 536.511 634.109 535.636C635.439 534.761 636.467 533.477 637.195 531.784C637.933 530.091 638.303 528.011 638.303 525.545ZM651.253 543V508.091H658.514V521.216H658.736C659.054 520.511 659.514 519.795 660.116 519.068C660.73 518.33 661.526 517.716 662.503 517.227C663.491 516.727 664.719 516.477 666.185 516.477C668.094 516.477 669.855 516.977 671.469 517.977C673.082 518.966 674.372 520.46 675.338 522.46C676.304 524.449 676.787 526.943 676.787 529.943C676.787 532.864 676.315 535.33 675.372 537.341C674.44 539.341 673.168 540.858 671.554 541.892C669.952 542.915 668.156 543.426 666.168 543.426C664.759 543.426 663.56 543.193 662.571 542.727C661.594 542.261 660.793 541.676 660.168 540.972C659.543 540.256 659.065 539.534 658.736 538.807H658.412V543H651.253ZM658.361 529.909C658.361 531.466 658.577 532.824 659.009 533.983C659.44 535.142 660.065 536.045 660.884 536.693C661.702 537.33 662.696 537.648 663.866 537.648C665.048 537.648 666.048 537.324 666.866 536.676C667.685 536.017 668.304 535.108 668.724 533.949C669.156 532.778 669.372 531.432 669.372 529.909C669.372 528.398 669.162 527.068 668.741 525.92C668.321 524.773 667.702 523.875 666.884 523.227C666.065 522.58 665.06 522.256 663.866 522.256C662.685 522.256 661.685 522.568 660.866 523.193C660.06 523.818 659.44 524.705 659.009 525.852C658.577 527 658.361 528.352 658.361 529.909ZM681.632 516.818H688.893V544.295C688.893 546.318 688.496 547.955 687.7 549.205C686.905 550.455 685.763 551.369 684.274 551.949C682.797 552.528 681.03 552.818 678.973 552.818C678.723 552.818 678.484 552.813 678.257 552.801C678.018 552.801 677.768 552.795 677.507 552.784V547.108C677.7 547.119 677.871 547.125 678.018 547.125C678.155 547.136 678.303 547.142 678.462 547.142C679.632 547.142 680.45 546.892 680.916 546.392C681.393 545.903 681.632 545.165 681.632 544.176V516.818ZM685.246 513.443C684.178 513.443 683.257 513.085 682.484 512.369C681.712 511.642 681.325 510.773 681.325 509.761C681.325 508.761 681.712 507.903 682.484 507.188C683.257 506.46 684.178 506.097 685.246 506.097C686.337 506.097 687.263 506.46 688.024 507.188C688.797 507.903 689.183 508.761 689.183 509.761C689.183 510.773 688.797 511.642 688.024 512.369C687.263 513.085 686.337 513.443 685.246 513.443ZM706.642 543.511C703.949 543.511 701.631 542.966 699.688 541.875C697.756 540.773 696.267 539.216 695.222 537.205C694.176 535.182 693.653 532.79 693.653 530.028C693.653 527.335 694.176 524.972 695.222 522.938C696.267 520.903 697.739 519.318 699.636 518.182C701.545 517.045 703.784 516.477 706.352 516.477C708.08 516.477 709.688 516.756 711.176 517.312C712.676 517.858 713.983 518.682 715.097 519.784C716.222 520.886 717.097 522.273 717.722 523.943C718.347 525.602 718.659 527.545 718.659 529.773V531.767H696.551V527.267H711.824C711.824 526.222 711.597 525.295 711.142 524.489C710.688 523.682 710.057 523.051 709.25 522.597C708.455 522.131 707.528 521.898 706.472 521.898C705.369 521.898 704.392 522.153 703.54 522.665C702.699 523.165 702.04 523.841 701.562 524.693C701.085 525.534 700.841 526.472 700.83 527.506V531.784C700.83 533.08 701.068 534.199 701.545 535.142C702.034 536.085 702.722 536.812 703.608 537.324C704.494 537.835 705.545 538.091 706.761 538.091C707.568 538.091 708.307 537.977 708.977 537.75C709.648 537.523 710.222 537.182 710.699 536.727C711.176 536.273 711.54 535.716 711.79 535.057L718.506 535.5C718.165 537.114 717.466 538.523 716.409 539.727C715.364 540.92 714.011 541.852 712.352 542.523C710.705 543.182 708.801 543.511 706.642 543.511ZM735.227 543.511C732.545 543.511 730.239 542.943 728.307 541.807C726.386 540.659 724.909 539.068 723.875 537.034C722.852 535 722.341 532.659 722.341 530.011C722.341 527.33 722.858 524.977 723.892 522.955C724.938 520.92 726.42 519.335 728.341 518.199C730.261 517.051 732.545 516.477 735.193 516.477C737.477 516.477 739.477 516.892 741.193 517.722C742.909 518.551 744.267 519.716 745.267 521.216C746.267 522.716 746.818 524.477 746.92 526.5H740.068C739.875 525.193 739.364 524.142 738.534 523.347C737.716 522.54 736.642 522.136 735.312 522.136C734.188 522.136 733.205 522.443 732.364 523.057C731.534 523.659 730.886 524.54 730.42 525.699C729.955 526.858 729.722 528.261 729.722 529.909C729.722 531.58 729.949 533 730.403 534.17C730.869 535.341 731.523 536.233 732.364 536.847C733.205 537.46 734.188 537.767 735.312 537.767C736.142 537.767 736.886 537.597 737.545 537.256C738.216 536.915 738.767 536.42 739.199 535.773C739.642 535.114 739.932 534.324 740.068 533.403H746.92C746.807 535.403 746.261 537.165 745.284 538.688C744.318 540.199 742.983 541.381 741.278 542.233C739.574 543.085 737.557 543.511 735.227 543.511ZM765.496 516.818V522.273H749.729V516.818H765.496ZM753.308 510.545H760.57V534.955C760.57 535.625 760.672 536.148 760.876 536.523C761.081 536.886 761.365 537.142 761.729 537.29C762.104 537.437 762.536 537.511 763.024 537.511C763.365 537.511 763.706 537.483 764.047 537.426C764.388 537.358 764.649 537.307 764.831 537.273L765.973 542.676C765.609 542.79 765.098 542.92 764.439 543.068C763.78 543.227 762.979 543.324 762.036 543.358C760.286 543.426 758.751 543.193 757.433 542.659C756.126 542.125 755.109 541.295 754.382 540.17C753.655 539.045 753.297 537.625 753.308 535.909V510.545ZM596.198 601H583.823V566.091H596.3C599.812 566.091 602.835 566.79 605.369 568.188C607.903 569.574 609.852 571.568 611.215 574.17C612.59 576.773 613.278 579.886 613.278 583.511C613.278 587.148 612.59 590.273 611.215 592.886C609.852 595.5 607.891 597.506 605.335 598.903C602.789 600.301 599.744 601 596.198 601ZM591.204 594.676H595.891C598.073 594.676 599.908 594.29 601.397 593.517C602.897 592.733 604.022 591.523 604.772 589.886C605.533 588.239 605.914 586.114 605.914 583.511C605.914 580.932 605.533 578.824 604.772 577.188C604.022 575.551 602.903 574.347 601.414 573.574C599.925 572.801 598.09 572.415 595.908 572.415H591.204V594.676ZM630.54 601.511C627.847 601.511 625.529 600.966 623.586 599.875C621.654 598.773 620.165 597.216 619.12 595.205C618.075 593.182 617.552 590.79 617.552 588.028C617.552 585.335 618.075 582.972 619.12 580.938C620.165 578.903 621.637 577.318 623.535 576.182C625.444 575.045 627.683 574.477 630.251 574.477C631.978 574.477 633.586 574.756 635.075 575.312C636.575 575.858 637.881 576.682 638.995 577.784C640.12 578.886 640.995 580.273 641.62 581.943C642.245 583.602 642.558 585.545 642.558 587.773V589.767H620.45V585.267H635.722C635.722 584.222 635.495 583.295 635.04 582.489C634.586 581.682 633.955 581.051 633.148 580.597C632.353 580.131 631.427 579.898 630.37 579.898C629.268 579.898 628.29 580.153 627.438 580.665C626.597 581.165 625.938 581.841 625.461 582.693C624.984 583.534 624.739 584.472 624.728 585.506V589.784C624.728 591.08 624.967 592.199 625.444 593.142C625.933 594.085 626.62 594.812 627.506 595.324C628.393 595.835 629.444 596.091 630.66 596.091C631.467 596.091 632.205 595.977 632.876 595.75C633.546 595.523 634.12 595.182 634.597 594.727C635.075 594.273 635.438 593.716 635.688 593.057L642.404 593.5C642.063 595.114 641.364 596.523 640.308 597.727C639.262 598.92 637.91 599.852 636.251 600.523C634.603 601.182 632.7 601.511 630.54 601.511ZM661.222 574.818V580.273H645.455V574.818H661.222ZM649.035 568.545H656.296V592.955C656.296 593.625 656.398 594.148 656.603 594.523C656.808 594.886 657.092 595.142 657.455 595.29C657.83 595.437 658.262 595.511 658.751 595.511C659.092 595.511 659.433 595.483 659.773 595.426C660.114 595.358 660.376 595.307 660.558 595.273L661.7 600.676C661.336 600.79 660.825 600.92 660.165 601.068C659.506 601.227 658.705 601.324 657.762 601.358C656.012 601.426 654.478 601.193 653.16 600.659C651.853 600.125 650.836 599.295 650.109 598.17C649.381 597.045 649.023 595.625 649.035 593.909V568.545ZM677.603 601.511C674.91 601.511 672.592 600.966 670.648 599.875C668.717 598.773 667.228 597.216 666.183 595.205C665.137 593.182 664.614 590.79 664.614 588.028C664.614 585.335 665.137 582.972 666.183 580.938C667.228 578.903 668.7 577.318 670.597 576.182C672.506 575.045 674.745 574.477 677.313 574.477C679.04 574.477 680.648 574.756 682.137 575.312C683.637 575.858 684.944 576.682 686.058 577.784C687.183 578.886 688.058 580.273 688.683 581.943C689.308 583.602 689.62 585.545 689.62 587.773V589.767H667.512V585.267H682.785C682.785 584.222 682.558 583.295 682.103 582.489C681.648 581.682 681.018 581.051 680.211 580.597C679.415 580.131 678.489 579.898 677.433 579.898C676.33 579.898 675.353 580.153 674.501 580.665C673.66 581.165 673.001 581.841 672.523 582.693C672.046 583.534 671.802 584.472 671.79 585.506V589.784C671.79 591.08 672.029 592.199 672.506 593.142C672.995 594.085 673.683 594.812 674.569 595.324C675.455 595.835 676.506 596.091 677.722 596.091C678.529 596.091 679.268 595.977 679.938 595.75C680.609 595.523 681.183 595.182 681.66 594.727C682.137 594.273 682.501 593.716 682.751 593.057L689.467 593.5C689.126 595.114 688.427 596.523 687.37 597.727C686.325 598.92 684.972 599.852 683.313 600.523C681.665 601.182 679.762 601.511 677.603 601.511ZM706.188 601.511C703.506 601.511 701.2 600.943 699.268 599.807C697.347 598.659 695.87 597.068 694.836 595.034C693.813 593 693.302 590.659 693.302 588.011C693.302 585.33 693.819 582.977 694.853 580.955C695.898 578.92 697.381 577.335 699.302 576.199C701.222 575.051 703.506 574.477 706.154 574.477C708.438 574.477 710.438 574.892 712.154 575.722C713.87 576.551 715.228 577.716 716.228 579.216C717.228 580.716 717.779 582.477 717.881 584.5H711.029C710.836 583.193 710.325 582.142 709.495 581.347C708.677 580.54 707.603 580.136 706.273 580.136C705.148 580.136 704.165 580.443 703.325 581.057C702.495 581.659 701.847 582.54 701.381 583.699C700.915 584.858 700.683 586.261 700.683 587.909C700.683 589.58 700.91 591 701.364 592.17C701.83 593.341 702.484 594.233 703.325 594.847C704.165 595.46 705.148 595.767 706.273 595.767C707.103 595.767 707.847 595.597 708.506 595.256C709.177 594.915 709.728 594.42 710.16 593.773C710.603 593.114 710.893 592.324 711.029 591.403H717.881C717.768 593.403 717.222 595.165 716.245 596.688C715.279 598.199 713.944 599.381 712.239 600.233C710.535 601.085 708.518 601.511 706.188 601.511ZM736.457 574.818V580.273H720.69V574.818H736.457ZM724.269 568.545H731.531V592.955C731.531 593.625 731.633 594.148 731.837 594.523C732.042 594.886 732.326 595.142 732.69 595.29C733.065 595.437 733.496 595.511 733.985 595.511C734.326 595.511 734.667 595.483 735.008 595.426C735.349 595.358 735.61 595.307 735.792 595.273L736.934 600.676C736.57 600.79 736.059 600.92 735.4 601.068C734.741 601.227 733.94 601.324 732.996 601.358C731.246 601.426 729.712 601.193 728.394 600.659C727.087 600.125 726.07 599.295 725.343 598.17C724.616 597.045 724.258 595.625 724.269 593.909V568.545ZM752.837 601.511C750.144 601.511 747.826 600.966 745.883 599.875C743.951 598.773 742.462 597.216 741.417 595.205C740.371 593.182 739.849 590.79 739.849 588.028C739.849 585.335 740.371 582.972 741.417 580.938C742.462 578.903 743.934 577.318 745.832 576.182C747.741 575.045 749.979 574.477 752.548 574.477C754.275 574.477 755.883 574.756 757.371 575.312C758.871 575.858 760.178 576.682 761.292 577.784C762.417 578.886 763.292 580.273 763.917 581.943C764.542 583.602 764.854 585.545 764.854 587.773V589.767H742.746V585.267H758.019C758.019 584.222 757.792 583.295 757.337 582.489C756.883 581.682 756.252 581.051 755.445 580.597C754.65 580.131 753.724 579.898 752.667 579.898C751.565 579.898 750.587 580.153 749.735 580.665C748.894 581.165 748.235 581.841 747.758 582.693C747.281 583.534 747.036 584.472 747.025 585.506V589.784C747.025 591.08 747.263 592.199 747.741 593.142C748.229 594.085 748.917 594.812 749.803 595.324C750.69 595.835 751.741 596.091 752.957 596.091C753.763 596.091 754.502 595.977 755.173 595.75C755.843 595.523 756.417 595.182 756.894 594.727C757.371 594.273 757.735 593.716 757.985 593.057L764.701 593.5C764.36 595.114 763.661 596.523 762.604 597.727C761.559 598.92 760.207 599.852 758.548 600.523C756.9 601.182 754.996 601.511 752.837 601.511ZM779.241 601.426C777.252 601.426 775.451 600.915 773.837 599.892C772.235 598.858 770.962 597.341 770.019 595.341C769.087 593.33 768.621 590.864 768.621 587.943C768.621 584.943 769.104 582.449 770.07 580.46C771.036 578.46 772.32 576.966 773.923 575.977C775.536 574.977 777.303 574.477 779.224 574.477C780.69 574.477 781.911 574.727 782.888 575.227C783.877 575.716 784.673 576.33 785.275 577.068C785.888 577.795 786.354 578.511 786.673 579.216H786.894V566.091H794.138V601H786.979V596.807H786.673C786.332 597.534 785.849 598.256 785.224 598.972C784.61 599.676 783.809 600.261 782.82 600.727C781.843 601.193 780.65 601.426 779.241 601.426ZM781.542 595.648C782.712 595.648 783.701 595.33 784.508 594.693C785.326 594.045 785.951 593.142 786.383 591.983C786.826 590.824 787.048 589.466 787.048 587.909C787.048 586.352 786.832 585 786.4 583.852C785.968 582.705 785.343 581.818 784.525 581.193C783.707 580.568 782.712 580.256 781.542 580.256C780.349 580.256 779.343 580.58 778.525 581.227C777.707 581.875 777.087 582.773 776.667 583.92C776.246 585.068 776.036 586.398 776.036 587.909C776.036 589.432 776.246 590.778 776.667 591.949C777.099 593.108 777.718 594.017 778.525 594.676C779.343 595.324 780.349 595.648 781.542 595.648Z" fill="white"/>
<path d="M66.983 520.091V555H60.608L45.4205 533.028H45.1648V555H37.7841V520.091H44.2614L59.3295 542.045H59.6364V520.091H66.983ZM84.7741 555.511C82.1264 555.511 79.8366 554.949 77.9048 553.824C75.9844 552.687 74.5014 551.108 73.456 549.085C72.4105 547.051 71.8878 544.693 71.8878 542.011C71.8878 539.307 72.4105 536.943 73.456 534.92C74.5014 532.886 75.9844 531.307 77.9048 530.182C79.8366 529.045 82.1264 528.477 84.7741 528.477C87.4219 528.477 89.706 529.045 91.6264 530.182C93.5582 531.307 95.0469 532.886 96.0923 534.92C97.1378 536.943 97.6605 539.307 97.6605 542.011C97.6605 544.693 97.1378 547.051 96.0923 549.085C95.0469 551.108 93.5582 552.687 91.6264 553.824C89.706 554.949 87.4219 555.511 84.7741 555.511ZM84.8082 549.886C86.0128 549.886 87.0185 549.545 87.8253 548.864C88.6321 548.17 89.2401 547.227 89.6491 546.034C90.0696 544.841 90.2798 543.483 90.2798 541.96C90.2798 540.438 90.0696 539.08 89.6491 537.886C89.2401 536.693 88.6321 535.75 87.8253 535.057C87.0185 534.364 86.0128 534.017 84.8082 534.017C83.5923 534.017 82.5696 534.364 81.7401 535.057C80.9219 535.75 80.3026 536.693 79.8821 537.886C79.473 539.08 79.2685 540.438 79.2685 541.96C79.2685 543.483 79.473 544.841 79.8821 546.034C80.3026 547.227 80.9219 548.17 81.7401 548.864C82.5696 549.545 83.5923 549.886 84.8082 549.886ZM145.707 537.545C145.707 541.352 144.986 544.591 143.543 547.261C142.111 549.932 140.156 551.972 137.679 553.381C135.213 554.778 132.44 555.477 129.361 555.477C126.259 555.477 123.474 554.773 121.009 553.364C118.543 551.955 116.594 549.915 115.162 547.244C113.73 544.574 113.014 541.341 113.014 537.545C113.014 533.739 113.73 530.5 115.162 527.83C116.594 525.159 118.543 523.125 121.009 521.727C123.474 520.318 126.259 519.614 129.361 519.614C132.44 519.614 135.213 520.318 137.679 521.727C140.156 523.125 142.111 525.159 143.543 527.83C144.986 530.5 145.707 533.739 145.707 537.545ZM138.224 537.545C138.224 535.08 137.855 533 137.116 531.307C136.389 529.614 135.361 528.33 134.031 527.455C132.702 526.58 131.145 526.142 129.361 526.142C127.577 526.142 126.02 526.58 124.69 527.455C123.361 528.33 122.327 529.614 121.588 531.307C120.861 533 120.497 535.08 120.497 537.545C120.497 540.011 120.861 542.091 121.588 543.784C122.327 545.477 123.361 546.761 124.69 547.636C126.02 548.511 127.577 548.949 129.361 548.949C131.145 548.949 132.702 548.511 134.031 547.636C135.361 546.761 136.389 545.477 137.116 543.784C137.855 542.091 138.224 540.011 138.224 537.545ZM151.175 555V520.091H158.436V533.216H158.658C158.976 532.511 159.436 531.795 160.038 531.068C160.652 530.33 161.447 529.716 162.425 529.227C163.413 528.727 164.641 528.477 166.107 528.477C168.016 528.477 169.777 528.977 171.391 529.977C173.004 530.966 174.294 532.46 175.26 534.46C176.226 536.449 176.709 538.943 176.709 541.943C176.709 544.864 176.237 547.33 175.294 549.341C174.362 551.341 173.089 552.858 171.476 553.892C169.874 554.915 168.078 555.426 166.089 555.426C164.68 555.426 163.482 555.193 162.493 554.727C161.516 554.261 160.714 553.676 160.089 552.972C159.464 552.256 158.987 551.534 158.658 550.807H158.334V555H151.175ZM158.283 541.909C158.283 543.466 158.499 544.824 158.93 545.983C159.362 547.142 159.987 548.045 160.805 548.693C161.624 549.33 162.618 549.648 163.788 549.648C164.97 549.648 165.97 549.324 166.788 548.676C167.607 548.017 168.226 547.108 168.646 545.949C169.078 544.778 169.294 543.432 169.294 541.909C169.294 540.398 169.084 539.068 168.663 537.92C168.243 536.773 167.624 535.875 166.805 535.227C165.987 534.58 164.982 534.256 163.788 534.256C162.607 534.256 161.607 534.568 160.788 535.193C159.982 535.818 159.362 536.705 158.93 537.852C158.499 539 158.283 540.352 158.283 541.909ZM181.554 528.818H188.815V556.295C188.815 558.318 188.418 559.955 187.622 561.205C186.827 562.455 185.685 563.369 184.196 563.949C182.719 564.528 180.952 564.818 178.895 564.818C178.645 564.818 178.406 564.813 178.179 564.801C177.94 564.801 177.69 564.795 177.429 564.784V559.108C177.622 559.119 177.793 559.125 177.94 559.125C178.077 559.136 178.224 559.142 178.384 559.142C179.554 559.142 180.372 558.892 180.838 558.392C181.315 557.903 181.554 557.165 181.554 556.176V528.818ZM185.168 525.443C184.099 525.443 183.179 525.085 182.406 524.369C181.634 523.642 181.247 522.773 181.247 521.761C181.247 520.761 181.634 519.903 182.406 519.188C183.179 518.46 184.099 518.097 185.168 518.097C186.259 518.097 187.185 518.46 187.946 519.188C188.719 519.903 189.105 520.761 189.105 521.761C189.105 522.773 188.719 523.642 187.946 524.369C187.185 525.085 186.259 525.443 185.168 525.443ZM206.564 555.511C203.871 555.511 201.553 554.966 199.609 553.875C197.678 552.773 196.189 551.216 195.143 549.205C194.098 547.182 193.575 544.79 193.575 542.028C193.575 539.335 194.098 536.972 195.143 534.938C196.189 532.903 197.661 531.318 199.558 530.182C201.467 529.045 203.706 528.477 206.274 528.477C208.001 528.477 209.609 528.756 211.098 529.312C212.598 529.858 213.905 530.682 215.018 531.784C216.143 532.886 217.018 534.273 217.643 535.943C218.268 537.602 218.581 539.545 218.581 541.773V543.767H196.473V539.267H211.746C211.746 538.222 211.518 537.295 211.064 536.489C210.609 535.682 209.979 535.051 209.172 534.597C208.376 534.131 207.45 533.898 206.393 533.898C205.291 533.898 204.314 534.153 203.462 534.665C202.621 535.165 201.962 535.841 201.484 536.693C201.007 537.534 200.763 538.472 200.751 539.506V543.784C200.751 545.08 200.99 546.199 201.467 547.142C201.956 548.085 202.643 548.812 203.53 549.324C204.416 549.835 205.467 550.091 206.683 550.091C207.49 550.091 208.229 549.977 208.899 549.75C209.57 549.523 210.143 549.182 210.621 548.727C211.098 548.273 211.462 547.716 211.712 547.057L218.428 547.5C218.087 549.114 217.388 550.523 216.331 551.727C215.286 552.92 213.933 553.852 212.274 554.523C210.626 555.182 208.723 555.511 206.564 555.511ZM235.149 555.511C232.467 555.511 230.161 554.943 228.229 553.807C226.308 552.659 224.831 551.068 223.797 549.034C222.774 547 222.263 544.659 222.263 542.011C222.263 539.33 222.78 536.977 223.814 534.955C224.859 532.92 226.342 531.335 228.263 530.199C230.183 529.051 232.467 528.477 235.115 528.477C237.399 528.477 239.399 528.892 241.115 529.722C242.831 530.551 244.189 531.716 245.189 533.216C246.189 534.716 246.74 536.477 246.842 538.5H239.99C239.797 537.193 239.286 536.142 238.456 535.347C237.638 534.54 236.564 534.136 235.234 534.136C234.109 534.136 233.126 534.443 232.286 535.057C231.456 535.659 230.808 536.54 230.342 537.699C229.876 538.858 229.643 540.261 229.643 541.909C229.643 543.58 229.871 545 230.325 546.17C230.791 547.341 231.445 548.233 232.286 548.847C233.126 549.46 234.109 549.767 235.234 549.767C236.064 549.767 236.808 549.597 237.467 549.256C238.138 548.915 238.689 548.42 239.121 547.773C239.564 547.114 239.854 546.324 239.99 545.403H246.842C246.729 547.403 246.183 549.165 245.206 550.688C244.24 552.199 242.905 553.381 241.2 554.233C239.496 555.085 237.479 555.511 235.149 555.511ZM265.418 528.818V534.273H249.651V528.818H265.418ZM253.23 522.545H260.491V546.955C260.491 547.625 260.594 548.148 260.798 548.523C261.003 548.886 261.287 549.142 261.651 549.29C262.026 549.437 262.457 549.511 262.946 549.511C263.287 549.511 263.628 549.483 263.969 549.426C264.31 549.358 264.571 549.307 264.753 549.273L265.895 554.676C265.531 554.79 265.02 554.92 264.361 555.068C263.702 555.227 262.901 555.324 261.957 555.358C260.207 555.426 258.673 555.193 257.355 554.659C256.048 554.125 255.031 553.295 254.304 552.17C253.577 551.045 253.219 549.625 253.23 547.909V522.545ZM58.1982 613H45.8232V578.091H58.3004C61.8118 578.091 64.8345 578.79 67.3686 580.188C69.9027 581.574 71.8516 583.568 73.2152 586.17C74.5902 588.773 75.2777 591.886 75.2777 595.511C75.2777 599.148 74.5902 602.273 73.2152 604.886C71.8516 607.5 69.8913 609.506 67.3345 610.903C64.7891 612.301 61.7436 613 58.1982 613ZM53.2038 606.676H57.8913C60.0732 606.676 61.9084 606.29 63.397 605.517C64.897 604.733 66.022 603.523 66.772 601.886C67.5334 600.239 67.9141 598.114 67.9141 595.511C67.9141 592.932 67.5334 590.824 66.772 589.188C66.022 587.551 64.9027 586.347 63.4141 585.574C61.9254 584.801 60.0902 584.415 57.9084 584.415H53.2038V606.676ZM92.5405 613.511C89.8473 613.511 87.5291 612.966 85.5859 611.875C83.6541 610.773 82.1655 609.216 81.12 607.205C80.0746 605.182 79.5518 602.79 79.5518 600.028C79.5518 597.335 80.0746 594.972 81.12 592.938C82.1655 590.903 83.6371 589.318 85.5348 588.182C87.4439 587.045 89.6825 586.477 92.2507 586.477C93.978 586.477 95.5859 586.756 97.0746 587.312C98.5746 587.858 99.8814 588.682 100.995 589.784C102.12 590.886 102.995 592.273 103.62 593.943C104.245 595.602 104.558 597.545 104.558 599.773V601.767H82.4496V597.267H97.7223C97.7223 596.222 97.495 595.295 97.0405 594.489C96.5859 593.682 95.9553 593.051 95.1484 592.597C94.353 592.131 93.4268 591.898 92.37 591.898C91.2678 591.898 90.2905 592.153 89.4382 592.665C88.5973 593.165 87.9382 593.841 87.4609 594.693C86.9837 595.534 86.7393 596.472 86.728 597.506V601.784C86.728 603.08 86.9666 604.199 87.4439 605.142C87.9325 606.085 88.62 606.812 89.5064 607.324C90.3928 607.835 91.4439 608.091 92.6598 608.091C93.4666 608.091 94.2053 607.977 94.8757 607.75C95.5462 607.523 96.12 607.182 96.5973 606.727C97.0746 606.273 97.4382 605.716 97.6882 605.057L104.404 605.5C104.063 607.114 103.364 608.523 102.308 609.727C101.262 610.92 99.9098 611.852 98.2507 612.523C96.603 613.182 94.6996 613.511 92.5405 613.511ZM123.222 586.818V592.273H107.455V586.818H123.222ZM111.035 580.545H118.296V604.955C118.296 605.625 118.398 606.148 118.603 606.523C118.808 606.886 119.092 607.142 119.455 607.29C119.83 607.437 120.262 607.511 120.751 607.511C121.092 607.511 121.433 607.483 121.773 607.426C122.114 607.358 122.376 607.307 122.558 607.273L123.7 612.676C123.336 612.79 122.825 612.92 122.165 613.068C121.506 613.227 120.705 613.324 119.762 613.358C118.012 613.426 116.478 613.193 115.16 612.659C113.853 612.125 112.836 611.295 112.109 610.17C111.381 609.045 111.023 607.625 111.035 605.909V580.545ZM139.603 613.511C136.91 613.511 134.592 612.966 132.648 611.875C130.717 610.773 129.228 609.216 128.183 607.205C127.137 605.182 126.614 602.79 126.614 600.028C126.614 597.335 127.137 594.972 128.183 592.938C129.228 590.903 130.7 589.318 132.597 588.182C134.506 587.045 136.745 586.477 139.313 586.477C141.04 586.477 142.648 586.756 144.137 587.312C145.637 587.858 146.944 588.682 148.058 589.784C149.183 590.886 150.058 592.273 150.683 593.943C151.308 595.602 151.62 597.545 151.62 599.773V601.767H129.512V597.267H144.785C144.785 596.222 144.558 595.295 144.103 594.489C143.648 593.682 143.018 593.051 142.211 592.597C141.415 592.131 140.489 591.898 139.433 591.898C138.33 591.898 137.353 592.153 136.501 592.665C135.66 593.165 135.001 593.841 134.523 594.693C134.046 595.534 133.802 596.472 133.79 597.506V601.784C133.79 603.08 134.029 604.199 134.506 605.142C134.995 606.085 135.683 606.812 136.569 607.324C137.455 607.835 138.506 608.091 139.722 608.091C140.529 608.091 141.268 607.977 141.938 607.75C142.609 607.523 143.183 607.182 143.66 606.727C144.137 606.273 144.501 605.716 144.751 605.057L151.467 605.5C151.126 607.114 150.427 608.523 149.37 609.727C148.325 610.92 146.972 611.852 145.313 612.523C143.665 613.182 141.762 613.511 139.603 613.511ZM168.188 613.511C165.506 613.511 163.2 612.943 161.268 611.807C159.347 610.659 157.87 609.068 156.836 607.034C155.813 605 155.302 602.659 155.302 600.011C155.302 597.33 155.819 594.977 156.853 592.955C157.898 590.92 159.381 589.335 161.302 588.199C163.222 587.051 165.506 586.477 168.154 586.477C170.438 586.477 172.438 586.892 174.154 587.722C175.87 588.551 177.228 589.716 178.228 591.216C179.228 592.716 179.779 594.477 179.881 596.5H173.029C172.836 595.193 172.325 594.142 171.495 593.347C170.677 592.54 169.603 592.136 168.273 592.136C167.148 592.136 166.165 592.443 165.325 593.057C164.495 593.659 163.847 594.54 163.381 595.699C162.915 596.858 162.683 598.261 162.683 599.909C162.683 601.58 162.91 603 163.364 604.17C163.83 605.341 164.484 606.233 165.325 606.847C166.165 607.46 167.148 607.767 168.273 607.767C169.103 607.767 169.847 607.597 170.506 607.256C171.177 606.915 171.728 606.42 172.16 605.773C172.603 605.114 172.893 604.324 173.029 603.403H179.881C179.768 605.403 179.222 607.165 178.245 608.688C177.279 610.199 175.944 611.381 174.239 612.233C172.535 613.085 170.518 613.511 168.188 613.511ZM198.457 586.818V592.273H182.69V586.818H198.457ZM186.269 580.545H193.531V604.955C193.531 605.625 193.633 606.148 193.837 606.523C194.042 606.886 194.326 607.142 194.69 607.29C195.065 607.437 195.496 607.511 195.985 607.511C196.326 607.511 196.667 607.483 197.008 607.426C197.349 607.358 197.61 607.307 197.792 607.273L198.934 612.676C198.57 612.79 198.059 612.92 197.4 613.068C196.741 613.227 195.94 613.324 194.996 613.358C193.246 613.426 191.712 613.193 190.394 612.659C189.087 612.125 188.07 611.295 187.343 610.17C186.616 609.045 186.258 607.625 186.269 605.909V580.545ZM214.837 613.511C212.144 613.511 209.826 612.966 207.883 611.875C205.951 610.773 204.462 609.216 203.417 607.205C202.371 605.182 201.849 602.79 201.849 600.028C201.849 597.335 202.371 594.972 203.417 592.938C204.462 590.903 205.934 589.318 207.832 588.182C209.741 587.045 211.979 586.477 214.548 586.477C216.275 586.477 217.883 586.756 219.371 587.312C220.871 587.858 222.178 588.682 223.292 589.784C224.417 590.886 225.292 592.273 225.917 593.943C226.542 595.602 226.854 597.545 226.854 599.773V601.767H204.746V597.267H220.019C220.019 596.222 219.792 595.295 219.337 594.489C218.883 593.682 218.252 593.051 217.445 592.597C216.65 592.131 215.724 591.898 214.667 591.898C213.565 591.898 212.587 592.153 211.735 592.665C210.894 593.165 210.235 593.841 209.758 594.693C209.281 595.534 209.036 596.472 209.025 597.506V601.784C209.025 603.08 209.263 604.199 209.741 605.142C210.229 606.085 210.917 606.812 211.803 607.324C212.69 607.835 213.741 608.091 214.957 608.091C215.763 608.091 216.502 607.977 217.173 607.75C217.843 607.523 218.417 607.182 218.894 606.727C219.371 606.273 219.735 605.716 219.985 605.057L226.701 605.5C226.36 607.114 225.661 608.523 224.604 609.727C223.559 610.92 222.207 611.852 220.548 612.523C218.9 613.182 216.996 613.511 214.837 613.511ZM241.241 613.426C239.252 613.426 237.451 612.915 235.837 611.892C234.235 610.858 232.962 609.341 232.019 607.341C231.087 605.33 230.621 602.864 230.621 599.943C230.621 596.943 231.104 594.449 232.07 592.46C233.036 590.46 234.32 588.966 235.923 587.977C237.536 586.977 239.303 586.477 241.224 586.477C242.69 586.477 243.911 586.727 244.888 587.227C245.877 587.716 246.673 588.33 247.275 589.068C247.888 589.795 248.354 590.511 248.673 591.216H248.894V578.091H256.138V613H248.979V608.807H248.673C248.332 609.534 247.849 610.256 247.224 610.972C246.61 611.676 245.809 612.261 244.82 612.727C243.843 613.193 242.65 613.426 241.241 613.426ZM243.542 607.648C244.712 607.648 245.701 607.33 246.508 606.693C247.326 606.045 247.951 605.142 248.383 603.983C248.826 602.824 249.048 601.466 249.048 599.909C249.048 598.352 248.832 597 248.4 595.852C247.968 594.705 247.343 593.818 246.525 593.193C245.707 592.568 244.712 592.256 243.542 592.256C242.349 592.256 241.343 592.58 240.525 593.227C239.707 593.875 239.087 594.773 238.667 595.92C238.246 597.068 238.036 598.398 238.036 599.909C238.036 601.432 238.246 602.778 238.667 603.949C239.099 605.108 239.718 606.017 240.525 606.676C241.343 607.324 242.349 607.648 243.542 607.648Z" fill="white"/>
<path d="M201.034 46V11.0909H224.557V17.1761H208.415V25.4943H223.347V31.5795H208.415V39.9148H224.625V46H201.034ZM237.55 30.8636V46H230.288V19.8182H237.209V24.4375H237.516C238.095 22.9148 239.067 21.7102 240.43 20.8239C241.794 19.9261 243.447 19.4773 245.391 19.4773C247.209 19.4773 248.794 19.875 250.146 20.6705C251.499 21.4659 252.55 22.6023 253.3 24.0795C254.05 25.5455 254.425 27.2955 254.425 29.3295V46H247.163V30.625C247.175 29.0227 246.766 27.7727 245.936 26.875C245.107 25.9659 243.964 25.5114 242.51 25.5114C241.533 25.5114 240.669 25.7216 239.919 26.142C239.18 26.5625 238.601 27.1761 238.18 27.983C237.771 28.7784 237.561 29.7386 237.55 30.8636ZM274.074 19.8182V25.2727H258.307V19.8182H274.074ZM261.886 13.5455H269.148V37.9545C269.148 38.625 269.25 39.1477 269.455 39.5227C269.659 39.8864 269.943 40.142 270.307 40.2898C270.682 40.4375 271.114 40.5114 271.602 40.5114C271.943 40.5114 272.284 40.483 272.625 40.4261C272.966 40.358 273.227 40.3068 273.409 40.2727L274.551 45.6761C274.188 45.7898 273.676 45.9205 273.017 46.0682C272.358 46.2273 271.557 46.3239 270.614 46.358C268.864 46.4261 267.33 46.1932 266.011 45.6591C264.705 45.125 263.688 44.2955 262.96 43.1705C262.233 42.0455 261.875 40.625 261.886 38.9091V13.5455ZM278.804 46V19.8182H285.844V24.3864H286.116C286.594 22.7614 287.395 21.5341 288.52 20.7045C289.645 19.8636 290.94 19.4432 292.406 19.4432C292.77 19.4432 293.162 19.4659 293.582 19.5114C294.003 19.5568 294.372 19.6193 294.69 19.6989V26.142C294.349 26.0398 293.878 25.9489 293.276 25.8693C292.673 25.7898 292.122 25.75 291.622 25.75C290.554 25.75 289.599 25.983 288.759 26.4489C287.929 26.9034 287.27 27.5398 286.781 28.358C286.304 29.1761 286.065 30.1193 286.065 31.1875V46H278.804ZM303.724 55.8182C302.804 55.8182 301.94 55.7443 301.134 55.5966C300.338 55.4602 299.679 55.2841 299.156 55.0682L300.793 49.6477C301.645 49.9091 302.412 50.0511 303.094 50.0739C303.787 50.0966 304.384 49.9375 304.884 49.5966C305.395 49.2557 305.81 48.6761 306.128 47.858L306.554 46.75L297.162 19.8182H304.798L310.219 39.0455H310.491L315.963 19.8182H323.651L313.474 48.8295C312.986 50.2386 312.321 51.4659 311.48 52.5114C310.651 53.5682 309.599 54.3807 308.327 54.9489C307.054 55.5284 305.52 55.8182 303.724 55.8182Z" fill="white"/>
<circle cx="415.5" cy="344.5" r="172.5" stroke="white" stroke-width="8"/>
<path d="M340.417 803V768.091H354.19C356.837 768.091 359.093 768.597 360.957 769.608C362.82 770.608 364.241 772 365.218 773.784C366.207 775.557 366.701 777.602 366.701 779.92C366.701 782.239 366.201 784.284 365.201 786.057C364.201 787.83 362.752 789.21 360.854 790.199C358.968 791.187 356.684 791.682 354.002 791.682H345.224V785.767H352.809C354.229 785.767 355.4 785.523 356.32 785.034C357.252 784.534 357.945 783.847 358.4 782.972C358.866 782.085 359.099 781.068 359.099 779.92C359.099 778.761 358.866 777.75 358.4 776.886C357.945 776.011 357.252 775.335 356.32 774.858C355.388 774.369 354.207 774.125 352.775 774.125H347.798V803H340.417ZM382.869 803.511C380.175 803.511 377.857 802.966 375.914 801.875C373.982 800.773 372.494 799.216 371.448 797.205C370.403 795.182 369.88 792.79 369.88 790.028C369.88 787.335 370.403 784.972 371.448 782.938C372.494 780.903 373.965 779.318 375.863 778.182C377.772 777.045 380.011 776.477 382.579 776.477C384.306 776.477 385.914 776.756 387.403 777.312C388.903 777.858 390.21 778.682 391.323 779.784C392.448 780.886 393.323 782.273 393.948 783.943C394.573 785.602 394.886 787.545 394.886 789.773V791.767H372.778V787.267H388.05C388.05 786.222 387.823 785.295 387.369 784.489C386.914 783.682 386.283 783.051 385.477 782.597C384.681 782.131 383.755 781.898 382.698 781.898C381.596 781.898 380.619 782.153 379.766 782.665C378.925 783.165 378.266 783.841 377.789 784.693C377.312 785.534 377.067 786.472 377.056 787.506V791.784C377.056 793.08 377.295 794.199 377.772 795.142C378.261 796.085 378.948 796.812 379.835 797.324C380.721 797.835 381.772 798.091 382.988 798.091C383.795 798.091 384.533 797.977 385.204 797.75C385.874 797.523 386.448 797.182 386.925 796.727C387.403 796.273 387.766 795.716 388.016 795.057L394.732 795.5C394.391 797.114 393.692 798.523 392.636 799.727C391.59 800.92 390.238 801.852 388.579 802.523C386.931 803.182 385.028 803.511 382.869 803.511ZM399.624 803V776.818H406.664V781.386H406.937C407.414 779.761 408.215 778.534 409.34 777.705C410.465 776.864 411.761 776.443 413.227 776.443C413.59 776.443 413.982 776.466 414.403 776.511C414.823 776.557 415.192 776.619 415.511 776.699V783.142C415.17 783.04 414.698 782.949 414.096 782.869C413.494 782.79 412.942 782.75 412.442 782.75C411.374 782.75 410.42 782.983 409.579 783.449C408.749 783.903 408.09 784.54 407.602 785.358C407.124 786.176 406.886 787.119 406.886 788.188V803H399.624ZM441.049 784.284L434.401 784.693C434.288 784.125 434.043 783.614 433.668 783.159C433.293 782.693 432.799 782.324 432.185 782.051C431.583 781.767 430.862 781.625 430.021 781.625C428.896 781.625 427.947 781.864 427.174 782.341C426.401 782.807 426.015 783.432 426.015 784.216C426.015 784.841 426.265 785.369 426.765 785.801C427.265 786.233 428.123 786.58 429.339 786.841L434.077 787.795C436.623 788.318 438.521 789.159 439.771 790.318C441.021 791.477 441.646 793 441.646 794.886C441.646 796.602 441.14 798.108 440.129 799.403C439.129 800.699 437.754 801.71 436.004 802.438C434.265 803.153 432.259 803.511 429.987 803.511C426.521 803.511 423.759 802.79 421.702 801.347C419.657 799.892 418.458 797.915 418.106 795.415L425.248 795.04C425.464 796.097 425.987 796.903 426.816 797.46C427.646 798.006 428.708 798.278 430.004 798.278C431.276 798.278 432.299 798.034 433.072 797.545C433.856 797.045 434.254 796.403 434.265 795.619C434.254 794.96 433.975 794.42 433.43 794C432.884 793.568 432.043 793.239 430.907 793.011L426.373 792.108C423.816 791.597 421.913 790.71 420.663 789.449C419.424 788.187 418.805 786.58 418.805 784.625C418.805 782.943 419.259 781.494 420.168 780.278C421.089 779.062 422.379 778.125 424.038 777.466C425.708 776.807 427.663 776.477 429.901 776.477C433.208 776.477 435.81 777.176 437.708 778.574C439.617 779.972 440.731 781.875 441.049 784.284ZM458.048 803.511C455.4 803.511 453.11 802.949 451.178 801.824C449.258 800.687 447.775 799.108 446.729 797.085C445.684 795.051 445.161 792.693 445.161 790.011C445.161 787.307 445.684 784.943 446.729 782.92C447.775 780.886 449.258 779.307 451.178 778.182C453.11 777.045 455.4 776.477 458.048 776.477C460.695 776.477 462.979 777.045 464.9 778.182C466.832 779.307 468.32 780.886 469.366 782.92C470.411 784.943 470.934 787.307 470.934 790.011C470.934 792.693 470.411 795.051 469.366 797.085C468.32 799.108 466.832 800.687 464.9 801.824C462.979 802.949 460.695 803.511 458.048 803.511ZM458.082 797.886C459.286 797.886 460.292 797.545 461.099 796.864C461.906 796.17 462.513 795.227 462.923 794.034C463.343 792.841 463.553 791.483 463.553 789.96C463.553 788.438 463.343 787.08 462.923 785.886C462.513 784.693 461.906 783.75 461.099 783.057C460.292 782.364 459.286 782.017 458.082 782.017C456.866 782.017 455.843 782.364 455.013 783.057C454.195 783.75 453.576 784.693 453.156 785.886C452.746 787.08 452.542 788.438 452.542 789.96C452.542 791.483 452.746 792.841 453.156 794.034C453.576 795.227 454.195 796.17 455.013 796.864C455.843 797.545 456.866 797.886 458.082 797.886ZM482.917 787.864V803H475.656V776.818H482.576V781.438H482.883C483.462 779.915 484.434 778.71 485.798 777.824C487.161 776.926 488.815 776.477 490.758 776.477C492.576 776.477 494.161 776.875 495.513 777.67C496.866 778.466 497.917 779.602 498.667 781.08C499.417 782.545 499.792 784.295 499.792 786.33V803H492.531V787.625C492.542 786.023 492.133 784.773 491.303 783.875C490.474 782.966 489.332 782.511 487.877 782.511C486.9 782.511 486.036 782.722 485.286 783.142C484.548 783.562 483.968 784.176 483.548 784.983C483.138 785.778 482.928 786.739 482.917 787.864ZM347.354 861V826.091H370.468V832.176H354.735V840.494H368.934V846.58H354.735V861H347.354ZM385.204 861.511C382.556 861.511 380.266 860.949 378.335 859.824C376.414 858.687 374.931 857.108 373.886 855.085C372.84 853.051 372.317 850.693 372.317 848.011C372.317 845.307 372.84 842.943 373.886 840.92C374.931 838.886 376.414 837.307 378.335 836.182C380.266 835.045 382.556 834.477 385.204 834.477C387.852 834.477 390.136 835.045 392.056 836.182C393.988 837.307 395.477 838.886 396.522 840.92C397.567 842.943 398.09 845.307 398.09 848.011C398.09 850.693 397.567 853.051 396.522 855.085C395.477 857.108 393.988 858.687 392.056 859.824C390.136 860.949 387.852 861.511 385.204 861.511ZM385.238 855.886C386.442 855.886 387.448 855.545 388.255 854.864C389.062 854.17 389.67 853.227 390.079 852.034C390.499 850.841 390.71 849.483 390.71 847.96C390.71 846.438 390.499 845.08 390.079 843.886C389.67 842.693 389.062 841.75 388.255 841.057C387.448 840.364 386.442 840.017 385.238 840.017C384.022 840.017 382.999 840.364 382.17 841.057C381.352 841.75 380.732 842.693 380.312 843.886C379.903 845.08 379.698 846.438 379.698 847.96C379.698 849.483 379.903 850.841 380.312 852.034C380.732 853.227 381.352 854.17 382.17 854.864C382.999 855.545 384.022 855.886 385.238 855.886ZM410.073 826.091V861H402.812V826.091H410.073ZM423.151 826.091V861H415.89V826.091H423.151ZM440.798 861.511C438.15 861.511 435.86 860.949 433.928 859.824C432.008 858.687 430.525 857.108 429.479 855.085C428.434 853.051 427.911 850.693 427.911 848.011C427.911 845.307 428.434 842.943 429.479 840.92C430.525 838.886 432.008 837.307 433.928 836.182C435.86 835.045 438.15 834.477 440.798 834.477C443.445 834.477 445.729 835.045 447.65 836.182C449.582 837.307 451.07 838.886 452.116 840.92C453.161 842.943 453.684 845.307 453.684 848.011C453.684 850.693 453.161 853.051 452.116 855.085C451.07 857.108 449.582 858.687 447.65 859.824C445.729 860.949 443.445 861.511 440.798 861.511ZM440.832 855.886C442.036 855.886 443.042 855.545 443.849 854.864C444.656 854.17 445.263 853.227 445.673 852.034C446.093 850.841 446.303 849.483 446.303 847.96C446.303 846.438 446.093 845.08 445.673 843.886C445.263 842.693 444.656 841.75 443.849 841.057C443.042 840.364 442.036 840.017 440.832 840.017C439.616 840.017 438.593 840.364 437.763 841.057C436.945 841.75 436.326 842.693 435.906 843.886C435.496 845.08 435.292 846.438 435.292 847.96C435.292 849.483 435.496 850.841 435.906 852.034C436.326 853.227 436.945 854.17 437.763 854.864C438.593 855.545 439.616 855.886 440.832 855.886ZM462.914 861L455.789 834.818H463.136L467.192 852.409H467.431L471.658 834.818H478.869L483.164 852.307H483.386L487.374 834.818H494.704L487.596 861H479.908L475.408 844.534H475.085L470.585 861H462.914Z" fill="white"/>
<circle cx="415.5" cy="814.5" r="172.5" stroke="white" stroke-width="8"/>
<path d="M630.5 354C628.291 354 626.5 355.791 626.5 358C626.5 360.209 628.291 362 630.5 362V354ZM627.672 783.672C626.109 785.234 626.109 787.766 627.672 789.328L653.127 814.784C654.69 816.346 657.222 816.346 658.784 814.784C660.346 813.222 660.346 810.69 658.784 809.127L636.157 786.5L658.784 763.873C660.346 762.31 660.346 759.778 658.784 758.216C657.222 756.654 654.69 756.654 653.127 758.216L627.672 783.672ZM630.5 362C689.417 362 734.414 388.131 765.016 427.411C795.695 466.789 811.951 519.473 812.876 572.32C813.801 625.17 799.388 677.796 769.217 717.112C739.138 756.308 693.242 782.5 630.5 782.5V790.5C695.758 790.5 743.987 763.129 775.564 721.982C807.049 680.954 821.824 626.455 820.874 572.18C819.924 517.902 803.243 463.461 771.327 422.495C739.336 381.432 692.083 354 630.5 354V362Z" fill="white"/>
<path d="M190.417 794.5C192.627 794.5 194.417 792.709 194.417 790.5C194.417 788.291 192.627 786.5 190.417 786.5V794.5ZM193.246 364.828C194.808 363.266 194.808 360.734 193.246 359.172L167.79 333.716C166.228 332.154 163.695 332.154 162.133 333.716C160.571 335.278 160.571 337.81 162.133 339.373L184.761 362L162.133 384.627C160.571 386.19 160.571 388.722 162.133 390.284C163.695 391.846 166.228 391.846 167.79 390.284L193.246 364.828ZM190.417 786.5C131.501 786.5 86.5035 760.369 55.901 721.089C25.2228 681.711 8.96679 629.027 8.04181 576.18C7.11678 523.33 21.5291 470.704 51.7001 431.388C81.7798 392.192 127.675 366 190.417 366V358C125.16 358 76.93 385.371 45.3535 426.518C13.8682 467.546 -0.906941 522.045 0.043032 576.32C0.993048 630.598 17.6745 685.039 49.5901 726.005C81.5813 767.068 128.834 794.5 190.417 794.5V786.5Z" fill="white"/>
</svg>
